<?xml version="1.0" standalone="no"?>
<!DOCTYPE svg PUBLIC "-//W3C//DTD SVG 1.1//EN" "http://www.w3.org/Graphics/SVG/1.1/DTD/svg11.dtd" >
<svg xmlns="http://www.w3.org/2000/svg" xmlns:xlink="http://www.w3.org/1999/xlink" version="1.1">
<metadata>
Created by FontXChange 20190801 at Tue Apr  2 20:39:48 2019
 By sarah hahnle
Copyright \(c\) 2019 by Adam Ladd. All rights reserved.
</metadata>
<defs>
<font id="ConfigCondensed-Black" horiz-adv-x="524" >
  <font-face 
    font-family="ConfigCondensed"
    font-weight="900"
    font-stretch="condensed"
    units-per-em="1000"
    panose-1="0 0 10 6 0 0 0 0 0 0"
    ascent="770"
    descent="-230"
    x-height="500"
    cap-height="670"
    bbox="-504 -238 1075 929"
    underline-thickness="121"
    underline-position="-120"
    stemh="151"
    stemv="165"
    unicode-range="U+0020-FB02"
  />
<missing-glyph horiz-adv-x="500" 
d="M410 770v-1000h-317v1000h317zM333 703h-165v-33h65v-37h-66v-33h166v33h-66v37h66v33zM267 574h-100v-104h166v34h-66v70zM233 540v-36h-33v36h33zM333 443h-166v-33h66v-37h-66v-33h100v70h66v33zM333 383h-33v-66h-133v-34h166v100zM333 261h-100v-56h34v23h33v-47
h-100v80h-33v-113h166v113zM333 88h-166v-113h166v113zM300 55v-47h-100v47h100zM333 -48h-166v-33h70l-70 -47v-33h166v33h-102l70 47h32v33z" />
    <glyph glyph-name="fi" unicode="fi" horiz-adv-x="562" 
d="M444 550c-57 0 -94 38 -94 93s38 93 94 93c57 0 93 -38 93 -92c0 -57 -37 -94 -93 -94zM526 500v-500h-165v353h-115v-353h-165v353h-59v147h59v71c0 78 55 129 139 129h87v-136h-39c-14 0 -22 -7 -22 -21v-43h280z" />
    <glyph glyph-name="fl" unicode="fl" horiz-adv-x="607" 
d="M81 571c0 78 55 129 139 129h96v-136h-48c-14 0 -22 -7 -22 -21v-43h70v-147h-70v-353h-165v353h-59v147h59v71zM559 151h28v-151h-76c-83 0 -139 51 -139 128v572h165v-529c0 -12 7 -20 22 -20z" />
    <glyph glyph-name="f_f.liga" unicode="ff" horiz-adv-x="617" 
d="M552 564c-14 0 -21 -7 -21 -21v-43h68v-147h-68v-353h-165v353h-120v-353h-165v353h-59v147h59v71c0 78 55 129 139 129h96v-136h-48c-14 0 -22 -7 -22 -21v-43h120v71c0 78 55 129 138 129h95v-136h-47z" />
    <glyph glyph-name="f_f_i.liga" unicode="ffi" horiz-adv-x="846" 
d="M729 549c-57 0 -94 37 -94 94c0 55 37 93 94 93c55 0 93 -38 93 -93c0 -57 -38 -94 -93 -94zM811 500v-500h-165v353h-115v-353h-165v353h-120v-353h-165v353h-59v147h59v71c0 78 55 129 139 129h96v-136h-48c-14 0 -22 -7 -22 -21v-43h120v71c0 78 55 129 138 129h87
v-136h-39c-14 0 -21 -7 -21 -21v-43h280z" />
    <glyph glyph-name="f_f_l.liga" unicode="ffl" horiz-adv-x="892" 
d="M366 571c0 78 55 129 138 129h95v-136h-47c-14 0 -21 -7 -21 -21v-43h68v-147h-68v-353h-165v353h-120v-353h-165v353h-59v147h59v71c0 78 55 129 139 129h96v-136h-48c-14 0 -22 -7 -22 -21v-43h120v71zM843 151h28v-151h-76c-83 0 -138 51 -138 128v572h165v-529
c0 -12 6 -20 21 -20z" />
    <glyph glyph-name=".notdef" horiz-adv-x="500" 
d="M410 770v-1000h-317v1000h317zM333 703h-165v-33h65v-37h-66v-33h166v33h-66v37h66v33zM267 574h-100v-104h166v34h-66v70zM233 540v-36h-33v36h33zM333 443h-166v-33h66v-37h-66v-33h100v70h66v33zM333 383h-33v-66h-133v-34h166v100zM333 261h-100v-56h34v23h33v-47
h-100v80h-33v-113h166v113zM333 88h-166v-113h166v113zM300 55v-47h-100v47h100zM333 -48h-166v-33h70l-70 -47v-33h166v33h-102l70 47h32v33z" />
    <glyph glyph-name="space" unicode=" " horiz-adv-x="175" 
 />
    <glyph glyph-name="A" unicode="A" horiz-adv-x="525" 
d="M327 0l-14 110h-107l-14 -110h-185l133 670h246l133 -670h-192zM225 266h68l-29 230h-10z" />
    <glyph glyph-name="Aacute" unicode="&#xc1;" horiz-adv-x="525" 
d="M436 857l-128 -138h-129l67 159h190v-21zM327 0l-14 110h-107l-14 -110h-185l133 670h246l133 -670h-192zM225 266h68l-29 230h-10z" />
    <glyph glyph-name="Abreve" unicode="&#x102;" horiz-adv-x="525" 
d="M262 711c-93 0 -153 61 -153 155v15h125v-14c0 -16 11 -26 28 -26c16 0 26 10 26 26v14h126v-15c0 -94 -61 -155 -152 -155zM327 0l-14 110h-107l-14 -110h-185l133 670h246l133 -670h-192zM225 266h68l-29 230h-10z" />
    <glyph glyph-name="uni01CD" unicode="&#x1cd;" horiz-adv-x="525" 
d="M344 719h-166l-91 159h139l31 -63h8l31 63h139zM327 0l-14 110h-107l-14 -110h-185l133 670h246l133 -670h-192zM225 266h68l-29 230h-10z" />
    <glyph glyph-name="Acircumflex" unicode="&#xc2;" horiz-adv-x="525" 
d="M257 782l-31 -63h-139l91 159h166l91 -159h-139l-31 63h-8zM327 0l-14 110h-107l-14 -110h-185l133 670h246l133 -670h-192zM225 266h68l-29 230h-10z" />
    <glyph glyph-name="uni0200" unicode="&#x200;" horiz-adv-x="525" 
d="M246 719h-129l-77 138v21h160zM434 719h-129l-76 138v21h161zM327 0l-14 110h-107l-14 -110h-185l133 670h246l133 -670h-192zM225 266h68l-29 230h-10z" />
    <glyph glyph-name="Adieresis" unicode="&#xc4;" horiz-adv-x="525" 
d="M167 715c-51 0 -85 35 -85 87c0 50 34 83 85 83s85 -33 85 -83c0 -52 -35 -87 -85 -87zM358 715c-51 0 -86 35 -86 87c0 50 34 83 86 83c50 0 84 -33 84 -83c0 -52 -35 -87 -84 -87zM327 0l-14 110h-107l-14 -110h-185l133 670h246l133 -670h-192zM225 266h68l-29 230
h-10z" />
    <glyph glyph-name="uni1EA0" unicode="&#x1ea0;" horiz-adv-x="525" 
d="M206 110l-14 -110h-185l133 670h246l133 -670h-192l-14 110h-107zM264 496h-10l-29 -230h68zM262 -45c52 0 88 -36 88 -88c0 -53 -36 -88 -88 -88c-54 0 -89 35 -89 88c0 52 35 88 89 88z" />
    <glyph glyph-name="Agrave" unicode="&#xc0;" horiz-adv-x="525" 
d="M344 719h-129l-128 138v21h190zM327 0l-14 110h-107l-14 -110h-185l133 670h246l133 -670h-192zM225 266h68l-29 230h-10z" />
    <glyph glyph-name="uni0202" unicode="&#x202;" horiz-adv-x="525" 
d="M234 733v-14h-125v14c0 93 60 156 153 156c91 0 152 -63 152 -156v-14h-126v14c0 14 -10 24 -26 24c-17 0 -28 -10 -28 -24zM327 0l-14 110h-107l-14 -110h-185l133 670h246l133 -670h-192zM225 266h68l-29 230h-10z" />
    <glyph glyph-name="Amacron" unicode="&#x100;" horiz-adv-x="525" 
d="M395 859v-127h-264v127h264zM327 0l-14 110h-107l-14 -110h-185l133 670h246l133 -670h-192zM225 266h68l-29 230h-10z" />
    <glyph glyph-name="Aogonek" unicode="&#x104;" horiz-adv-x="525" 
d="M498 -112c10 0 23 4 29 11v-109c-18 -10 -50 -16 -80 -16c-79 0 -130 46 -130 113c0 50 24 94 60 112v1h-50l-14 110h-107l-14 -110h-185l133 670h246l133 -670h-1c-35 -11 -58 -41 -58 -72c0 -24 15 -40 38 -40zM225 266h68l-29 230h-10z" />
    <glyph glyph-name="Aring" unicode="&#xc5;" horiz-adv-x="525" 
d="M263 711c-67 0 -111 43 -111 109s44 109 111 109c66 0 109 -43 109 -109s-43 -109 -109 -109zM263 852c-17 0 -28 -13 -28 -32c0 -20 11 -32 28 -32c15 0 26 12 26 32c0 19 -11 32 -26 32zM327 0l-14 110h-107l-14 -110h-185l133 670h246l133 -670h-192zM225 266h68
l-29 230h-10z" />
    <glyph glyph-name="Atilde" unicode="&#xc3;" horiz-adv-x="525" 
d="M228 748c-14 0 -24 -11 -24 -28h-118v32c0 84 46 141 114 141c49 0 69 -30 93 -30c14 0 25 11 25 28h119v-31c0 -85 -47 -143 -113 -143c-48 0 -72 31 -96 31zM327 0l-14 110h-107l-14 -110h-185l133 670h246l133 -670h-192zM225 266h68l-29 230h-10z" />
    <glyph glyph-name="AE" unicode="&#xc6;" horiz-adv-x="705" 
d="M668 510h-193v-96h161v-152h-161v-102h193v-160h-367v110h-105l-25 -110h-194l204 670h487v-160zM233 266h68v244h-12z" />
    <glyph glyph-name="AEacute" unicode="&#x1fc;" horiz-adv-x="705" 
d="M579 857l-128 -138h-129l67 159h190v-21zM668 510h-193v-96h161v-152h-161v-102h193v-160h-367v110h-105l-25 -110h-194l204 670h487v-160zM233 266h68v244h-12z" />
    <glyph glyph-name="B" unicode="B" horiz-adv-x="508" 
d="M391 335c62 -15 103 -74 103 -160c0 -103 -70 -175 -176 -175h-273v670h257c106 0 176 -71 176 -175c0 -84 -37 -141 -87 -151v-9zM252 519h-32v-113h32c31 0 52 23 52 56s-21 57 -52 57zM268 151c31 0 52 25 52 59c0 35 -21 58 -52 58h-48v-117h48z" />
    <glyph glyph-name="C" unicode="C" horiz-adv-x="513" 
d="M258 -12c-136 0 -226 83 -226 209v276c0 126 90 209 226 209s227 -83 227 -209v-59h-174v56c0 32 -22 52 -53 52s-52 -20 -52 -52v-270c0 -32 21 -52 52 -52s53 20 53 52v56h174v-59c0 -126 -91 -209 -227 -209z" />
    <glyph glyph-name="Cacute" unicode="&#x106;" horiz-adv-x="513" 
d="M175 719l67 159h190v-21l-128 -138h-129zM258 -12c-136 0 -226 83 -226 209v276c0 126 90 209 226 209s227 -83 227 -209v-59h-174v56c0 32 -22 52 -53 52s-52 -20 -52 -52v-270c0 -32 21 -52 52 -52s53 20 53 52v56h174v-59c0 -126 -91 -209 -227 -209z" />
    <glyph glyph-name="Ccaron" unicode="&#x10c;" horiz-adv-x="513" 
d="M174 719l-91 159h139l31 -63h8l31 63h139l-91 -159h-166zM258 -12c-136 0 -226 83 -226 209v276c0 126 90 209 226 209s227 -83 227 -209v-59h-174v56c0 32 -22 52 -53 52s-52 -20 -52 -52v-270c0 -32 21 -52 52 -52s53 20 53 52v56h174v-59c0 -126 -91 -209 -227 -209z
" />
    <glyph glyph-name="Ccedilla" unicode="&#xc7;" horiz-adv-x="513" 
d="M485 414h-174v56c0 32 -22 52 -53 52s-52 -20 -52 -52v-270c0 -32 21 -52 52 -52s53 20 53 52v56h174v-59c0 -114 -74 -192 -188 -207l-13 -27c49 0 81 -38 81 -92c0 -65 -48 -108 -123 -108c-31 0 -59 7 -76 17v86c18 -10 42 -17 61 -17c18 0 29 10 29 25
c0 11 -9 20 -23 20h-50v50l24 48c-107 18 -175 95 -175 205v276c0 126 90 209 226 209s227 -83 227 -209v-59z" />
    <glyph glyph-name="Ccircumflex" unicode="&#x108;" horiz-adv-x="513" 
d="M83 719l91 159h166l91 -159h-139l-31 63h-8l-31 -63h-139zM258 -12c-136 0 -226 83 -226 209v276c0 126 90 209 226 209s227 -83 227 -209v-59h-174v56c0 32 -22 52 -53 52s-52 -20 -52 -52v-270c0 -32 21 -52 52 -52s53 20 53 52v56h174v-59c0 -126 -91 -209 -227 -209z
" />
    <glyph glyph-name="Cdotaccent" unicode="&#x10a;" horiz-adv-x="513" 
d="M258 715c-54 0 -89 36 -89 88c0 53 35 88 89 88c52 0 88 -35 88 -88c0 -52 -36 -88 -88 -88zM258 -12c-136 0 -226 83 -226 209v276c0 126 90 209 226 209s227 -83 227 -209v-59h-174v56c0 32 -22 52 -53 52s-52 -20 -52 -52v-270c0 -32 21 -52 52 -52s53 20 53 52v56
h174v-59c0 -126 -91 -209 -227 -209z" />
    <glyph glyph-name="D" unicode="D" horiz-adv-x="522" 
d="M266 670c134 0 225 -84 225 -213v-244c0 -129 -91 -213 -225 -213h-221v670h221zM316 217v236c0 35 -19 57 -56 57h-40v-350h40c37 0 56 22 56 57z" />
    <glyph glyph-name="uni01F1" unicode="&#x1f1;" horiz-adv-x="980" 
d="M266 670c134 0 225 -84 225 -213v-244c0 -129 -91 -213 -225 -213h-221v670h221zM770 160h178v-160h-403v131l173 370v9h-169v160h395v-131l-174 -370v-9zM316 217v236c0 35 -19 57 -56 57h-40v-350h40c37 0 56 22 56 57z" />
    <glyph glyph-name="uni01C4" unicode="&#x1c4;" horiz-adv-x="980" 
d="M828 719h-166l-91 159h139l31 -63h8l31 63h139zM266 670c134 0 225 -84 225 -213v-244c0 -129 -91 -213 -225 -213h-221v670h221zM770 160h178v-160h-403v131l173 370v9h-169v160h395v-131l-174 -370v-9zM316 217v236c0 35 -19 57 -56 57h-40v-350h40c37 0 56 22 56 57z
" />
    <glyph glyph-name="Eth" unicode="&#xd0;" horiz-adv-x="522" 
d="M266 670c134 0 225 -84 225 -213v-244c0 -129 -91 -213 -225 -213h-221v266h-45v138h45v266h221zM316 217v236c0 35 -19 57 -56 57h-40v-106h55v-138h-55v-106h40c37 0 56 22 56 57z" />
    <glyph glyph-name="Dcaron" unicode="&#x10e;" horiz-adv-x="522" 
d="M342 719h-166l-91 159h139l31 -63h8l31 63h139zM266 670c134 0 225 -84 225 -213v-244c0 -129 -91 -213 -225 -213h-221v670h221zM316 217v236c0 35 -19 57 -56 57h-40v-350h40c37 0 56 22 56 57z" />
    <glyph glyph-name="Dcroat" unicode="&#x110;" horiz-adv-x="522" 
d="M266 670c134 0 225 -84 225 -213v-244c0 -129 -91 -213 -225 -213h-221v266h-45v138h45v266h221zM316 217v236c0 35 -19 57 -56 57h-40v-106h55v-138h-55v-106h40c37 0 56 22 56 57z" />
    <glyph glyph-name="uni1E0C" unicode="&#x1e0c;" horiz-adv-x="522" 
d="M266 670c134 0 225 -84 225 -213v-244c0 -129 -91 -213 -225 -213h-221v670h221zM316 217v236c0 35 -19 57 -56 57h-40v-350h40c37 0 56 22 56 57zM260 -45c52 0 88 -36 88 -88c0 -53 -36 -88 -88 -88c-54 0 -89 35 -89 88c0 52 35 88 89 88z" />
    <glyph glyph-name="uni01F2" unicode="&#x1f2;" horiz-adv-x="929" 
d="M266 670c134 0 225 -84 225 -213v-244c0 -129 -91 -213 -225 -213h-221v670h221zM316 217v236c0 35 -19 57 -56 57h-40v-350h40c37 0 56 22 56 57zM768 149h133v-149h-351v122l128 220v9h-124v149h343v-122l-129 -220v-9z" />
    <glyph glyph-name="uni01C5" unicode="&#x1c5;" horiz-adv-x="929" 
d="M807 549h-166l-91 159h139l31 -63h8l32 63h138zM266 670c134 0 225 -84 225 -213v-244c0 -129 -91 -213 -225 -213h-221v670h221zM316 217v236c0 35 -19 57 -56 57h-40v-350h40c37 0 56 22 56 57zM768 149h133v-149h-351v122l128 220v9h-124v149h343v-122l-129 -220v-9z
" />
    <glyph glyph-name="E" unicode="E" horiz-adv-x="449" 
d="M412 510h-192v-94h159v-156h-159v-100h192v-160h-367v670h367v-160z" />
    <glyph glyph-name="Eacute" unicode="&#xc9;" horiz-adv-x="449" 
d="M403 857l-128 -138h-129l67 159h190v-21zM412 510h-192v-94h159v-156h-159v-100h192v-160h-367v670h367v-160z" />
    <glyph glyph-name="Ebreve" unicode="&#x114;" horiz-adv-x="449" 
d="M229 711c-93 0 -153 61 -153 155v15h125v-14c0 -16 11 -26 28 -26c16 0 26 10 26 26v14h126v-15c0 -94 -61 -155 -152 -155zM412 510h-192v-94h159v-156h-159v-100h192v-160h-367v670h367v-160z" />
    <glyph glyph-name="Ecaron" unicode="&#x11a;" horiz-adv-x="449" 
d="M311 719h-166l-91 159h139l31 -63h8l31 63h139zM412 510h-192v-94h159v-156h-159v-100h192v-160h-367v670h367v-160z" />
    <glyph glyph-name="Ecircumflex" unicode="&#xca;" horiz-adv-x="449" 
d="M224 782l-31 -63h-139l91 159h166l91 -159h-139l-31 63h-8zM412 510h-192v-94h159v-156h-159v-100h192v-160h-367v670h367v-160z" />
    <glyph glyph-name="uni0204" unicode="&#x204;" horiz-adv-x="449" 
d="M212 719h-129l-77 138v21h160zM400 719h-129l-76 138v21h161zM412 510h-192v-94h159v-156h-159v-100h192v-160h-367v670h367v-160z" />
    <glyph glyph-name="Edieresis" unicode="&#xcb;" horiz-adv-x="449" 
d="M133 715c-51 0 -85 35 -85 87c0 50 34 83 85 83s85 -33 85 -83c0 -52 -35 -87 -85 -87zM324 715c-51 0 -86 35 -86 87c0 50 34 83 86 83c50 0 84 -33 84 -83c0 -52 -35 -87 -84 -87zM412 510h-192v-94h159v-156h-159v-100h192v-160h-367v670h367v-160z" />
    <glyph glyph-name="Edotaccent" unicode="&#x116;" horiz-adv-x="449" 
d="M229 715c-54 0 -89 36 -89 88c0 53 35 88 89 88c52 0 88 -35 88 -88c0 -52 -36 -88 -88 -88zM412 510h-192v-94h159v-156h-159v-100h192v-160h-367v670h367v-160z" />
    <glyph glyph-name="uni1EB8" unicode="&#x1eb8;" horiz-adv-x="449" 
d="M412 510h-192v-94h159v-156h-159v-100h192v-160h-367v670h367v-160zM229 -45c52 0 88 -36 88 -88c0 -53 -36 -88 -88 -88c-54 0 -89 35 -89 88c0 52 35 88 89 88z" />
    <glyph glyph-name="Egrave" unicode="&#xc8;" horiz-adv-x="449" 
d="M311 719h-129l-128 138v21h190zM412 510h-192v-94h159v-156h-159v-100h192v-160h-367v670h367v-160z" />
    <glyph glyph-name="uni0206" unicode="&#x206;" horiz-adv-x="449" 
d="M201 733v-14h-125v14c0 93 60 156 153 156c91 0 152 -63 152 -156v-14h-126v14c0 14 -10 24 -26 24c-17 0 -28 -10 -28 -24zM412 510h-192v-94h159v-156h-159v-100h192v-160h-367v670h367v-160z" />
    <glyph glyph-name="Emacron" unicode="&#x112;" horiz-adv-x="449" 
d="M361 859v-127h-264v127h264zM412 510h-192v-94h159v-156h-159v-100h192v-160h-367v670h367v-160z" />
    <glyph glyph-name="Eogonek" unicode="&#x118;" horiz-adv-x="449" 
d="M392 -112c10 0 23 4 29 11v-109c-18 -10 -50 -16 -80 -16c-79 0 -130 46 -130 113c0 50 24 94 60 112v1h-226v670h367v-160h-192v-94h159v-156h-159v-100h192v-160c-35 -11 -58 -41 -58 -72c0 -24 15 -40 38 -40z" />
    <glyph glyph-name="uni1EBC" unicode="&#x1ebc;" horiz-adv-x="449" 
d="M195 748c-14 0 -24 -11 -24 -28h-118v32c0 84 46 141 114 141c49 0 69 -30 93 -30c14 0 25 11 25 28h119v-31c0 -85 -47 -143 -113 -143c-48 0 -72 31 -96 31zM412 510h-192v-94h159v-156h-159v-100h192v-160h-367v670h367v-160z" />
    <glyph glyph-name="F" unicode="F" horiz-adv-x="434" 
d="M404 510h-184v-112h143v-160h-143v-238h-175v670h359v-160z" />
    <glyph glyph-name="G" unicode="G" horiz-adv-x="516" 
d="M485 451h-174v19c0 31 -21 52 -53 52c-31 0 -52 -20 -52 -52v-278c0 -31 20 -53 52 -53c31 0 53 21 53 53v42h-48v147h222v-184c0 -127 -91 -209 -227 -209s-226 83 -226 209v276c0 126 90 209 226 209s227 -82 227 -209v-22z" />
    <glyph glyph-name="uni01F4" unicode="&#x1f4;" horiz-adv-x="516" 
d="M432 857l-128 -138h-129l67 159h190v-21zM485 451h-174v19c0 31 -21 52 -53 52c-31 0 -52 -20 -52 -52v-278c0 -31 20 -53 52 -53c31 0 53 21 53 53v42h-48v147h222v-184c0 -127 -91 -209 -227 -209s-226 83 -226 209v276c0 126 90 209 226 209s227 -82 227 -209v-22z
" />
    <glyph glyph-name="Gbreve" unicode="&#x11e;" horiz-adv-x="516" 
d="M258 711c-93 0 -153 61 -153 155v15h125v-14c0 -16 11 -26 28 -26c16 0 26 10 26 26v14h126v-15c0 -94 -61 -155 -152 -155zM485 451h-174v19c0 31 -21 52 -53 52c-31 0 -52 -20 -52 -52v-278c0 -31 20 -53 52 -53c31 0 53 21 53 53v42h-48v147h222v-184
c0 -127 -91 -209 -227 -209s-226 83 -226 209v276c0 126 90 209 226 209s227 -82 227 -209v-22z" />
    <glyph glyph-name="Gcaron" unicode="&#x1e6;" horiz-adv-x="516" 
d="M340 719h-166l-91 159h139l31 -63h8l31 63h139zM485 451h-174v19c0 31 -21 52 -53 52c-31 0 -52 -20 -52 -52v-278c0 -31 20 -53 52 -53c31 0 53 21 53 53v42h-48v147h222v-184c0 -127 -91 -209 -227 -209s-226 83 -226 209v276c0 126 90 209 226 209s227 -82 227 -209
v-22z" />
    <glyph glyph-name="Gcircumflex" unicode="&#x11c;" horiz-adv-x="516" 
d="M253 782l-31 -63h-139l91 159h166l91 -159h-139l-31 63h-8zM485 451h-174v19c0 31 -21 52 -53 52c-31 0 -52 -20 -52 -52v-278c0 -31 20 -53 52 -53c31 0 53 21 53 53v42h-48v147h222v-184c0 -127 -91 -209 -227 -209s-226 83 -226 209v276c0 126 90 209 226 209
s227 -82 227 -209v-22z" />
    <glyph glyph-name="uni0122" unicode="&#x122;" horiz-adv-x="516" 
d="M485 451h-174v19c0 31 -21 52 -53 52c-31 0 -52 -20 -52 -52v-278c0 -31 20 -53 52 -53c31 0 53 21 53 53v42h-48v147h222v-184c0 -127 -91 -209 -227 -209s-226 83 -226 209v276c0 126 90 209 226 209s227 -82 227 -209v-22zM144 -238l35 189h175v-21l-92 -168h-118z
" />
    <glyph glyph-name="Gdotaccent" unicode="&#x120;" horiz-adv-x="516" 
d="M258 715c-54 0 -89 36 -89 88c0 53 35 88 89 88c52 0 88 -35 88 -88c0 -52 -36 -88 -88 -88zM485 451h-174v19c0 31 -21 52 -53 52c-31 0 -52 -20 -52 -52v-278c0 -31 20 -53 52 -53c31 0 53 21 53 53v42h-48v147h222v-184c0 -127 -91 -209 -227 -209s-226 83 -226 209
v276c0 126 90 209 226 209s227 -82 227 -209v-22z" />
    <glyph glyph-name="H" unicode="H" horiz-adv-x="523" 
d="M303 670h175v-670h-175v258h-83v-258h-175v670h175v-252h83v252z" />
    <glyph glyph-name="Hbar" unicode="&#x126;" horiz-adv-x="523" 
d="M514 597v-122h-36v-475h-175v258h-83v-258h-175v475h-35v122h35v73h175v-73h83v73h175v-73h36zM303 418v57h-83v-57h83z" />
    <glyph glyph-name="Hcircumflex" unicode="&#x124;" horiz-adv-x="523" 
d="M256 782l-31 -63h-139l91 159h166l91 -159h-139l-31 63h-8zM303 670h175v-670h-175v258h-83v-258h-175v670h175v-252h83v252z" />
    <glyph glyph-name="uni1E24" unicode="&#x1e24;" horiz-adv-x="523" 
d="M303 670h175v-670h-175v258h-83v-258h-175v670h175v-252h83v252zM261 -45c52 0 88 -36 88 -88c0 -53 -36 -88 -88 -88c-54 0 -89 35 -89 88c0 52 35 88 89 88z" />
    <glyph glyph-name="I" unicode="I" horiz-adv-x="265" 
d="M45 0v670h175v-670h-175z" />
    <glyph glyph-name="IJ" unicode="&#x132;" horiz-adv-x="733" 
d="M45 0v670h175v-670h-175zM490 -12c-122 0 -204 74 -204 187v80h175v-77c0 -18 11 -30 29 -30s30 12 30 30v492h174v-495c0 -114 -81 -187 -204 -187z" />
    <glyph glyph-name="Iacute" unicode="&#xcd;" horiz-adv-x="265" 
d="M49 719l67 159h190v-21l-128 -138h-129zM45 0v670h175v-670h-175z" />
    <glyph glyph-name="Ibreve" unicode="&#x12c;" horiz-adv-x="265" 
d="M133 711c-93 0 -153 61 -153 155v15h125v-14c0 -16 11 -26 28 -26c16 0 26 10 26 26v14h126v-15c0 -94 -61 -155 -152 -155zM45 0v670h175v-670h-175z" />
    <glyph glyph-name="Icircumflex" unicode="&#xce;" horiz-adv-x="265" 
d="M-43 719l91 159h166l91 -159h-139l-31 63h-8l-31 -63h-139zM45 0v670h175v-670h-175z" />
    <glyph glyph-name="uni0208" unicode="&#x208;" horiz-adv-x="265" 
d="M-13 719l-77 138v21h160l46 -159h-129zM175 719l-76 138v21h161l44 -159h-129zM45 0v670h175v-670h-175z" />
    <glyph glyph-name="Idieresis" unicode="&#xcf;" horiz-adv-x="265" 
d="M37 715c-51 0 -85 35 -85 87c0 50 34 83 85 83s85 -33 85 -83c0 -52 -35 -87 -85 -87zM228 715c-51 0 -86 35 -86 87c0 50 34 83 86 83c50 0 84 -33 84 -83c0 -52 -35 -87 -84 -87zM45 0v670h175v-670h-175z" />
    <glyph glyph-name="Idotaccent" unicode="&#x130;" horiz-adv-x="265" 
d="M133 715c-54 0 -89 36 -89 88c0 53 35 88 89 88c52 0 88 -35 88 -88c0 -52 -36 -88 -88 -88zM45 0v670h175v-670h-175z" />
    <glyph glyph-name="uni1ECA" unicode="&#x1eca;" horiz-adv-x="265" 
d="M45 0v670h175v-670h-175zM133 -221c-54 0 -89 35 -89 88c0 52 35 88 89 88c52 0 88 -36 88 -88c0 -53 -36 -88 -88 -88z" />
    <glyph glyph-name="Igrave" unicode="&#xcc;" horiz-adv-x="265" 
d="M85 719l-128 138v21h190l67 -159h-129zM45 0v670h175v-670h-175z" />
    <glyph glyph-name="uni020A" unicode="&#x20a;" horiz-adv-x="265" 
d="M-20 719v14c0 93 60 156 153 156c91 0 152 -63 152 -156v-14h-126v14c0 14 -10 24 -26 24c-17 0 -28 -10 -28 -24v-14h-125zM45 0v670h175v-670h-175z" />
    <glyph glyph-name="Imacron" unicode="&#x12a;" horiz-adv-x="265" 
d="M1 732v127h264v-127h-264zM45 0v670h175v-670h-175z" />
    <glyph glyph-name="Iogonek" unicode="&#x12e;" horiz-adv-x="265" 
d="M199 -112c10 0 23 4 29 11v-109c-18 -10 -50 -16 -80 -16c-79 0 -130 46 -130 113c0 50 24 94 60 112v1h-33v670h175v-670h-1c-35 -11 -58 -41 -58 -72c0 -24 15 -40 38 -40z" />
    <glyph glyph-name="Itilde" unicode="&#x128;" horiz-adv-x="265" 
d="M195 717c-48 0 -72 31 -96 31c-14 0 -24 -11 -24 -28h-118v32c0 84 46 141 114 141c49 0 69 -30 93 -30c14 0 25 11 25 28h119v-31c0 -85 -47 -143 -113 -143zM45 0v670h175v-670h-175z" />
    <glyph glyph-name="J" unicode="J" horiz-adv-x="468" 
d="M225 -12c-122 0 -204 74 -204 187v80h175v-77c0 -18 11 -30 29 -30s30 12 30 30v492h174v-495c0 -114 -81 -187 -204 -187z" />
    <glyph glyph-name="Jcircumflex" unicode="&#x134;" horiz-adv-x="468" 
d="M164 719l91 159h166l91 -159h-139l-31 63h-8l-31 -63h-139zM225 -12c-122 0 -204 74 -204 187v80h175v-77c0 -18 11 -30 29 -30s30 12 30 30v492h174v-495c0 -114 -81 -187 -204 -187z" />
    <glyph glyph-name="K" unicode="K" horiz-adv-x="528" 
d="M314 0l-67 222l-27 -28v-194h-175v670h175v-248h10l88 248h197l-151 -293l154 -377h-204z" />
    <glyph glyph-name="uni0136" unicode="&#x136;" horiz-adv-x="528" 
d="M220 194v-194h-175v670h175v-248h10l88 248h197l-151 -293l154 -377h-204l-67 222zM160 -238l35 189h175v-21l-92 -168h-118z" />
    <glyph glyph-name="L" unicode="L" horiz-adv-x="417" 
d="M220 160h176v-160h-351v670h175v-510z" />
    <glyph glyph-name="uni01C7" unicode="&#x1c7;" horiz-adv-x="885" 
d="M220 670v-510h176v-160h-351v670h175zM672 670h174v-495c0 -114 -81 -187 -204 -187c-122 0 -204 74 -204 187v80h175v-77c0 -18 11 -30 29 -30s30 12 30 30v492z" />
    <glyph glyph-name="Lacute" unicode="&#x139;" horiz-adv-x="417" 
d="M306 857l-128 -138h-129l67 159h190v-21zM220 160h176v-160h-351v670h175v-510z" />
    <glyph glyph-name="Lcaron" unicode="&#x13d;" horiz-adv-x="417" 
d="M220 670v-510h176v-160h-351v670h175zM251 670h147v-21l-30 -169h-117v190z" />
    <glyph glyph-name="uni013B" unicode="&#x13b;" horiz-adv-x="417" 
d="M220 160h176v-160h-351v670h175v-510zM99 -238l35 189h175v-21l-92 -168h-118z" />
    <glyph glyph-name="Ldot" unicode="&#x13f;" horiz-adv-x="417" 
d="M220 670v-510h176v-160h-351v670h175zM323 284c-50 0 -83 32 -83 81c0 48 33 81 83 81c48 0 80 -33 80 -81c0 -49 -32 -81 -80 -81z" />
    <glyph glyph-name="uni01C8" unicode="&#x1c8;" horiz-adv-x="655" 
d="M536 549c-56 0 -94 37 -94 94c0 55 38 93 94 93s93 -38 93 -93c0 -57 -37 -94 -93 -94zM396 160v-160h-351v670h175v-510h176zM454 -22v522h165v-551c0 -78 -54 -129 -138 -129h-96v137h48c14 0 21 7 21 21z" />
    <glyph glyph-name="Lslash" unicode="&#x141;" horiz-adv-x="417" 
d="M220 160h176v-160h-351v238l-48 -26v154l48 26v278h175v-185l69 37v-153l-69 -37v-172z" />
    <glyph glyph-name="M" unicode="M" horiz-adv-x="677" 
d="M45 0v670h241l50 -315h11l49 315h235v-670h-174v345l7 50h-12l-50 -281h-127l-50 281h-13l8 -50v-345h-175z" />
    <glyph glyph-name="N" unicode="N" horiz-adv-x="554" 
d="M45 0v670h201l84 -337h12l-7 49v288h174v-670h-201l-83 337h-13l8 -49v-288h-175z" />
    <glyph glyph-name="uni01CA" unicode="&#x1ca;" horiz-adv-x="1023" 
d="M45 0v670h201l84 -337h12l-7 49v288h174v-670h-201l-83 337h-13l8 -49v-288h-175zM779 -12c-122 0 -204 74 -204 187v80h175v-77c0 -18 11 -30 29 -30s30 12 30 30v492h174v-495c0 -114 -81 -187 -204 -187z" />
    <glyph glyph-name="Nacute" unicode="&#x143;" horiz-adv-x="554" 
d="M194 719l67 159h190v-21l-128 -138h-129zM45 0v670h201l84 -337h12l-7 49v288h174v-670h-201l-83 337h-13l8 -49v-288h-175z" />
    <glyph glyph-name="Ncaron" unicode="&#x147;" horiz-adv-x="554" 
d="M193 719l-91 159h139l31 -63h8l31 63h139l-91 -159h-166zM45 0v670h201l84 -337h12l-7 49v288h174v-670h-201l-83 337h-13l8 -49v-288h-175z" />
    <glyph glyph-name="uni0145" unicode="&#x145;" horiz-adv-x="554" 
d="M45 0v670h201l84 -337h12l-7 49v288h174v-670h-201l-83 337h-13l8 -49v-288h-175zM163 -238l35 189h175v-21l-92 -168h-118z" />
    <glyph glyph-name="uni1E44" unicode="&#x1e44;" horiz-adv-x="554" 
d="M277 715c-54 0 -89 36 -89 88c0 53 35 88 89 88c52 0 88 -35 88 -88c0 -52 -36 -88 -88 -88zM45 0v670h201l84 -337h12l-7 49v288h174v-670h-201l-83 337h-13l8 -49v-288h-175z" />
    <glyph glyph-name="Eng" unicode="&#x14a;" horiz-adv-x="554" 
d="M335 670h174v-731c0 -85 -58 -144 -146 -144h-103v125h39c21 0 36 18 36 46v34h-27l-83 337h-13l8 -49v-288h-175v670h201l84 -337h12l-7 49v288z" />
    <glyph glyph-name="uni01CB" unicode="&#x1cb;" horiz-adv-x="792" 
d="M673 549c-56 0 -94 37 -94 94c0 55 38 93 94 93s93 -38 93 -93c0 -57 -37 -94 -93 -94zM45 0v670h201l84 -337h12l-7 49v288h174v-670h-201l-83 337h-13l8 -49v-288h-175zM522 -180v137h48c14 0 21 7 21 21v522h165v-551c0 -78 -54 -129 -138 -129h-96z" />
    <glyph glyph-name="Ntilde" unicode="&#xd1;" horiz-adv-x="554" 
d="M339 717c-48 0 -72 31 -96 31c-14 0 -24 -11 -24 -28h-118v32c0 84 46 141 114 141c49 0 69 -30 93 -30c14 0 25 11 25 28h119v-31c0 -85 -47 -143 -113 -143zM45 0v670h201l84 -337h12l-7 49v288h174v-670h-201l-83 337h-13l8 -49v-288h-175z" />
    <glyph glyph-name="O" unicode="O" 
d="M262 -12c-139 0 -230 85 -230 214v266c0 129 91 214 230 214s231 -85 231 -214v-266c0 -129 -92 -214 -231 -214zM262 148c34 0 57 23 57 57v260c0 34 -23 57 -57 57s-56 -23 -56 -57v-260c0 -34 22 -57 56 -57z" />
    <glyph glyph-name="Oacute" unicode="&#xd3;" 
d="M179 719l67 159h190v-21l-128 -138h-129zM262 -12c-139 0 -230 85 -230 214v266c0 129 91 214 230 214s231 -85 231 -214v-266c0 -129 -92 -214 -231 -214zM262 148c34 0 57 23 57 57v260c0 34 -23 57 -57 57s-56 -23 -56 -57v-260c0 -34 22 -57 56 -57z" />
    <glyph glyph-name="Obreve" unicode="&#x14e;" 
d="M262 711c-93 0 -153 61 -153 155v15h125v-14c0 -16 11 -26 28 -26c16 0 26 10 26 26v14h126v-15c0 -94 -61 -155 -152 -155zM262 -12c-139 0 -230 85 -230 214v266c0 129 91 214 230 214s231 -85 231 -214v-266c0 -129 -92 -214 -231 -214zM262 148c34 0 57 23 57 57v260
c0 34 -23 57 -57 57s-56 -23 -56 -57v-260c0 -34 22 -57 56 -57z" />
    <glyph glyph-name="Ocircumflex" unicode="&#xd4;" 
d="M87 719l91 159h166l91 -159h-139l-31 63h-8l-31 -63h-139zM262 -12c-139 0 -230 85 -230 214v266c0 129 91 214 230 214s231 -85 231 -214v-266c0 -129 -92 -214 -231 -214zM262 148c34 0 57 23 57 57v260c0 34 -23 57 -57 57s-56 -23 -56 -57v-260c0 -34 22 -57 56 -57z
" />
    <glyph glyph-name="uni020C" unicode="&#x20c;" 
d="M117 719l-77 138v21h160l46 -159h-129zM305 719l-76 138v21h161l44 -159h-129zM262 -12c-139 0 -230 85 -230 214v266c0 129 91 214 230 214s231 -85 231 -214v-266c0 -129 -92 -214 -231 -214zM262 148c34 0 57 23 57 57v260c0 34 -23 57 -57 57s-56 -23 -56 -57v-260
c0 -34 22 -57 56 -57z" />
    <glyph glyph-name="Odieresis" unicode="&#xd6;" 
d="M167 715c-51 0 -85 35 -85 87c0 50 34 83 85 83s85 -33 85 -83c0 -52 -35 -87 -85 -87zM358 715c-51 0 -86 35 -86 87c0 50 34 83 86 83c50 0 84 -33 84 -83c0 -52 -35 -87 -84 -87zM262 -12c-139 0 -230 85 -230 214v266c0 129 91 214 230 214s231 -85 231 -214v-266
c0 -129 -92 -214 -231 -214zM262 148c34 0 57 23 57 57v260c0 34 -23 57 -57 57s-56 -23 -56 -57v-260c0 -34 22 -57 56 -57z" />
    <glyph glyph-name="uni1ECC" unicode="&#x1ecc;" 
d="M262 -12c-139 0 -230 85 -230 214v266c0 129 91 214 230 214s231 -85 231 -214v-266c0 -129 -92 -214 -231 -214zM262 148c34 0 57 23 57 57v260c0 34 -23 57 -57 57s-56 -23 -56 -57v-260c0 -34 22 -57 56 -57zM262 -221c-54 0 -89 35 -89 88c0 52 35 88 89 88
c52 0 88 -36 88 -88c0 -53 -36 -88 -88 -88z" />
    <glyph glyph-name="Ograve" unicode="&#xd2;" 
d="M215 719l-128 138v21h190l67 -159h-129zM262 -12c-139 0 -230 85 -230 214v266c0 129 91 214 230 214s231 -85 231 -214v-266c0 -129 -92 -214 -231 -214zM262 148c34 0 57 23 57 57v260c0 34 -23 57 -57 57s-56 -23 -56 -57v-260c0 -34 22 -57 56 -57z" />
    <glyph glyph-name="Ohungarumlaut" unicode="&#x150;" 
d="M90 719l45 159h160v-21l-76 -138h-129zM278 719l46 159h160v-21l-76 -138h-130zM262 -12c-139 0 -230 85 -230 214v266c0 129 91 214 230 214s231 -85 231 -214v-266c0 -129 -92 -214 -231 -214zM262 148c34 0 57 23 57 57v260c0 34 -23 57 -57 57s-56 -23 -56 -57v-260
c0 -34 22 -57 56 -57z" />
    <glyph glyph-name="uni020E" unicode="&#x20e;" 
d="M109 719v14c0 93 60 156 153 156c91 0 152 -63 152 -156v-14h-126v14c0 14 -10 24 -26 24c-17 0 -28 -10 -28 -24v-14h-125zM262 -12c-139 0 -230 85 -230 214v266c0 129 91 214 230 214s231 -85 231 -214v-266c0 -129 -92 -214 -231 -214zM262 148c34 0 57 23 57 57v260
c0 34 -23 57 -57 57s-56 -23 -56 -57v-260c0 -34 22 -57 56 -57z" />
    <glyph glyph-name="Omacron" unicode="&#x14c;" 
d="M131 732v127h264v-127h-264zM262 -12c-139 0 -230 85 -230 214v266c0 129 91 214 230 214s231 -85 231 -214v-266c0 -129 -92 -214 -231 -214zM262 148c34 0 57 23 57 57v260c0 34 -23 57 -57 57s-56 -23 -56 -57v-260c0 -34 22 -57 56 -57z" />
    <glyph glyph-name="uni01EA" unicode="&#x1ea;" 
d="M262 682c139 0 231 -85 231 -214v-266c0 -109 -65 -186 -169 -208c-27 -14 -44 -39 -44 -66c0 -24 15 -40 38 -40c10 0 23 4 29 11v-109c-18 -10 -50 -16 -80 -16c-79 0 -130 46 -130 113c0 47 22 90 55 109c-99 24 -160 100 -160 206v266c0 129 91 214 230 214zM206 465
v-260c0 -34 22 -57 56 -57s57 23 57 57v260c0 34 -23 57 -57 57s-56 -23 -56 -57z" />
    <glyph glyph-name="Oslash" unicode="&#xd8;" 
d="M439 614c35 -37 54 -87 54 -146v-266c0 -129 -92 -214 -231 -214c-41 0 -77 7 -109 21l-18 -39h-90l41 86c-35 37 -54 87 -54 146v266c0 129 91 214 230 214c41 0 78 -8 110 -21l19 39h89zM206 465v-155l94 199c-9 8 -23 13 -38 13c-34 0 -56 -23 -56 -57zM262 148
c34 0 57 23 57 57v154l-94 -199c9 -8 22 -12 37 -12z" />
    <glyph glyph-name="Oslashacute" unicode="&#x1fe;" 
d="M433 857l-128 -138h-129l67 159h190v-21zM439 614c35 -37 54 -87 54 -146v-266c0 -129 -92 -214 -231 -214c-41 0 -77 7 -109 21l-18 -39h-90l41 86c-35 37 -54 87 -54 146v266c0 129 91 214 230 214c41 0 78 -8 110 -21l19 39h89zM206 465v-155l94 199
c-9 8 -23 13 -38 13c-34 0 -56 -23 -56 -57zM262 148c34 0 57 23 57 57v154l-94 -199c9 -8 22 -12 37 -12z" />
    <glyph glyph-name="Otilde" unicode="&#xd5;" 
d="M324 717c-48 0 -72 31 -96 31c-14 0 -24 -11 -24 -28h-118v32c0 84 46 141 114 141c49 0 69 -30 93 -30c14 0 25 11 25 28h119v-31c0 -85 -47 -143 -113 -143zM262 -12c-139 0 -230 85 -230 214v266c0 129 91 214 230 214s231 -85 231 -214v-266
c0 -129 -92 -214 -231 -214zM262 148c34 0 57 23 57 57v260c0 34 -23 57 -57 57s-56 -23 -56 -57v-260c0 -34 22 -57 56 -57z" />
    <glyph glyph-name="OE" unicode="&#x152;" horiz-adv-x="713" 
d="M677 510h-192v-96h160v-152h-160v-102h192v-160h-415c-139 0 -230 85 -230 214v242c0 129 91 214 230 214h415v-160zM262 160h49v350h-49c-34 0 -56 -23 -56 -57v-236c0 -34 22 -57 56 -57z" />
    <glyph glyph-name="P" unicode="P" horiz-adv-x="508" 
d="M256 670c152 0 238 -88 238 -242c0 -153 -86 -241 -238 -241h-36v-187h-175v670h211zM242 347c49 0 78 29 78 81c0 53 -29 82 -78 82h-22v-163h22z" />
    <glyph glyph-name="Thorn" unicode="&#xde;" horiz-adv-x="514" 
d="M274 567c145 0 228 -84 228 -229c0 -149 -83 -235 -228 -235h-54v-103h-175v670h175v-103h54zM255 263c46 0 73 27 73 72s-27 72 -73 72h-35v-144h35z" />
    <glyph glyph-name="Q" unicode="Q" 
d="M493 202c0 -69 -26 -125 -72 -163l49 -124h-160l-30 73h-18c-139 0 -230 85 -230 214v266c0 129 91 214 230 214s231 -85 231 -214v-266zM206 205c0 -33 21 -56 54 -57l-29 75h88v242c0 34 -23 57 -57 57s-56 -23 -56 -57v-260z" />
    <glyph glyph-name="R" unicode="R" 
d="M315 0l-72 212h-23v-212h-175v670h229c145 0 228 -83 228 -229c0 -92 -33 -159 -93 -196l109 -245h-203zM220 510v-143h35c46 0 73 26 73 71c0 46 -27 72 -73 72h-35z" />
    <glyph glyph-name="Racute" unicode="&#x154;" 
d="M440 857l-128 -138h-129l67 159h190v-21zM315 0l-72 212h-23v-212h-175v670h229c145 0 228 -83 228 -229c0 -92 -33 -159 -93 -196l109 -245h-203zM220 510v-143h35c46 0 73 26 73 71c0 46 -27 72 -73 72h-35z" />
    <glyph glyph-name="Rcaron" unicode="&#x158;" 
d="M348 719h-166l-91 159h139l31 -63h8l31 63h139zM315 0l-72 212h-23v-212h-175v670h229c145 0 228 -83 228 -229c0 -92 -33 -159 -93 -196l109 -245h-203zM220 510v-143h35c46 0 73 26 73 71c0 46 -27 72 -73 72h-35z" />
    <glyph glyph-name="uni0156" unicode="&#x156;" 
d="M220 212v-212h-175v670h229c145 0 228 -83 228 -229c0 -92 -33 -159 -93 -196l109 -245h-203l-72 212h-23zM255 510h-35v-143h35c46 0 73 26 73 71c0 46 -27 72 -73 72zM152 -238l35 189h175v-21l-92 -168h-118z" />
    <glyph glyph-name="uni0210" unicode="&#x210;" 
d="M250 719h-129l-77 138v21h160zM438 719h-129l-76 138v21h161zM315 0l-72 212h-23v-212h-175v670h229c145 0 228 -83 228 -229c0 -92 -33 -159 -93 -196l109 -245h-203zM220 510v-143h35c46 0 73 26 73 71c0 46 -27 72 -73 72h-35z" />
    <glyph glyph-name="uni1E5A" unicode="&#x1e5a;" 
d="M220 212v-212h-175v670h229c145 0 228 -83 228 -229c0 -92 -33 -159 -93 -196l109 -245h-203l-72 212h-23zM255 510h-35v-143h35c46 0 73 26 73 71c0 46 -27 72 -73 72zM266 -45c52 0 88 -36 88 -88c0 -53 -36 -88 -88 -88c-54 0 -89 35 -89 88c0 52 35 88 89 88z" />
    <glyph glyph-name="uni0212" unicode="&#x212;" 
d="M238 733v-14h-125v14c0 93 60 156 153 156c91 0 152 -63 152 -156v-14h-126v14c0 14 -10 24 -26 24c-17 0 -28 -10 -28 -24zM315 0l-72 212h-23v-212h-175v670h229c145 0 228 -83 228 -229c0 -92 -33 -159 -93 -196l109 -245h-203zM220 510v-143h35c46 0 73 26 73 71
c0 46 -27 72 -73 72h-35z" />
    <glyph glyph-name="S" unicode="S" horiz-adv-x="477" 
d="M242 -12c-133 0 -221 81 -221 206v21h173v-25c0 -26 18 -42 45 -42s44 17 44 40c0 91 -261 55 -261 289c0 130 86 205 213 205c129 0 214 -77 214 -194v-21h-170v20c0 22 -17 35 -42 35c-24 0 -40 -13 -40 -34c0 -89 260 -46 260 -288c0 -134 -86 -212 -215 -212z" />
    <glyph glyph-name="Sacute" unicode="&#x15a;" horiz-adv-x="477" 
d="M156 719l67 159h190v-21l-128 -138h-129zM242 -12c-133 0 -221 81 -221 206v21h173v-25c0 -26 18 -42 45 -42s44 17 44 40c0 91 -261 55 -261 289c0 130 86 205 213 205c129 0 214 -77 214 -194v-21h-170v20c0 22 -17 35 -42 35c-24 0 -40 -13 -40 -34
c0 -89 260 -46 260 -288c0 -134 -86 -212 -215 -212z" />
    <glyph glyph-name="Scaron" unicode="&#x160;" horiz-adv-x="477" 
d="M155 719l-91 159h139l31 -63h8l31 63h139l-91 -159h-166zM242 -12c-133 0 -221 81 -221 206v21h173v-25c0 -26 18 -42 45 -42s44 17 44 40c0 91 -261 55 -261 289c0 130 86 205 213 205c129 0 214 -77 214 -194v-21h-170v20c0 22 -17 35 -42 35c-24 0 -40 -13 -40 -34
c0 -89 260 -46 260 -288c0 -134 -86 -212 -215 -212z" />
    <glyph glyph-name="Scedilla" unicode="&#x15e;" horiz-adv-x="477" 
d="M457 200c0 -121 -70 -197 -179 -210l-13 -27c49 0 81 -38 81 -92c0 -65 -48 -108 -123 -108c-31 0 -59 7 -76 17v86c18 -10 42 -17 61 -17c18 0 29 10 29 25c0 11 -9 20 -23 20h-50v50l24 49c-102 19 -167 94 -167 201v21h173v-25c0 -26 18 -42 45 -42s44 17 44 40
c0 91 -261 55 -261 289c0 130 86 205 213 205c129 0 214 -77 214 -194v-21h-170v20c0 22 -17 35 -42 35c-24 0 -40 -13 -40 -34c0 -89 260 -46 260 -288z" />
    <glyph glyph-name="Scircumflex" unicode="&#x15c;" horiz-adv-x="477" 
d="M64 719l91 159h166l91 -159h-139l-31 63h-8l-31 -63h-139zM242 -12c-133 0 -221 81 -221 206v21h173v-25c0 -26 18 -42 45 -42s44 17 44 40c0 91 -261 55 -261 289c0 130 86 205 213 205c129 0 214 -77 214 -194v-21h-170v20c0 22 -17 35 -42 35c-24 0 -40 -13 -40 -34
c0 -89 260 -46 260 -288c0 -134 -86 -212 -215 -212z" />
    <glyph glyph-name="uni0218" unicode="&#x218;" horiz-adv-x="477" 
d="M242 -12c-133 0 -221 81 -221 206v21h173v-25c0 -26 18 -42 45 -42s44 17 44 40c0 91 -261 55 -261 289c0 130 86 205 213 205c129 0 214 -77 214 -194v-21h-170v20c0 22 -17 35 -42 35c-24 0 -40 -13 -40 -34c0 -89 260 -46 260 -288c0 -134 -86 -212 -215 -212z
M125 -238l35 189h175v-21l-92 -168h-118z" />
    <glyph glyph-name="uni1E62" unicode="&#x1e62;" horiz-adv-x="477" 
d="M242 -12c-133 0 -221 81 -221 206v21h173v-25c0 -26 18 -42 45 -42s44 17 44 40c0 91 -261 55 -261 289c0 130 86 205 213 205c129 0 214 -77 214 -194v-21h-170v20c0 22 -17 35 -42 35c-24 0 -40 -13 -40 -34c0 -89 260 -46 260 -288c0 -134 -86 -212 -215 -212z
M239 -221c-54 0 -89 35 -89 88c0 52 35 88 89 88c52 0 88 -36 88 -88c0 -53 -36 -88 -88 -88z" />
    <glyph glyph-name="uni1E9E" unicode="&#x1e9e;" horiz-adv-x="545" 
d="M433 408c60 -15 97 -98 97 -195c0 -130 -66 -213 -167 -213h-101v154h43c33 0 51 22 51 62s-19 63 -52 63h-38v122l33 106v9h-79v-516h-175v670h440v-124l-60 -127v-9z" />
    <glyph glyph-name="T" unicode="T" horiz-adv-x="469" 
d="M446 670v-160h-125v-510h-174v510h-124v160h423z" />
    <glyph glyph-name="Tbar" unicode="&#x166;" horiz-adv-x="469" 
d="M446 510h-125v-149h70v-139h-70v-222h-174v222h-68v139h68v149h-124v160h423v-160z" />
    <glyph glyph-name="Tcaron" unicode="&#x164;" horiz-adv-x="469" 
d="M316 719h-166l-91 159h139l31 -63h8l31 63h139zM446 670v-160h-125v-510h-174v510h-124v160h423z" />
    <glyph glyph-name="uni0162" unicode="&#x162;" horiz-adv-x="469" 
d="M321 0h-44l-17 -37c49 0 81 -38 81 -92c0 -65 -48 -108 -123 -108c-31 0 -59 7 -76 17v86c18 -10 42 -17 61 -17c18 0 29 10 29 25c0 11 -9 20 -23 20h-50v50l28 56h-40v510h-124v160h423v-160h-125v-510z" />
    <glyph glyph-name="uni021A" unicode="&#x21a;" horiz-adv-x="469" 
d="M23 670h423v-160h-125v-510h-174v510h-124v160zM120 -238l35 189h175v-21l-92 -168h-118z" />
    <glyph glyph-name="uni1E6C" unicode="&#x1e6c;" horiz-adv-x="469" 
d="M23 670h423v-160h-125v-510h-174v510h-124v160zM234 -45c52 0 88 -36 88 -88c0 -53 -36 -88 -88 -88c-54 0 -89 35 -89 88c0 52 35 88 89 88z" />
    <glyph glyph-name="U" unicode="U" 
d="M262 -12c-134 0 -223 81 -223 204v478h175v-475c0 -28 19 -47 48 -47s48 18 48 47v475h175v-478c0 -123 -89 -204 -223 -204z" />
    <glyph glyph-name="Uacute" unicode="&#xda;" 
d="M179 719l67 159h190v-21l-128 -138h-129zM262 -12c-134 0 -223 81 -223 204v478h175v-475c0 -28 19 -47 48 -47s48 18 48 47v475h175v-478c0 -123 -89 -204 -223 -204z" />
    <glyph glyph-name="Ubreve" unicode="&#x16c;" 
d="M262 711c-93 0 -153 61 -153 155v15h125v-14c0 -16 11 -26 28 -26c16 0 26 10 26 26v14h126v-15c0 -94 -61 -155 -152 -155zM262 -12c-134 0 -223 81 -223 204v478h175v-475c0 -28 19 -47 48 -47s48 18 48 47v475h175v-478c0 -123 -89 -204 -223 -204z" />
    <glyph glyph-name="Ucircumflex" unicode="&#xdb;" 
d="M87 719l91 159h166l91 -159h-139l-31 63h-8l-31 -63h-139zM262 -12c-134 0 -223 81 -223 204v478h175v-475c0 -28 19 -47 48 -47s48 18 48 47v475h175v-478c0 -123 -89 -204 -223 -204z" />
    <glyph glyph-name="uni0214" unicode="&#x214;" 
d="M116 719l-77 138v21h160l46 -159h-129zM304 719l-76 138v21h161l44 -159h-129zM262 -12c-134 0 -223 81 -223 204v478h175v-475c0 -28 19 -47 48 -47s48 18 48 47v475h175v-478c0 -123 -89 -204 -223 -204z" />
    <glyph glyph-name="Udieresis" unicode="&#xdc;" 
d="M167 715c-51 0 -85 35 -85 87c0 50 34 83 85 83s85 -33 85 -83c0 -52 -35 -87 -85 -87zM358 715c-51 0 -86 35 -86 87c0 50 34 83 86 83c50 0 84 -33 84 -83c0 -52 -35 -87 -84 -87zM262 -12c-134 0 -223 81 -223 204v478h175v-475c0 -28 19 -47 48 -47s48 18 48 47v475
h175v-478c0 -123 -89 -204 -223 -204z" />
    <glyph glyph-name="uni1EE4" unicode="&#x1ee4;" 
d="M262 -12c-134 0 -223 81 -223 204v478h175v-475c0 -28 19 -47 48 -47s48 18 48 47v475h175v-478c0 -123 -89 -204 -223 -204zM262 -221c-54 0 -89 35 -89 88c0 52 35 88 89 88c52 0 88 -36 88 -88c0 -53 -36 -88 -88 -88z" />
    <glyph glyph-name="Ugrave" unicode="&#xd9;" 
d="M215 719l-128 138v21h190l67 -159h-129zM262 -12c-134 0 -223 81 -223 204v478h175v-475c0 -28 19 -47 48 -47s48 18 48 47v475h175v-478c0 -123 -89 -204 -223 -204z" />
    <glyph glyph-name="Uhungarumlaut" unicode="&#x170;" 
d="M90 719l45 159h160v-21l-76 -138h-129zM278 719l46 159h160v-21l-76 -138h-130zM262 -12c-134 0 -223 81 -223 204v478h175v-475c0 -28 19 -47 48 -47s48 18 48 47v475h175v-478c0 -123 -89 -204 -223 -204z" />
    <glyph glyph-name="uni0216" unicode="&#x216;" 
d="M109 719v14c0 93 60 156 153 156c91 0 152 -63 152 -156v-14h-126v14c0 14 -10 24 -26 24c-17 0 -28 -10 -28 -24v-14h-125zM262 -12c-134 0 -223 81 -223 204v478h175v-475c0 -28 19 -47 48 -47s48 18 48 47v475h175v-478c0 -123 -89 -204 -223 -204z" />
    <glyph glyph-name="Umacron" unicode="&#x16a;" 
d="M131 732v127h264v-127h-264zM262 -12c-134 0 -223 81 -223 204v478h175v-475c0 -28 19 -47 48 -47s48 18 48 47v475h175v-478c0 -123 -89 -204 -223 -204z" />
    <glyph glyph-name="Uogonek" unicode="&#x172;" 
d="M310 670h175v-478c0 -102 -61 -174 -157 -197c-28 -13 -46 -40 -46 -67c0 -24 15 -40 38 -40c10 0 23 4 29 11v-109c-18 -10 -50 -16 -80 -16c-79 0 -130 46 -130 113c0 47 21 89 54 109c-95 23 -154 95 -154 196v478h175v-475c0 -28 19 -47 48 -47s48 18 48 47v475z" />
    <glyph glyph-name="Uring" unicode="&#x16e;" 
d="M262 711c-67 0 -111 43 -111 109s44 109 111 109c66 0 109 -43 109 -109s-43 -109 -109 -109zM262 788c15 0 26 12 26 32c0 19 -11 32 -26 32c-17 0 -28 -13 -28 -32c0 -20 11 -32 28 -32zM262 -12c-134 0 -223 81 -223 204v478h175v-475c0 -28 19 -47 48 -47
s48 18 48 47v475h175v-478c0 -123 -89 -204 -223 -204z" />
    <glyph glyph-name="Utilde" unicode="&#x168;" 
d="M324 717c-48 0 -72 31 -96 31c-14 0 -24 -11 -24 -28h-118v32c0 84 46 141 114 141c49 0 69 -30 93 -30c14 0 25 11 25 28h119v-31c0 -85 -47 -143 -113 -143zM262 -12c-134 0 -223 81 -223 204v478h175v-475c0 -28 19 -47 48 -47s48 18 48 47v475h175v-478
c0 -123 -89 -204 -223 -204z" />
    <glyph glyph-name="V" unicode="V" horiz-adv-x="504" 
d="M140 0l-133 670h191l52 -475h10l52 475h185l-133 -670h-224z" />
    <glyph glyph-name="W" unicode="W" horiz-adv-x="719" 
d="M116 0l-102 670h191l22 -430h11l42 430h164l44 -430h11l21 430h185l-102 -670h-209l-30 370h-10l-30 -370h-208z" />
    <glyph glyph-name="Wacute" unicode="&#x1e82;" horiz-adv-x="719" 
d="M276 719l67 159h190v-21l-128 -138h-129zM116 0l-102 670h191l22 -430h11l42 430h164l44 -430h11l21 430h185l-102 -670h-209l-30 370h-10l-30 -370h-208z" />
    <glyph glyph-name="Wcircumflex" unicode="&#x174;" horiz-adv-x="719" 
d="M184 719l91 159h166l91 -159h-139l-31 63h-8l-31 -63h-139zM116 0l-102 670h191l22 -430h11l42 430h164l44 -430h11l21 430h185l-102 -670h-209l-30 370h-10l-30 -370h-208z" />
    <glyph glyph-name="Wdieresis" unicode="&#x1e84;" horiz-adv-x="719" 
d="M264 715c-51 0 -85 35 -85 87c0 50 34 83 85 83s85 -33 85 -83c0 -52 -35 -87 -85 -87zM455 715c-51 0 -86 35 -86 87c0 50 34 83 86 83c50 0 84 -33 84 -83c0 -52 -35 -87 -84 -87zM116 0l-102 670h191l22 -430h11l42 430h164l44 -430h11l21 430h185l-102 -670h-209
l-30 370h-10l-30 -370h-208z" />
    <glyph glyph-name="Wgrave" unicode="&#x1e80;" horiz-adv-x="719" 
d="M312 719l-128 138v21h190l67 -159h-129zM116 0l-102 670h191l22 -430h11l42 430h164l44 -430h11l21 430h185l-102 -670h-209l-30 370h-10l-30 -370h-208z" />
    <glyph glyph-name="X" unicode="X" horiz-adv-x="521" 
d="M13 0l139 328l-149 342h212l45 -181h10l45 181h194l-139 -328l148 -342h-212l-45 181h-10l-44 -181h-194z" />
    <glyph glyph-name="Y" unicode="Y" horiz-adv-x="512" 
d="M169 0v256l-171 414h201l55 -224h11l54 224h194l-170 -414v-256h-174z" />
    <glyph glyph-name="Yacute" unicode="&#xdd;" horiz-adv-x="512" 
d="M172 719l67 159h190v-21l-128 -138h-129zM169 0v256l-171 414h201l55 -224h11l54 224h194l-170 -414v-256h-174z" />
    <glyph glyph-name="Ycircumflex" unicode="&#x176;" horiz-adv-x="512" 
d="M80 719l91 159h166l91 -159h-139l-31 63h-8l-31 -63h-139zM169 0v256l-171 414h201l55 -224h11l54 224h194l-170 -414v-256h-174z" />
    <glyph glyph-name="Ydieresis" unicode="&#x178;" horiz-adv-x="512" 
d="M160 715c-51 0 -85 35 -85 87c0 50 34 83 85 83s85 -33 85 -83c0 -52 -35 -87 -85 -87zM351 715c-51 0 -86 35 -86 87c0 50 34 83 86 83c50 0 84 -33 84 -83c0 -52 -35 -87 -84 -87zM169 0v256l-171 414h201l55 -224h11l54 224h194l-170 -414v-256h-174z" />
    <glyph glyph-name="Ygrave" unicode="&#x1ef2;" horiz-adv-x="512" 
d="M208 719l-128 138v21h190l67 -159h-129zM169 0v256l-171 414h201l55 -224h11l54 224h194l-170 -414v-256h-174z" />
    <glyph glyph-name="uni0232" unicode="&#x232;" horiz-adv-x="512" 
d="M124 732v127h264v-127h-264zM169 0v256l-171 414h201l55 -224h11l54 224h194l-170 -414v-256h-174z" />
    <glyph glyph-name="uni1EF8" unicode="&#x1ef8;" horiz-adv-x="512" 
d="M318 717c-48 0 -72 31 -96 31c-14 0 -24 -11 -24 -28h-118v32c0 84 46 141 114 141c49 0 69 -30 93 -30c14 0 25 11 25 28h119v-31c0 -85 -47 -143 -113 -143zM169 0v256l-171 414h201l55 -224h11l54 224h194l-170 -414v-256h-174z" />
    <glyph glyph-name="Z" unicode="Z" horiz-adv-x="468" 
d="M33 0v131l173 370v9h-169v160h395v-131l-174 -370v-9h178v-160h-403z" />
    <glyph glyph-name="Zacute" unicode="&#x179;" horiz-adv-x="468" 
d="M151 719l67 159h190v-21l-128 -138h-129zM33 0v131l173 370v9h-169v160h395v-131l-174 -370v-9h178v-160h-403z" />
    <glyph glyph-name="Zcaron" unicode="&#x17d;" horiz-adv-x="468" 
d="M150 719l-91 159h139l31 -63h8l31 63h139l-91 -159h-166zM33 0v131l173 370v9h-169v160h395v-131l-174 -370v-9h178v-160h-403z" />
    <glyph glyph-name="Zdotaccent" unicode="&#x17b;" horiz-adv-x="468" 
d="M234 715c-54 0 -89 36 -89 88c0 53 35 88 89 88c52 0 88 -35 88 -88c0 -52 -36 -88 -88 -88zM33 0v131l173 370v9h-169v160h395v-131l-174 -370v-9h178v-160h-403z" />
    <glyph glyph-name="uni1E92" unicode="&#x1e92;" horiz-adv-x="468" 
d="M33 0v131l173 370v9h-169v160h395v-131l-174 -370v-9h178v-160h-403zM234 -221c-54 0 -89 35 -89 88c0 52 35 88 89 88c52 0 88 -36 88 -88c0 -53 -36 -88 -88 -88z" />
    <glyph glyph-name="K.ss02" horiz-adv-x="528" 
d="M316 0l-68 258h-28v-258h-175v670h175v-252h30l76 252h189l-131 -314l134 -356h-202z" />
    <glyph glyph-name="uni0136.ss02" horiz-adv-x="528" 
d="M220 258v-258h-175v670h175v-252h30l76 252h189l-131 -314l134 -356h-202l-68 258h-28zM160 -238l35 189h175v-21l-92 -168h-118z" />
    <glyph glyph-name="I.ss03" horiz-adv-x="348" 
d="M322 510h-60v-350h60v-160h-296v160h61v350h-61v160h296v-160z" />
    <glyph glyph-name="Iacute.ss03" horiz-adv-x="348" 
d="M157 878h190v-21l-128 -138h-129zM26 510v160h296v-160h-60v-350h60v-160h-296v160h61v350h-61z" />
    <glyph glyph-name="Ibreve.ss03" horiz-adv-x="348" 
d="M200 881h126v-15c0 -94 -61 -155 -152 -155c-93 0 -153 61 -153 155v15h125v-14c0 -16 11 -26 28 -26c16 0 26 10 26 26v14zM26 510v160h296v-160h-60v-350h60v-160h-296v160h61v350h-61z" />
    <glyph glyph-name="Icircumflex.ss03" horiz-adv-x="348" 
d="M169 782l-31 -63h-139l91 159h166l91 -159h-139l-31 63h-8zM26 510v160h296v-160h-60v-350h60v-160h-296v160h61v350h-61z" />
    <glyph glyph-name="uni0208.ss03" horiz-adv-x="348" 
d="M157 719h-129l-77 138v21h160zM345 719h-129l-76 138v21h161zM26 510v160h296v-160h-60v-350h60v-160h-296v160h61v350h-61z" />
    <glyph glyph-name="Idieresis.ss03" horiz-adv-x="348" 
d="M163 802c0 -52 -35 -87 -85 -87c-51 0 -85 35 -85 87c0 50 34 83 85 83s85 -33 85 -83zM269 885c50 0 84 -33 84 -83c0 -52 -35 -87 -84 -87c-51 0 -86 35 -86 87c0 50 34 83 86 83zM26 510v160h296v-160h-60v-350h60v-160h-296v160h61v350h-61z" />
    <glyph glyph-name="Idotaccent.ss03" horiz-adv-x="348" 
d="M174 715c-54 0 -89 36 -89 88c0 53 35 88 89 88c52 0 88 -35 88 -88c0 -52 -36 -88 -88 -88zM322 510h-60v-350h60v-160h-296v160h61v350h-61v160h296v-160z" />
    <glyph glyph-name="uni1ECA.ss03" horiz-adv-x="348" 
d="M322 510h-60v-350h60v-160h-296v160h61v350h-61v160h296v-160zM174 -45c52 0 88 -36 88 -88c0 -53 -36 -88 -88 -88c-54 0 -89 35 -89 88c0 52 35 88 89 88z" />
    <glyph glyph-name="Igrave.ss03" horiz-adv-x="348" 
d="M255 719h-129l-128 138v21h190zM322 510h-60v-350h60v-160h-296v160h61v350h-61v160h296v-160z" />
    <glyph glyph-name="uni020A.ss03" horiz-adv-x="348" 
d="M174 889c91 0 152 -63 152 -156v-14h-126v14c0 14 -10 24 -26 24c-17 0 -28 -10 -28 -24v-14h-125v14c0 93 60 156 153 156zM26 510v160h296v-160h-60v-350h60v-160h-296v160h61v350h-61z" />
    <glyph glyph-name="Imacron.ss03" horiz-adv-x="348" 
d="M306 859v-127h-264v127h264zM322 510h-60v-350h60v-160h-296v160h61v350h-61v160h296v-160z" />
    <glyph glyph-name="Iogonek.ss03" horiz-adv-x="348" 
d="M302 -112c10 0 23 4 29 11v-109c-18 -10 -50 -16 -80 -16c-79 0 -130 46 -130 113c0 50 24 94 60 112v1h-155v160h61v350h-61v160h296v-160h-60v-350h60v-160c-35 -11 -58 -41 -58 -72c0 -24 15 -40 38 -40z" />
    <glyph glyph-name="Itilde.ss03" horiz-adv-x="348" 
d="M230 891h119v-31c0 -85 -47 -143 -113 -143c-48 0 -72 31 -96 31c-14 0 -24 -11 -24 -28h-118v32c0 84 46 141 114 141c49 0 69 -30 93 -30c14 0 25 11 25 28zM26 510v160h296v-160h-60v-350h60v-160h-296v160h61v350h-61z" />
    <glyph glyph-name="J.ss04" horiz-adv-x="468" 
d="M429 670v-495c0 -114 -81 -187 -204 -187c-122 0 -204 74 -204 187v80h175v-77c0 -18 11 -30 29 -30s30 12 30 30v332h-120v160h294z" />
    <glyph glyph-name="Jcircumflex.ss04" horiz-adv-x="468" 
d="M280 782l-31 -63h-139l91 159h166l91 -159h-139l-31 63h-8zM429 670v-495c0 -114 -81 -187 -204 -187c-122 0 -204 74 -204 187v80h175v-77c0 -18 11 -30 29 -30s30 12 30 30v332h-120v160h294z" />
    <glyph glyph-name="Q.ss05" 
d="M262 682c139 0 231 -85 231 -214v-266c0 -103 -58 -177 -152 -204v-27c0 -11 6 -17 15 -17h44v-130h-103c-67 0 -112 44 -112 111v63c-95 26 -153 101 -153 204v266c0 129 91 214 230 214zM206 465v-260c0 -34 22 -57 56 -57s57 23 57 57v260c0 34 -23 57 -57 57
s-56 -23 -56 -57z" />
    <glyph glyph-name="a" unicode="a" horiz-adv-x="424" 
d="M211 512c110 0 185 -66 185 -164v-348h-160v36h-9c-15 -30 -48 -48 -91 -48c-76 0 -126 58 -126 147c0 91 66 151 164 151h57v53c0 14 -9 22 -22 22s-22 -8 -22 -22v-22h-163v31c0 98 74 164 187 164zM206 111c15 0 25 8 25 20v62c-32 0 -53 -18 -53 -47
c0 -21 11 -35 28 -35z" />
    <glyph glyph-name="aacute" unicode="&#xe1;" horiz-adv-x="424" 
d="M390 687l-128 -138h-129l67 159h190v-21zM211 512c110 0 185 -66 185 -164v-348h-160v36h-9c-15 -30 -48 -48 -91 -48c-76 0 -126 58 -126 147c0 91 66 151 164 151h57v53c0 14 -9 22 -22 22s-22 -8 -22 -22v-22h-163v31c0 98 74 164 187 164zM206 111c15 0 25 8 25 20
v62c-32 0 -53 -18 -53 -47c0 -21 11 -35 28 -35z" />
    <glyph glyph-name="abreve" unicode="&#x103;" horiz-adv-x="424" 
d="M216 541c-93 0 -153 61 -153 155v15h125v-14c0 -16 11 -26 28 -26c16 0 26 10 26 26v14h126v-15c0 -94 -61 -155 -152 -155zM211 512c110 0 185 -66 185 -164v-348h-160v36h-9c-15 -30 -48 -48 -91 -48c-76 0 -126 58 -126 147c0 91 66 151 164 151h57v53
c0 14 -9 22 -22 22s-22 -8 -22 -22v-22h-163v31c0 98 74 164 187 164zM206 111c15 0 25 8 25 20v62c-32 0 -53 -18 -53 -47c0 -21 11 -35 28 -35z" />
    <glyph glyph-name="uni01CE" unicode="&#x1ce;" horiz-adv-x="424" 
d="M298 549h-166l-91 159h139l31 -63h8l31 63h139zM211 512c110 0 185 -66 185 -164v-348h-160v36h-9c-15 -30 -48 -48 -91 -48c-76 0 -126 58 -126 147c0 91 66 151 164 151h57v53c0 14 -9 22 -22 22s-22 -8 -22 -22v-22h-163v31c0 98 74 164 187 164zM206 111
c15 0 25 8 25 20v62c-32 0 -53 -18 -53 -47c0 -21 11 -35 28 -35z" />
    <glyph glyph-name="acircumflex" unicode="&#xe2;" horiz-adv-x="424" 
d="M211 612l-31 -63h-139l91 159h166l91 -159h-139l-31 63h-8zM211 512c110 0 185 -66 185 -164v-348h-160v36h-9c-15 -30 -48 -48 -91 -48c-76 0 -126 58 -126 147c0 91 66 151 164 151h57v53c0 14 -9 22 -22 22s-22 -8 -22 -22v-22h-163v31c0 98 74 164 187 164zM206 111
c15 0 25 8 25 20v62c-32 0 -53 -18 -53 -47c0 -21 11 -35 28 -35z" />
    <glyph glyph-name="uni0201" unicode="&#x201;" horiz-adv-x="424" 
d="M200 549h-129l-77 138v21h160zM388 549h-129l-76 138v21h161zM211 512c110 0 185 -66 185 -164v-348h-160v36h-9c-15 -30 -48 -48 -91 -48c-76 0 -126 58 -126 147c0 91 66 151 164 151h57v53c0 14 -9 22 -22 22s-22 -8 -22 -22v-22h-163v31c0 98 74 164 187 164z
M206 111c15 0 25 8 25 20v62c-32 0 -53 -18 -53 -47c0 -21 11 -35 28 -35z" />
    <glyph glyph-name="adieresis" unicode="&#xe4;" horiz-adv-x="424" 
d="M121 545c-51 0 -85 35 -85 87c0 50 34 83 85 83s85 -33 85 -83c0 -52 -35 -87 -85 -87zM312 545c-51 0 -86 35 -86 87c0 50 34 83 86 83c50 0 84 -33 84 -83c0 -52 -35 -87 -84 -87zM211 512c110 0 185 -66 185 -164v-348h-160v36h-9c-15 -30 -48 -48 -91 -48
c-76 0 -126 58 -126 147c0 91 66 151 164 151h57v53c0 14 -9 22 -22 22s-22 -8 -22 -22v-22h-163v31c0 98 74 164 187 164zM206 111c15 0 25 8 25 20v62c-32 0 -53 -18 -53 -47c0 -21 11 -35 28 -35z" />
    <glyph glyph-name="uni1EA1" unicode="&#x1ea1;" horiz-adv-x="424" 
d="M211 512c110 0 185 -66 185 -164v-348h-160v36h-9c-15 -30 -48 -48 -91 -48c-76 0 -126 58 -126 147c0 91 66 151 164 151h57v53c0 14 -9 22 -22 22s-22 -8 -22 -22v-22h-163v31c0 98 74 164 187 164zM206 111c15 0 25 8 25 20v62c-32 0 -53 -18 -53 -47
c0 -21 11 -35 28 -35zM216 -45c52 0 88 -36 88 -88c0 -53 -36 -88 -88 -88c-54 0 -89 35 -89 88c0 52 35 88 89 88z" />
    <glyph glyph-name="agrave" unicode="&#xe0;" horiz-adv-x="424" 
d="M298 549h-129l-128 138v21h190zM211 512c110 0 185 -66 185 -164v-348h-160v36h-9c-15 -30 -48 -48 -91 -48c-76 0 -126 58 -126 147c0 91 66 151 164 151h57v53c0 14 -9 22 -22 22s-22 -8 -22 -22v-22h-163v31c0 98 74 164 187 164zM206 111c15 0 25 8 25 20v62
c-32 0 -53 -18 -53 -47c0 -21 11 -35 28 -35z" />
    <glyph glyph-name="uni0203" unicode="&#x203;" horiz-adv-x="424" 
d="M188 563v-14h-125v14c0 93 60 156 153 156c91 0 152 -63 152 -156v-14h-126v14c0 14 -10 24 -26 24c-17 0 -28 -10 -28 -24zM211 512c110 0 185 -66 185 -164v-348h-160v36h-9c-15 -30 -48 -48 -91 -48c-76 0 -126 58 -126 147c0 91 66 151 164 151h57v53
c0 14 -9 22 -22 22s-22 -8 -22 -22v-22h-163v31c0 98 74 164 187 164zM206 111c15 0 25 8 25 20v62c-32 0 -53 -18 -53 -47c0 -21 11 -35 28 -35z" />
    <glyph glyph-name="amacron" unicode="&#x101;" horiz-adv-x="424" 
d="M349 689v-127h-264v127h264zM211 512c110 0 185 -66 185 -164v-348h-160v36h-9c-15 -30 -48 -48 -91 -48c-76 0 -126 58 -126 147c0 91 66 151 164 151h57v53c0 14 -9 22 -22 22s-22 -8 -22 -22v-22h-163v31c0 98 74 164 187 164zM206 111c15 0 25 8 25 20v62
c-32 0 -53 -18 -53 -47c0 -21 11 -35 28 -35z" />
    <glyph glyph-name="aogonek" unicode="&#x105;" horiz-adv-x="424" 
d="M375 -112c10 0 23 4 29 11v-109c-18 -10 -50 -16 -80 -16c-79 0 -130 46 -130 113c0 50 24 94 60 112v1h-18v36h-9c-15 -30 -48 -48 -91 -48c-76 0 -126 58 -126 147c0 91 66 151 164 151h57v53c0 14 -9 22 -22 22s-22 -8 -22 -22v-22h-163v31c0 98 74 164 187 164
c110 0 185 -66 185 -164v-348h-1c-35 -11 -58 -41 -58 -72c0 -24 15 -40 38 -40zM206 111c15 0 25 8 25 20v62c-32 0 -53 -18 -53 -47c0 -21 11 -35 28 -35z" />
    <glyph glyph-name="aring" unicode="&#xe5;" horiz-adv-x="424" 
d="M217 541c-67 0 -111 43 -111 109s44 109 111 109c66 0 109 -43 109 -109s-43 -109 -109 -109zM217 682c-17 0 -28 -13 -28 -32c0 -20 11 -32 28 -32c15 0 26 12 26 32c0 19 -11 32 -26 32zM211 512c110 0 185 -66 185 -164v-348h-160v36h-9c-15 -30 -48 -48 -91 -48
c-76 0 -126 58 -126 147c0 91 66 151 164 151h57v53c0 14 -9 22 -22 22s-22 -8 -22 -22v-22h-163v31c0 98 74 164 187 164zM206 111c15 0 25 8 25 20v62c-32 0 -53 -18 -53 -47c0 -21 11 -35 28 -35z" />
    <glyph glyph-name="atilde" unicode="&#xe3;" horiz-adv-x="424" 
d="M182 578c-14 0 -24 -11 -24 -28h-118v32c0 84 46 141 114 141c49 0 69 -30 93 -30c14 0 25 11 25 28h119v-31c0 -85 -47 -143 -113 -143c-48 0 -72 31 -96 31zM211 512c110 0 185 -66 185 -164v-348h-160v36h-9c-15 -30 -48 -48 -91 -48c-76 0 -126 58 -126 147
c0 91 66 151 164 151h57v53c0 14 -9 22 -22 22s-22 -8 -22 -22v-22h-163v31c0 98 74 164 187 164zM206 111c15 0 25 8 25 20v62c-32 0 -53 -18 -53 -47c0 -21 11 -35 28 -35z" />
    <glyph glyph-name="ae" unicode="&#xe6;" horiz-adv-x="630" 
d="M607 204h-214v-43c0 -16 10 -27 26 -27c14 0 24 11 24 27v8h164v-12c0 -102 -68 -169 -164 -169c-56 0 -104 25 -128 56h-8c-29 -33 -86 -56 -136 -56c-99 0 -161 59 -161 152c0 87 66 146 164 146h54v54c0 13 -9 21 -21 21c-13 0 -22 -8 -22 -22v-22h-161v31
c0 98 68 164 165 164c45 0 93 -23 118 -56h8c25 33 78 56 128 56c100 0 164 -72 164 -183v-125zM418 366c-15 0 -25 -11 -25 -27v-41h50v41c0 16 -10 27 -25 27zM206 111c13 0 22 8 22 20v61c-31 -1 -50 -19 -50 -46c0 -21 11 -35 28 -35z" />
    <glyph glyph-name="aeacute" unicode="&#x1fd;" horiz-adv-x="630" 
d="M483 687l-128 -138h-129l67 159h190v-21zM607 204h-214v-43c0 -16 10 -27 26 -27c14 0 24 11 24 27v8h164v-12c0 -102 -68 -169 -164 -169c-56 0 -104 25 -128 56h-8c-29 -33 -86 -56 -136 -56c-99 0 -161 59 -161 152c0 87 66 146 164 146h54v54c0 13 -9 21 -21 21
c-13 0 -22 -8 -22 -22v-22h-161v31c0 98 68 164 165 164c45 0 93 -23 118 -56h8c25 33 78 56 128 56c100 0 164 -72 164 -183v-125zM418 366c-15 0 -25 -11 -25 -27v-41h50v41c0 16 -10 27 -25 27zM206 111c13 0 22 8 22 20v61c-31 -1 -50 -19 -50 -46c0 -21 11 -35 28 -35z
" />
    <glyph glyph-name="b" unicode="b" horiz-adv-x="441" 
d="M300 512c68 0 115 -54 115 -131v-262c0 -77 -47 -131 -115 -131c-42 0 -76 23 -91 59h-9v-47h-165v700h165v-247h9c15 35 48 59 91 59zM250 170v160c0 18 -10 28 -25 28c-14 0 -25 -11 -25 -27v-162c0 -16 11 -27 25 -27c15 0 25 10 25 28z" />
    <glyph glyph-name="c" unicode="c" horiz-adv-x="416" 
d="M210 -12c-111 0 -186 70 -186 177v170c0 107 75 177 186 177c113 0 188 -70 188 -177v-34h-164v34c0 17 -10 26 -24 26c-13 0 -21 -10 -21 -26v-170c0 -16 8 -26 21 -26c14 0 24 9 24 26v34h164v-34c0 -107 -75 -177 -188 -177z" />
    <glyph glyph-name="cacute" unicode="&#x107;" horiz-adv-x="416" 
d="M128 549l67 159h190v-21l-128 -138h-129zM210 -12c-111 0 -186 70 -186 177v170c0 107 75 177 186 177c113 0 188 -70 188 -177v-34h-164v34c0 17 -10 26 -24 26c-13 0 -21 -10 -21 -26v-170c0 -16 8 -26 21 -26c14 0 24 9 24 26v34h164v-34c0 -107 -75 -177 -188 -177z
" />
    <glyph glyph-name="ccaron" unicode="&#x10d;" horiz-adv-x="416" 
d="M127 549l-91 159h139l31 -63h8l31 63h139l-91 -159h-166zM210 -12c-111 0 -186 70 -186 177v170c0 107 75 177 186 177c113 0 188 -70 188 -177v-34h-164v34c0 17 -10 26 -24 26c-13 0 -21 -10 -21 -26v-170c0 -16 8 -26 21 -26c14 0 24 9 24 26v34h164v-34
c0 -107 -75 -177 -188 -177z" />
    <glyph glyph-name="ccedilla" unicode="&#xe7;" horiz-adv-x="416" 
d="M398 301h-164v34c0 17 -10 26 -24 26c-13 0 -21 -10 -21 -26v-170c0 -16 8 -26 21 -26c14 0 24 9 24 26v34h164v-34c0 -94 -58 -159 -148 -174l-13 -28c49 0 81 -38 81 -92c0 -65 -48 -108 -123 -108c-31 0 -59 7 -76 17v86c18 -10 42 -17 61 -17c18 0 29 10 29 25
c0 11 -9 20 -23 20h-50v50l25 49c-84 18 -137 82 -137 172v170c0 107 75 177 186 177c113 0 188 -70 188 -177v-34z" />
    <glyph glyph-name="ccircumflex" unicode="&#x109;" horiz-adv-x="416" 
d="M36 549l91 159h166l91 -159h-139l-31 63h-8l-31 -63h-139zM210 -12c-111 0 -186 70 -186 177v170c0 107 75 177 186 177c113 0 188 -70 188 -177v-34h-164v34c0 17 -10 26 -24 26c-13 0 -21 -10 -21 -26v-170c0 -16 8 -26 21 -26c14 0 24 9 24 26v34h164v-34
c0 -107 -75 -177 -188 -177z" />
    <glyph glyph-name="cdotaccent" unicode="&#x10b;" horiz-adv-x="416" 
d="M211 545c-54 0 -89 36 -89 88c0 53 35 88 89 88c52 0 88 -35 88 -88c0 -52 -36 -88 -88 -88zM210 -12c-111 0 -186 70 -186 177v170c0 107 75 177 186 177c113 0 188 -70 188 -177v-34h-164v34c0 17 -10 26 -24 26c-13 0 -21 -10 -21 -26v-170c0 -16 8 -26 21 -26
c14 0 24 9 24 26v34h164v-34c0 -107 -75 -177 -188 -177z" />
    <glyph glyph-name="d" unicode="d" horiz-adv-x="441" 
d="M241 700h165v-700h-165v47h-8c-14 -34 -49 -59 -92 -59c-67 0 -114 53 -114 131v262c0 78 47 131 114 131c43 0 78 -25 92 -59h8v247zM216 142c15 0 25 12 25 27v162c0 15 -10 27 -25 27s-24 -10 -24 -28v-160c0 -18 9 -28 24 -28z" />
    <glyph glyph-name="eth" unicode="&#xf0;" horiz-adv-x="420" 
d="M339 560c39 -78 61 -170 61 -257v-136c0 -108 -76 -179 -189 -179c-115 0 -190 71 -190 179v164c0 85 49 141 124 141c36 0 62 -18 79 -44h9c-8 32 -19 64 -31 94l-94 -26v94l52 15c-19 31 -40 58 -61 77h156c12 -12 24 -26 35 -41l81 23v-95zM235 167v126
c0 18 -10 28 -24 28c-15 0 -25 -10 -25 -28v-126c0 -18 10 -28 25 -28c14 0 24 10 24 28z" />
    <glyph glyph-name="dcaron" unicode="&#x10f;" horiz-adv-x="559" 
d="M241 453v247h165v-700h-165v47h-8c-14 -34 -49 -59 -92 -59c-67 0 -114 53 -114 131v262c0 78 47 131 114 131c43 0 78 -25 92 -59h8zM443 700h147v-21l-29 -169h-118v190zM216 142c15 0 25 12 25 27v162c0 15 -10 27 -25 27s-24 -10 -24 -28v-160c0 -18 9 -28 24 -28z
" />
    <glyph glyph-name="dcroat" unicode="&#x111;" horiz-adv-x="441" 
d="M446 627v-86h-40v-541h-165v47h-8c-14 -34 -49 -59 -92 -59c-67 0 -114 53 -114 131v262c0 78 47 131 114 131c43 0 78 -25 92 -59h8v88h-61v86h61v73h165v-73h40zM216 142c15 0 25 12 25 27v162c0 15 -10 27 -25 27s-24 -10 -24 -28v-160c0 -18 9 -28 24 -28z" />
    <glyph glyph-name="uni1E0D" unicode="&#x1e0d;" horiz-adv-x="441" 
d="M241 700h165v-700h-165v47h-8c-14 -34 -49 -59 -92 -59c-67 0 -114 53 -114 131v262c0 78 47 131 114 131c43 0 78 -25 92 -59h8v247zM216 142c15 0 25 12 25 27v162c0 15 -10 27 -25 27s-24 -10 -24 -28v-160c0 -18 9 -28 24 -28zM225 -45c52 0 88 -36 88 -88
c0 -53 -36 -88 -88 -88c-54 0 -89 35 -89 88c0 52 35 88 89 88z" />
    <glyph glyph-name="uni01F3" unicode="&#x1f3;" horiz-adv-x="848" 
d="M241 453v247h165v-700h-165v47h-8c-14 -34 -49 -59 -92 -59c-67 0 -114 53 -114 131v262c0 78 47 131 114 131c43 0 78 -25 92 -59h8zM687 149h133v-149h-351v122l128 220v9h-124v149h343v-122l-129 -220v-9zM216 142c15 0 25 12 25 27v162c0 15 -10 27 -25 27
s-24 -10 -24 -28v-160c0 -18 9 -28 24 -28z" />
    <glyph glyph-name="uni01C6" unicode="&#x1c6;" horiz-adv-x="848" 
d="M726 549h-166l-91 159h139l31 -63h8l32 63h138zM241 453v247h165v-700h-165v47h-8c-14 -34 -49 -59 -92 -59c-67 0 -114 53 -114 131v262c0 78 47 131 114 131c43 0 78 -25 92 -59h8zM687 149h133v-149h-351v122l128 220v9h-124v149h343v-122l-129 -220v-9zM216 142
c15 0 25 12 25 27v162c0 15 -10 27 -25 27s-24 -10 -24 -28v-160c0 -18 9 -28 24 -28z" />
    <glyph glyph-name="e" unicode="e" horiz-adv-x="426" 
d="M403 204h-214v-43c0 -16 10 -27 24 -27c15 0 25 11 25 27v8h165v-8c0 -104 -76 -173 -189 -173c-115 0 -190 71 -190 179v166c0 108 75 179 190 179c113 0 189 -73 189 -183v-125zM213 366c-14 0 -24 -10 -24 -27v-41h49v41c0 17 -10 27 -25 27z" />
    <glyph glyph-name="eacute" unicode="&#xe9;" horiz-adv-x="426" 
d="M388 687l-128 -138h-129l67 159h190v-21zM403 204h-214v-43c0 -16 10 -27 24 -27c15 0 25 11 25 27v8h165v-8c0 -104 -76 -173 -189 -173c-115 0 -190 71 -190 179v166c0 108 75 179 190 179c113 0 189 -73 189 -183v-125zM213 366c-14 0 -24 -10 -24 -27v-41h49v41
c0 17 -10 27 -25 27z" />
    <glyph glyph-name="ebreve" unicode="&#x115;" horiz-adv-x="426" 
d="M214 541c-93 0 -153 61 -153 155v15h125v-14c0 -16 11 -26 28 -26c16 0 26 10 26 26v14h126v-15c0 -94 -61 -155 -152 -155zM403 204h-214v-43c0 -16 10 -27 24 -27c15 0 25 11 25 27v8h165v-8c0 -104 -76 -173 -189 -173c-115 0 -190 71 -190 179v166
c0 108 75 179 190 179c113 0 189 -73 189 -183v-125zM213 366c-14 0 -24 -10 -24 -27v-41h49v41c0 17 -10 27 -25 27z" />
    <glyph glyph-name="ecaron" unicode="&#x11b;" horiz-adv-x="426" 
d="M296 549h-166l-91 159h139l31 -63h8l31 63h139zM403 204h-214v-43c0 -16 10 -27 24 -27c15 0 25 11 25 27v8h165v-8c0 -104 -76 -173 -189 -173c-115 0 -190 71 -190 179v166c0 108 75 179 190 179c113 0 189 -73 189 -183v-125zM213 366c-14 0 -24 -10 -24 -27v-41h49
v41c0 17 -10 27 -25 27z" />
    <glyph glyph-name="ecircumflex" unicode="&#xea;" horiz-adv-x="426" 
d="M209 612l-31 -63h-139l91 159h166l91 -159h-139l-31 63h-8zM403 204h-214v-43c0 -16 10 -27 24 -27c15 0 25 11 25 27v8h165v-8c0 -104 -76 -173 -189 -173c-115 0 -190 71 -190 179v166c0 108 75 179 190 179c113 0 189 -73 189 -183v-125zM213 366
c-14 0 -24 -10 -24 -27v-41h49v41c0 17 -10 27 -25 27z" />
    <glyph glyph-name="uni0205" unicode="&#x205;" horiz-adv-x="426" 
d="M198 549h-129l-77 138v21h160zM386 549h-129l-76 138v21h161zM403 204h-214v-43c0 -16 10 -27 24 -27c15 0 25 11 25 27v8h165v-8c0 -104 -76 -173 -189 -173c-115 0 -190 71 -190 179v166c0 108 75 179 190 179c113 0 189 -73 189 -183v-125zM213 366
c-14 0 -24 -10 -24 -27v-41h49v41c0 17 -10 27 -25 27z" />
    <glyph glyph-name="edieresis" unicode="&#xeb;" horiz-adv-x="426" 
d="M119 545c-51 0 -85 35 -85 87c0 50 34 83 85 83s85 -33 85 -83c0 -52 -35 -87 -85 -87zM310 545c-51 0 -86 35 -86 87c0 50 34 83 86 83c50 0 84 -33 84 -83c0 -52 -35 -87 -84 -87zM403 204h-214v-43c0 -16 10 -27 24 -27c15 0 25 11 25 27v8h165v-8
c0 -104 -76 -173 -189 -173c-115 0 -190 71 -190 179v166c0 108 75 179 190 179c113 0 189 -73 189 -183v-125zM213 366c-14 0 -24 -10 -24 -27v-41h49v41c0 17 -10 27 -25 27z" />
    <glyph glyph-name="edotaccent" unicode="&#x117;" horiz-adv-x="426" 
d="M214 545c-54 0 -89 36 -89 88c0 53 35 88 89 88c52 0 88 -35 88 -88c0 -52 -36 -88 -88 -88zM403 204h-214v-43c0 -16 10 -27 24 -27c15 0 25 11 25 27v8h165v-8c0 -104 -76 -173 -189 -173c-115 0 -190 71 -190 179v166c0 108 75 179 190 179c113 0 189 -73 189 -183
v-125zM213 366c-14 0 -24 -10 -24 -27v-41h49v41c0 17 -10 27 -25 27z" />
    <glyph glyph-name="uni1EB9" unicode="&#x1eb9;" horiz-adv-x="426" 
d="M403 204h-214v-43c0 -16 10 -27 24 -27c15 0 25 11 25 27v8h165v-8c0 -104 -76 -173 -189 -173c-115 0 -190 71 -190 179v166c0 108 75 179 190 179c113 0 189 -73 189 -183v-125zM213 366c-14 0 -24 -10 -24 -27v-41h49v41c0 17 -10 27 -25 27zM214 -45
c52 0 88 -36 88 -88c0 -53 -36 -88 -88 -88c-54 0 -89 35 -89 88c0 52 35 88 89 88z" />
    <glyph glyph-name="egrave" unicode="&#xe8;" horiz-adv-x="426" 
d="M296 549h-129l-128 138v21h190zM403 204h-214v-43c0 -16 10 -27 24 -27c15 0 25 11 25 27v8h165v-8c0 -104 -76 -173 -189 -173c-115 0 -190 71 -190 179v166c0 108 75 179 190 179c113 0 189 -73 189 -183v-125zM213 366c-14 0 -24 -10 -24 -27v-41h49v41
c0 17 -10 27 -25 27z" />
    <glyph glyph-name="uni0207" unicode="&#x207;" horiz-adv-x="426" 
d="M186 563v-14h-125v14c0 93 60 156 153 156c91 0 152 -63 152 -156v-14h-126v14c0 14 -10 24 -26 24c-17 0 -28 -10 -28 -24zM403 204h-214v-43c0 -16 10 -27 24 -27c15 0 25 11 25 27v8h165v-8c0 -104 -76 -173 -189 -173c-115 0 -190 71 -190 179v166
c0 108 75 179 190 179c113 0 189 -73 189 -183v-125zM213 366c-14 0 -24 -10 -24 -27v-41h49v41c0 17 -10 27 -25 27z" />
    <glyph glyph-name="emacron" unicode="&#x113;" horiz-adv-x="426" 
d="M347 689v-127h-264v127h264zM403 204h-214v-43c0 -16 10 -27 24 -27c15 0 25 11 25 27v8h165v-8c0 -104 -76 -173 -189 -173c-115 0 -190 71 -190 179v166c0 108 75 179 190 179c113 0 189 -73 189 -183v-125zM213 366c-14 0 -24 -10 -24 -27v-41h49v41
c0 17 -10 27 -25 27z" />
    <glyph glyph-name="eogonek" unicode="&#x119;" horiz-adv-x="426" 
d="M403 204h-214v-43c0 -16 10 -27 24 -27c15 0 25 11 25 27v8h165v-8c0 -78 -42 -136 -111 -160c-22 -15 -36 -38 -36 -62s15 -40 38 -40c10 0 23 4 29 11v-109c-18 -10 -50 -16 -80 -16c-79 0 -130 46 -130 113c0 40 15 76 39 98c-79 21 -128 84 -128 171v166
c0 108 75 179 190 179c113 0 189 -73 189 -183v-125zM213 366c-14 0 -24 -10 -24 -27v-41h49v41c0 17 -10 27 -25 27z" />
    <glyph glyph-name="uni1EBD" unicode="&#x1ebd;" horiz-adv-x="426" 
d="M180 578c-14 0 -24 -11 -24 -28h-118v32c0 84 46 141 114 141c49 0 69 -30 93 -30c14 0 25 11 25 28h119v-31c0 -85 -47 -143 -113 -143c-48 0 -72 31 -96 31zM403 204h-214v-43c0 -16 10 -27 24 -27c15 0 25 11 25 27v8h165v-8c0 -104 -76 -173 -189 -173
c-115 0 -190 71 -190 179v166c0 108 75 179 190 179c113 0 189 -73 189 -183v-125zM213 366c-14 0 -24 -10 -24 -27v-41h49v41c0 17 -10 27 -25 27z" />
    <glyph glyph-name="f" unicode="f" horiz-adv-x="334" 
d="M268 564c-14 0 -22 -7 -22 -21v-43h70v-147h-70v-353h-165v353h-59v147h59v71c0 78 55 129 139 129h96v-136h-48z" />
    <glyph glyph-name="g" unicode="g" horiz-adv-x="439" 
d="M241 500h165v-515c0 -105 -73 -177 -186 -177c-109 0 -186 64 -186 164v12h160v-6c0 -12 9 -19 23 -19s24 10 24 25v87h-8c-15 -33 -52 -54 -92 -54c-67 0 -114 51 -114 131v233c0 78 47 131 114 131c43 0 78 -25 92 -59h8v47zM216 170c15 0 25 12 25 27v134
c0 15 -10 27 -25 27s-24 -10 -24 -28v-132c0 -17 9 -28 24 -28z" />
    <glyph glyph-name="uni01F5" unicode="&#x1f5;" horiz-adv-x="439" 
d="M399 687l-128 -138h-129l67 159h190v-21zM241 500h165v-515c0 -105 -73 -177 -186 -177c-109 0 -186 64 -186 164v12h160v-6c0 -12 9 -19 23 -19s24 10 24 25v87h-8c-15 -33 -52 -54 -92 -54c-67 0 -114 51 -114 131v233c0 78 47 131 114 131c43 0 78 -25 92 -59h8v47z
M216 170c15 0 25 12 25 27v134c0 15 -10 27 -25 27s-24 -10 -24 -28v-132c0 -17 9 -28 24 -28z" />
    <glyph glyph-name="gbreve" unicode="&#x11f;" horiz-adv-x="439" 
d="M225 541c-93 0 -153 61 -153 155v15h125v-14c0 -16 11 -26 28 -26c16 0 26 10 26 26v14h126v-15c0 -94 -61 -155 -152 -155zM241 500h165v-515c0 -105 -73 -177 -186 -177c-109 0 -186 64 -186 164v12h160v-6c0 -12 9 -19 23 -19s24 10 24 25v87h-8
c-15 -33 -52 -54 -92 -54c-67 0 -114 51 -114 131v233c0 78 47 131 114 131c43 0 78 -25 92 -59h8v47zM216 170c15 0 25 12 25 27v134c0 15 -10 27 -25 27s-24 -10 -24 -28v-132c0 -17 9 -28 24 -28z" />
    <glyph glyph-name="gcaron" unicode="&#x1e7;" horiz-adv-x="439" 
d="M307 549h-166l-91 159h139l31 -63h8l31 63h139zM241 500h165v-515c0 -105 -73 -177 -186 -177c-109 0 -186 64 -186 164v12h160v-6c0 -12 9 -19 23 -19s24 10 24 25v87h-8c-15 -33 -52 -54 -92 -54c-67 0 -114 51 -114 131v233c0 78 47 131 114 131c43 0 78 -25 92 -59h8
v47zM216 170c15 0 25 12 25 27v134c0 15 -10 27 -25 27s-24 -10 -24 -28v-132c0 -17 9 -28 24 -28z" />
    <glyph glyph-name="gcircumflex" unicode="&#x11d;" horiz-adv-x="439" 
d="M220 612l-31 -63h-139l91 159h166l91 -159h-139l-31 63h-8zM241 500h165v-515c0 -105 -73 -177 -186 -177c-109 0 -186 64 -186 164v12h160v-6c0 -12 9 -19 23 -19s24 10 24 25v87h-8c-15 -33 -52 -54 -92 -54c-67 0 -114 51 -114 131v233c0 78 47 131 114 131
c43 0 78 -25 92 -59h8v47zM216 170c15 0 25 12 25 27v134c0 15 -10 27 -25 27s-24 -10 -24 -28v-132c0 -17 9 -28 24 -28z" />
    <glyph glyph-name="uni0123" unicode="&#x123;" horiz-adv-x="439" 
d="M337 737l-35 -188h-175v20l92 168h118zM241 500h165v-515c0 -105 -73 -177 -186 -177c-109 0 -186 64 -186 164v12h160v-6c0 -12 9 -19 23 -19s24 10 24 25v87h-8c-15 -33 -52 -54 -92 -54c-67 0 -114 51 -114 131v233c0 78 47 131 114 131c43 0 78 -25 92 -59h8v47z
M216 170c15 0 25 12 25 27v134c0 15 -10 27 -25 27s-24 -10 -24 -28v-132c0 -17 9 -28 24 -28z" />
    <glyph glyph-name="gdotaccent" unicode="&#x121;" horiz-adv-x="439" 
d="M225 545c-54 0 -89 36 -89 88c0 53 35 88 89 88c52 0 88 -35 88 -88c0 -52 -36 -88 -88 -88zM241 500h165v-515c0 -105 -73 -177 -186 -177c-109 0 -186 64 -186 164v12h160v-6c0 -12 9 -19 23 -19s24 10 24 25v87h-8c-15 -33 -52 -54 -92 -54c-67 0 -114 51 -114 131
v233c0 78 47 131 114 131c43 0 78 -25 92 -59h8v47zM216 170c15 0 25 12 25 27v134c0 15 -10 27 -25 27s-24 -10 -24 -28v-132c0 -17 9 -28 24 -28z" />
    <glyph glyph-name="h" unicode="h" horiz-adv-x="441" 
d="M303 512c64 0 108 -45 108 -112v-400h-165v336c0 14 -9 22 -22 22c-14 0 -24 -9 -24 -21v-337h-165v700h165v-247h9c16 36 52 59 94 59z" />
    <glyph glyph-name="hbar" unicode="&#x127;" horiz-adv-x="441" 
d="M303 512c64 0 108 -45 108 -112v-400h-165v336c0 14 -9 22 -22 22c-14 0 -24 -9 -24 -21v-337h-165v541h-39v86h39v73h165v-73h62v-86h-62v-88h9c16 36 52 59 94 59z" />
    <glyph glyph-name="hcircumflex" unicode="&#x125;" horiz-adv-x="441" 
d="M114 792l-31 -63h-139l91 159h166l91 -159h-139l-31 63h-8zM303 512c64 0 108 -45 108 -112v-400h-165v336c0 14 -9 22 -22 22c-14 0 -24 -9 -24 -21v-337h-165v700h165v-247h9c16 36 52 59 94 59z" />
    <glyph glyph-name="uni1E25" unicode="&#x1e25;" horiz-adv-x="441" 
d="M303 512c64 0 108 -45 108 -112v-400h-165v336c0 14 -9 22 -22 22c-14 0 -24 -9 -24 -21v-337h-165v700h165v-247h9c16 36 52 59 94 59zM223 -45c52 0 88 -36 88 -88c0 -53 -36 -88 -88 -88c-54 0 -89 35 -89 88c0 52 35 88 89 88z" />
    <glyph glyph-name="i" unicode="i" horiz-adv-x="236" 
d="M118 549c-56 0 -94 37 -94 94c0 55 38 93 94 93s93 -38 93 -93c0 -57 -37 -94 -93 -94zM35 0v500h165v-500h-165z" />
    <glyph glyph-name="dotlessi" unicode="&#x131;" horiz-adv-x="236" 
d="M35 0v500h165v-500h-165z" />
    <glyph glyph-name="iacute" unicode="&#xed;" horiz-adv-x="236" 
d="M35 549l67 159h190v-21l-128 -138h-129zM35 0v500h165v-500h-165z" />
    <glyph glyph-name="ibreve" unicode="&#x12d;" horiz-adv-x="236" 
d="M119 541c-93 0 -153 61 -153 155v15h125v-14c0 -16 11 -26 28 -26c16 0 26 10 26 26v14h126v-15c0 -94 -61 -155 -152 -155zM35 0v500h165v-500h-165z" />
    <glyph glyph-name="icircumflex" unicode="&#xee;" horiz-adv-x="236" 
d="M-56 549l91 159h166l91 -159h-139l-31 63h-8l-31 -63h-139zM35 0v500h165v-500h-165z" />
    <glyph glyph-name="uni0209" unicode="&#x209;" horiz-adv-x="236" 
d="M-27 549l-77 138v21h160l46 -159h-129zM161 549l-76 138v21h161l44 -159h-129zM35 0v500h165v-500h-165z" />
    <glyph glyph-name="idieresis" unicode="&#xef;" horiz-adv-x="236" 
d="M23 545c-51 0 -85 35 -85 87c0 50 34 83 85 83s85 -33 85 -83c0 -52 -35 -87 -85 -87zM214 545c-51 0 -86 35 -86 87c0 50 34 83 86 83c50 0 84 -33 84 -83c0 -52 -35 -87 -84 -87zM35 0v500h165v-500h-165z" />
    <glyph glyph-name="i.loclTRK" horiz-adv-x="236" 
d="M119 545c-54 0 -89 36 -89 88c0 53 35 88 89 88c52 0 88 -35 88 -88c0 -52 -36 -88 -88 -88zM35 0v500h165v-500h-165z" />
    <glyph glyph-name="uni1ECB" unicode="&#x1ecb;" horiz-adv-x="236" 
d="M118 549c-56 0 -94 37 -94 94c0 55 38 93 94 93s93 -38 93 -93c0 -57 -37 -94 -93 -94zM35 0v500h165v-500h-165zM119 -221c-54 0 -89 35 -89 88c0 52 35 88 89 88c52 0 88 -36 88 -88c0 -53 -36 -88 -88 -88z" />
    <glyph glyph-name="igrave" unicode="&#xec;" horiz-adv-x="236" 
d="M71 549l-128 138v21h190l67 -159h-129zM35 0v500h165v-500h-165z" />
    <glyph glyph-name="uni020B" unicode="&#x20b;" horiz-adv-x="236" 
d="M-34 549v14c0 93 60 156 153 156c91 0 152 -63 152 -156v-14h-126v14c0 14 -10 24 -26 24c-17 0 -28 -10 -28 -24v-14h-125zM35 0v500h165v-500h-165z" />
    <glyph glyph-name="ij" unicode="&#x133;" horiz-adv-x="474" 
d="M118 549c-56 0 -94 37 -94 94c0 55 38 93 94 93s93 -38 93 -93c0 -57 -37 -94 -93 -94zM355 549c-56 0 -94 37 -94 94c0 55 38 93 94 93s93 -38 93 -93c0 -57 -37 -94 -93 -94zM35 0v500h165v-500h-165zM204 -180v137h48c14 0 21 7 21 21v522h165v-551
c0 -78 -54 -129 -138 -129h-96z" />
    <glyph glyph-name="imacron" unicode="&#x12b;" horiz-adv-x="236" 
d="M-13 562v127h264v-127h-264zM35 0v500h165v-500h-165z" />
    <glyph glyph-name="iogonek" unicode="&#x12f;" horiz-adv-x="236" 
d="M119 545c-54 0 -89 36 -89 88c0 53 35 88 89 88c52 0 88 -35 88 -88c0 -52 -36 -88 -88 -88zM180 -112c10 0 23 4 29 11v-109c-18 -10 -50 -16 -80 -16c-79 0 -130 46 -130 113c0 50 24 94 60 112v1h-24v500h165v-500c-35 -11 -58 -41 -58 -72c0 -24 15 -40 38 -40z" />
    <glyph glyph-name="itilde" unicode="&#x129;" horiz-adv-x="236" 
d="M181 547c-48 0 -72 31 -96 31c-14 0 -24 -11 -24 -28h-118v32c0 84 46 141 114 141c49 0 69 -30 93 -30c14 0 25 11 25 28h119v-31c0 -85 -47 -143 -113 -143zM35 0v500h165v-500h-165z" />
    <glyph glyph-name="j" unicode="j" horiz-adv-x="238" 
d="M119 549c-56 0 -94 37 -94 94c0 55 38 93 94 93s93 -38 93 -93c0 -57 -37 -94 -93 -94zM-32 -180v137h48c14 0 21 7 21 21v522h165v-551c0 -78 -54 -129 -138 -129h-96z" />
    <glyph glyph-name="uni0237" unicode="&#x237;" horiz-adv-x="236" 
d="M-32 -180v137h48c14 0 21 7 21 21v522h165v-551c0 -78 -54 -129 -138 -129h-96z" />
    <glyph glyph-name="jcircumflex" unicode="&#x135;" horiz-adv-x="236" 
d="M-56 549l91 159h166l91 -159h-139l-31 63h-8l-31 -63h-139zM-32 -180v137h48c14 0 21 7 21 21v522h165v-551c0 -78 -54 -129 -138 -129h-96z" />
    <glyph glyph-name="k" unicode="k" horiz-adv-x="443" 
d="M256 0l-43 139l-13 -11v-128h-165v700h165v-375h11l46 175h189l-116 -242l117 -258h-191z" />
    <glyph glyph-name="uni0137" unicode="&#x137;" horiz-adv-x="443" 
d="M200 128v-128h-165v700h165v-375h11l46 175h189l-116 -242l117 -258h-191l-43 139zM123 -238l35 189h175v-21l-92 -168h-118z" />
    <glyph glyph-name="l" unicode="l" horiz-adv-x="266" 
d="M169 0c-83 0 -139 51 -139 128v572h165v-529c0 -12 7 -20 22 -20h28v-151h-76z" />
    <glyph glyph-name="lacute" unicode="&#x13a;" horiz-adv-x="266" 
d="M30 729l67 159h190v-21l-128 -138h-129zM169 0c-83 0 -139 51 -139 128v572h165v-529c0 -12 7 -20 22 -20h28v-151h-76z" />
    <glyph glyph-name="lcaron" unicode="&#x13e;" horiz-adv-x="351" 
d="M169 0c-83 0 -139 51 -139 128v572h165v-529c0 -12 7 -20 22 -20h28v-151h-76zM234 510v190h148v-21l-31 -169h-117z" />
    <glyph glyph-name="uni013C" unicode="&#x13c;" horiz-adv-x="266" 
d="M169 0c-83 0 -139 51 -139 128v572h165v-529c0 -12 7 -20 22 -20h28v-151h-76zM24 -238l35 189h175v-21l-92 -168h-118z" />
    <glyph glyph-name="ldot" unicode="&#x140;" horiz-adv-x="381" 
d="M169 0c-83 0 -139 51 -139 128v572h165v-529c0 -12 7 -20 22 -20h28v-151h-76zM301 284c-50 0 -83 32 -83 80c0 49 33 81 83 81c48 0 80 -32 80 -81c0 -48 -32 -80 -80 -80z" />
    <glyph glyph-name="uni01C9" unicode="&#x1c9;" horiz-adv-x="504" 
d="M385 549c-56 0 -94 37 -94 94c0 55 38 93 94 93s93 -38 93 -93c0 -57 -37 -94 -93 -94zM169 0c-83 0 -139 51 -139 128v572h165v-529c0 -12 7 -20 22 -20h28v-151h-76zM234 -180v137h48c14 0 21 7 21 21v522h165v-551c0 -78 -54 -129 -138 -129h-96z" />
    <glyph glyph-name="lslash" unicode="&#x142;" horiz-adv-x="299" 
d="M278 351l-51 -23v-157c0 -12 6 -20 21 -20h28v-151h-76c-83 0 -138 51 -138 128v125l-39 -18v155l39 18v292h165v-217l51 23v-155z" />
    <glyph glyph-name="m" unicode="m" horiz-adv-x="644" 
d="M508 512c61 0 106 -45 106 -115v-397h-165v338c0 13 -8 20 -20 20c-13 0 -22 -8 -22 -19v-339h-164v338c0 12 -8 20 -20 20c-14 0 -23 -8 -23 -19v-339h-165v500h165v-46h9c14 32 46 58 91 58c47 0 83 -25 98 -66h8c17 38 55 66 102 66z" />
    <glyph glyph-name="n" unicode="n" horiz-adv-x="441" 
d="M303 512c64 0 108 -45 108 -112v-400h-165v336c0 14 -9 22 -22 22c-14 0 -24 -9 -24 -21v-337h-165v500h165v-47h9c16 36 52 59 94 59z" />
    <glyph glyph-name="nacute" unicode="&#x144;" horiz-adv-x="441" 
d="M397 687l-128 -138h-129l67 159h190v-21zM303 512c64 0 108 -45 108 -112v-400h-165v336c0 14 -9 22 -22 22c-14 0 -24 -9 -24 -21v-337h-165v500h165v-47h9c16 36 52 59 94 59z" />
    <glyph glyph-name="ncaron" unicode="&#x148;" horiz-adv-x="441" 
d="M305 549h-166l-91 159h139l31 -63h8l31 63h139zM303 512c64 0 108 -45 108 -112v-400h-165v336c0 14 -9 22 -22 22c-14 0 -24 -9 -24 -21v-337h-165v500h165v-47h9c16 36 52 59 94 59z" />
    <glyph glyph-name="uni0146" unicode="&#x146;" horiz-adv-x="441" 
d="M303 512c64 0 108 -45 108 -112v-400h-165v336c0 14 -9 22 -22 22c-14 0 -24 -9 -24 -21v-337h-165v500h165v-47h9c16 36 52 59 94 59zM109 -238l35 189h175v-21l-92 -168h-118z" />
    <glyph glyph-name="uni1E45" unicode="&#x1e45;" horiz-adv-x="441" 
d="M223 545c-54 0 -89 36 -89 88c0 53 35 88 89 88c52 0 88 -35 88 -88c0 -52 -36 -88 -88 -88zM303 512c64 0 108 -45 108 -112v-400h-165v336c0 14 -9 22 -22 22c-14 0 -24 -9 -24 -21v-337h-165v500h165v-47h9c16 36 52 59 94 59z" />
    <glyph glyph-name="eng" unicode="&#x14b;" horiz-adv-x="441" 
d="M303 512c64 0 108 -45 108 -112v-451c0 -86 -59 -144 -146 -144h-76v125h22c20 0 35 18 35 46v360c0 14 -9 22 -22 22c-14 0 -24 -9 -24 -21v-337h-165v500h165v-47h9c16 36 52 59 94 59z" />
    <glyph glyph-name="uni01CC" unicode="&#x1cc;" horiz-adv-x="679" 
d="M560 549c-56 0 -94 37 -94 94c0 55 38 93 94 93s93 -38 93 -93c0 -57 -37 -94 -93 -94zM411 0h-165v336c0 14 -9 22 -22 22c-14 0 -24 -9 -24 -21v-337h-165v500h165v-47h9c16 36 52 59 94 59c64 0 108 -45 108 -112v-400zM478 -22v522h165v-551
c0 -78 -54 -129 -138 -129h-96v137h48c14 0 21 7 21 21z" />
    <glyph glyph-name="ntilde" unicode="&#xf1;" horiz-adv-x="441" 
d="M189 578c-14 0 -24 -11 -24 -28h-118v32c0 84 46 141 114 141c49 0 69 -30 93 -30c14 0 25 11 25 28h119v-31c0 -85 -47 -143 -113 -143c-48 0 -72 31 -96 31zM303 512c64 0 108 -45 108 -112v-400h-165v336c0 14 -9 22 -22 22c-14 0 -24 -9 -24 -21v-337h-165v500h165
v-47h9c16 36 52 59 94 59z" />
    <glyph glyph-name="o" unicode="o" horiz-adv-x="426" 
d="M213 -12c-114 0 -189 71 -189 179v166c0 108 75 179 189 179s190 -71 190 -179v-166c0 -108 -76 -179 -190 -179zM213 139c15 0 25 11 25 28v166c0 17 -10 28 -25 28s-24 -11 -24 -28v-166c0 -17 9 -28 24 -28z" />
    <glyph glyph-name="oacute" unicode="&#xf3;" horiz-adv-x="426" 
d="M130 549l67 159h190v-21l-128 -138h-129zM213 -12c-114 0 -189 71 -189 179v166c0 108 75 179 189 179s190 -71 190 -179v-166c0 -108 -76 -179 -190 -179zM213 139c15 0 25 11 25 28v166c0 17 -10 28 -25 28s-24 -11 -24 -28v-166c0 -17 9 -28 24 -28z" />
    <glyph glyph-name="obreve" unicode="&#x14f;" horiz-adv-x="426" 
d="M213 541c-93 0 -153 61 -153 155v15h125v-14c0 -16 11 -26 28 -26c16 0 26 10 26 26v14h126v-15c0 -94 -61 -155 -152 -155zM213 -12c-114 0 -189 71 -189 179v166c0 108 75 179 189 179s190 -71 190 -179v-166c0 -108 -76 -179 -190 -179zM213 139c15 0 25 11 25 28v166
c0 17 -10 28 -25 28s-24 -11 -24 -28v-166c0 -17 9 -28 24 -28z" />
    <glyph glyph-name="ocircumflex" unicode="&#xf4;" horiz-adv-x="426" 
d="M38 549l91 159h166l91 -159h-139l-31 63h-8l-31 -63h-139zM213 -12c-114 0 -189 71 -189 179v166c0 108 75 179 189 179s190 -71 190 -179v-166c0 -108 -76 -179 -190 -179zM213 139c15 0 25 11 25 28v166c0 17 -10 28 -25 28s-24 -11 -24 -28v-166c0 -17 9 -28 24 -28z
" />
    <glyph glyph-name="uni020D" unicode="&#x20d;" horiz-adv-x="426" 
d="M68 549l-77 138v21h160l46 -159h-129zM256 549l-76 138v21h161l44 -159h-129zM213 -12c-114 0 -189 71 -189 179v166c0 108 75 179 189 179s190 -71 190 -179v-166c0 -108 -76 -179 -190 -179zM213 139c15 0 25 11 25 28v166c0 17 -10 28 -25 28s-24 -11 -24 -28v-166
c0 -17 9 -28 24 -28z" />
    <glyph glyph-name="odieresis" unicode="&#xf6;" horiz-adv-x="426" 
d="M118 545c-51 0 -85 35 -85 87c0 50 34 83 85 83s85 -33 85 -83c0 -52 -35 -87 -85 -87zM309 545c-51 0 -86 35 -86 87c0 50 34 83 86 83c50 0 84 -33 84 -83c0 -52 -35 -87 -84 -87zM213 -12c-114 0 -189 71 -189 179v166c0 108 75 179 189 179s190 -71 190 -179v-166
c0 -108 -76 -179 -190 -179zM213 139c15 0 25 11 25 28v166c0 17 -10 28 -25 28s-24 -11 -24 -28v-166c0 -17 9 -28 24 -28z" />
    <glyph glyph-name="uni1ECD" unicode="&#x1ecd;" horiz-adv-x="426" 
d="M213 -12c-114 0 -189 71 -189 179v166c0 108 75 179 189 179s190 -71 190 -179v-166c0 -108 -76 -179 -190 -179zM213 139c15 0 25 11 25 28v166c0 17 -10 28 -25 28s-24 -11 -24 -28v-166c0 -17 9 -28 24 -28zM213 -221c-54 0 -89 35 -89 88c0 52 35 88 89 88
c52 0 88 -36 88 -88c0 -53 -36 -88 -88 -88z" />
    <glyph glyph-name="ograve" unicode="&#xf2;" horiz-adv-x="426" 
d="M166 549l-128 138v21h190l67 -159h-129zM213 -12c-114 0 -189 71 -189 179v166c0 108 75 179 189 179s190 -71 190 -179v-166c0 -108 -76 -179 -190 -179zM213 139c15 0 25 11 25 28v166c0 17 -10 28 -25 28s-24 -11 -24 -28v-166c0 -17 9 -28 24 -28z" />
    <glyph glyph-name="ohungarumlaut" unicode="&#x151;" horiz-adv-x="426" 
d="M41 549l45 159h160v-21l-76 -138h-129zM229 549l46 159h160v-21l-76 -138h-130zM213 -12c-114 0 -189 71 -189 179v166c0 108 75 179 189 179s190 -71 190 -179v-166c0 -108 -76 -179 -190 -179zM213 139c15 0 25 11 25 28v166c0 17 -10 28 -25 28s-24 -11 -24 -28v-166
c0 -17 9 -28 24 -28z" />
    <glyph glyph-name="uni020F" unicode="&#x20f;" horiz-adv-x="426" 
d="M60 549v14c0 93 60 156 153 156c91 0 152 -63 152 -156v-14h-126v14c0 14 -10 24 -26 24c-17 0 -28 -10 -28 -24v-14h-125zM213 -12c-114 0 -189 71 -189 179v166c0 108 75 179 189 179s190 -71 190 -179v-166c0 -108 -76 -179 -190 -179zM213 139c15 0 25 11 25 28v166
c0 17 -10 28 -25 28s-24 -11 -24 -28v-166c0 -17 9 -28 24 -28z" />
    <glyph glyph-name="omacron" unicode="&#x14d;" horiz-adv-x="426" 
d="M82 562v127h264v-127h-264zM213 -12c-114 0 -189 71 -189 179v166c0 108 75 179 189 179s190 -71 190 -179v-166c0 -108 -76 -179 -190 -179zM213 139c15 0 25 11 25 28v166c0 17 -10 28 -25 28s-24 -11 -24 -28v-166c0 -17 9 -28 24 -28z" />
    <glyph glyph-name="uni01EB" unicode="&#x1eb;" horiz-adv-x="426" 
d="M213 512c114 0 190 -71 190 -179v-166c0 -84 -46 -145 -119 -169c-21 -14 -33 -36 -33 -59c0 -24 15 -40 38 -40c10 0 23 4 29 11v-109c-18 -10 -50 -16 -80 -16c-79 0 -130 46 -130 113c0 40 16 77 40 99c-77 22 -124 84 -124 170v166c0 108 75 179 189 179zM189 333
v-166c0 -17 9 -28 24 -28s25 11 25 28v166c0 17 -10 28 -25 28s-24 -11 -24 -28z" />
    <glyph glyph-name="oslash" unicode="&#xf8;" horiz-adv-x="426" 
d="M352 462c33 -31 51 -76 51 -129v-166c0 -108 -76 -179 -190 -179c-29 0 -55 5 -78 13l-17 -31h-81l37 69c-32 31 -50 75 -50 128v166c0 108 75 179 189 179c29 0 56 -5 80 -14l18 32h80zM213 361c-15 0 -24 -11 -24 -28v-82l44 101c-5 6 -12 9 -20 9zM213 139
c15 0 25 11 25 28v82l-44 -101c5 -6 11 -9 19 -9z" />
    <glyph glyph-name="oslashacute" unicode="&#x1ff;" horiz-adv-x="426" 
d="M392 687l-128 -138h-129l67 159h190v-21zM352 462c33 -31 51 -76 51 -129v-166c0 -108 -76 -179 -190 -179c-29 0 -55 5 -78 13l-17 -31h-81l37 69c-32 31 -50 75 -50 128v166c0 108 75 179 189 179c29 0 56 -5 80 -14l18 32h80zM213 361c-15 0 -24 -11 -24 -28v-82
l44 101c-5 6 -12 9 -20 9zM213 139c15 0 25 11 25 28v82l-44 -101c5 -6 11 -9 19 -9z" />
    <glyph glyph-name="otilde" unicode="&#xf5;" horiz-adv-x="426" 
d="M275 547c-48 0 -72 31 -96 31c-14 0 -24 -11 -24 -28h-118v32c0 84 46 141 114 141c49 0 69 -30 93 -30c14 0 25 11 25 28h119v-31c0 -85 -47 -143 -113 -143zM213 -12c-114 0 -189 71 -189 179v166c0 108 75 179 189 179s190 -71 190 -179v-166
c0 -108 -76 -179 -190 -179zM213 139c15 0 25 11 25 28v166c0 17 -10 28 -25 28s-24 -11 -24 -28v-166c0 -17 9 -28 24 -28z" />
    <glyph glyph-name="oe" unicode="&#x153;" horiz-adv-x="641" 
d="M618 204h-215v-43c0 -16 11 -27 27 -27c14 0 23 12 23 27v8h165v-12c0 -101 -64 -169 -162 -169c-53 0 -103 22 -130 56h-9c-26 -33 -75 -56 -126 -56c-100 0 -167 67 -167 169v186c0 102 67 169 167 169c51 0 100 -22 125 -56h9c24 34 74 56 124 56
c102 0 169 -72 169 -183v-125zM428 366c-15 0 -25 -11 -25 -27v-41h50v41c0 16 -10 27 -25 27zM238 167v166c0 18 -10 28 -24 28c-15 0 -25 -10 -25 -28v-166c0 -18 10 -28 25 -28c14 0 24 10 24 28z" />
    <glyph glyph-name="p" unicode="p" horiz-adv-x="441" 
d="M300 512c68 0 115 -54 115 -131v-262c0 -77 -47 -131 -115 -131c-42 0 -76 23 -91 59h-9v-227h-165v680h165v-47h9c15 35 48 59 91 59zM250 170v160c0 18 -10 28 -25 28c-14 0 -25 -11 -25 -27v-162c0 -16 11 -27 25 -27c15 0 25 10 25 28z" />
    <glyph glyph-name="thorn" unicode="&#xfe;" horiz-adv-x="441" 
d="M300 512c68 0 115 -54 115 -131v-262c0 -77 -47 -131 -115 -131c-42 0 -76 23 -91 59h-9v-227h-165v880h165v-247h9c15 35 48 59 91 59zM250 170v160c0 18 -10 28 -25 28c-14 0 -25 -11 -25 -27v-162c0 -16 11 -27 25 -27c15 0 25 10 25 28z" />
    <glyph glyph-name="q" unicode="q" horiz-adv-x="441" 
d="M241 500h165v-680h-165v227h-8c-14 -34 -49 -59 -92 -59c-67 0 -114 53 -114 131v262c0 78 47 131 114 131c43 0 78 -25 92 -59h8v47zM216 142c15 0 25 12 25 27v162c0 15 -10 27 -25 27s-24 -10 -24 -28v-160c0 -18 9 -28 24 -28z" />
    <glyph glyph-name="r" unicode="r" horiz-adv-x="314" 
d="M284 512h15v-188h-22c-49 0 -77 -29 -77 -73v-251h-165v500h165v-61h9c10 46 37 73 75 73z" />
    <glyph glyph-name="racute" unicode="&#x155;" horiz-adv-x="314" 
d="M151 708h190v-21l-128 -138h-129zM209 439c10 46 37 73 75 73h15v-188h-22c-49 0 -77 -29 -77 -73v-251h-165v500h165v-61h9z" />
    <glyph glyph-name="rcaron" unicode="&#x159;" horiz-adv-x="314" 
d="M249 549h-166l-91 159h139l31 -63h8l31 63h139zM209 439c10 46 37 73 75 73h15v-188h-22c-49 0 -77 -29 -77 -73v-251h-165v500h165v-61h9z" />
    <glyph glyph-name="uni0157" unicode="&#x157;" horiz-adv-x="314" 
d="M284 512h15v-188h-22c-49 0 -77 -29 -77 -73v-251h-165v500h165v-61h9c10 46 37 73 75 73zM4 -238l35 189h175v-21l-92 -168h-118z" />
    <glyph glyph-name="uni0211" unicode="&#x211;" horiz-adv-x="314" 
d="M105 708l46 -159h-129l-77 138v21h160zM339 549h-129l-76 138v21h161zM209 439c10 46 37 73 75 73h15v-188h-22c-49 0 -77 -29 -77 -73v-251h-165v500h165v-61h9z" />
    <glyph glyph-name="uni1E5B" unicode="&#x1e5b;" horiz-adv-x="314" 
d="M284 512h15v-188h-22c-49 0 -77 -29 -77 -73v-251h-165v500h165v-61h9c10 46 37 73 75 73zM119 -45c52 0 88 -36 88 -88c0 -53 -36 -88 -88 -88c-54 0 -89 35 -89 88c0 52 35 88 89 88z" />
    <glyph glyph-name="uni0213" unicode="&#x213;" horiz-adv-x="314" 
d="M167 719c91 0 152 -63 152 -156v-14h-126v14c0 14 -10 24 -26 24c-17 0 -28 -10 -28 -24v-14h-125v14c0 93 60 156 153 156zM209 439c10 46 37 73 75 73h15v-188h-22c-49 0 -77 -29 -77 -73v-251h-165v500h165v-61h9z" />
    <glyph glyph-name="s" unicode="s" horiz-adv-x="393" 
d="M198 -12c-110 0 -181 65 -181 162v16h156v-15c0 -14 10 -25 23 -25s23 8 23 22c0 62 -200 36 -200 208c0 102 71 156 173 156c109 0 180 -61 180 -153v-17h-156v14c0 11 -9 18 -20 18s-20 -8 -20 -19c0 -60 201 -24 201 -201c0 -102 -69 -166 -179 -166z" />
    <glyph glyph-name="sacute" unicode="&#x15b;" horiz-adv-x="393" 
d="M114 549l67 159h190v-21l-128 -138h-129zM198 -12c-110 0 -181 65 -181 162v16h156v-15c0 -14 10 -25 23 -25s23 8 23 22c0 62 -200 36 -200 208c0 102 71 156 173 156c109 0 180 -61 180 -153v-17h-156v14c0 11 -9 18 -20 18s-20 -8 -20 -19c0 -60 201 -24 201 -201
c0 -102 -69 -166 -179 -166z" />
    <glyph glyph-name="scaron" unicode="&#x161;" horiz-adv-x="393" 
d="M113 549l-91 159h139l31 -63h8l31 63h139l-91 -159h-166zM198 -12c-110 0 -181 65 -181 162v16h156v-15c0 -14 10 -25 23 -25s23 8 23 22c0 62 -200 36 -200 208c0 102 71 156 173 156c109 0 180 -61 180 -153v-17h-156v14c0 11 -9 18 -20 18s-20 -8 -20 -19
c0 -60 201 -24 201 -201c0 -102 -69 -166 -179 -166z" />
    <glyph glyph-name="scedilla" unicode="&#x15f;" horiz-adv-x="393" 
d="M377 154c0 -90 -53 -150 -141 -163l-13 -28c49 0 81 -38 81 -92c0 -65 -48 -108 -123 -108c-31 0 -59 7 -76 17v86c18 -10 42 -17 61 -17c18 0 29 10 29 25c0 11 -9 20 -23 20h-50v50l25 49c-81 17 -130 76 -130 157v16h156v-15c0 -14 10 -25 23 -25s23 8 23 22
c0 62 -200 36 -200 208c0 102 71 156 173 156c109 0 180 -61 180 -153v-17h-156v14c0 11 -9 18 -20 18s-20 -8 -20 -19c0 -60 201 -24 201 -201z" />
    <glyph glyph-name="scircumflex" unicode="&#x15d;" horiz-adv-x="393" 
d="M22 549l91 159h166l91 -159h-139l-31 63h-8l-31 -63h-139zM198 -12c-110 0 -181 65 -181 162v16h156v-15c0 -14 10 -25 23 -25s23 8 23 22c0 62 -200 36 -200 208c0 102 71 156 173 156c109 0 180 -61 180 -153v-17h-156v14c0 11 -9 18 -20 18s-20 -8 -20 -19
c0 -60 201 -24 201 -201c0 -102 -69 -166 -179 -166z" />
    <glyph glyph-name="uni0219" unicode="&#x219;" horiz-adv-x="393" 
d="M198 -12c-110 0 -181 65 -181 162v16h156v-15c0 -14 10 -25 23 -25s23 8 23 22c0 62 -200 36 -200 208c0 102 71 156 173 156c109 0 180 -61 180 -153v-17h-156v14c0 11 -9 18 -20 18s-20 -8 -20 -19c0 -60 201 -24 201 -201c0 -102 -69 -166 -179 -166zM83 -238l35 189
h175v-21l-92 -168h-118z" />
    <glyph glyph-name="uni1E63" unicode="&#x1e63;" horiz-adv-x="393" 
d="M198 -12c-110 0 -181 65 -181 162v16h156v-15c0 -14 10 -25 23 -25s23 8 23 22c0 62 -200 36 -200 208c0 102 71 156 173 156c109 0 180 -61 180 -153v-17h-156v14c0 11 -9 18 -20 18s-20 -8 -20 -19c0 -60 201 -24 201 -201c0 -102 -69 -166 -179 -166zM197 -221
c-54 0 -89 35 -89 88c0 52 35 88 89 88c52 0 88 -36 88 -88c0 -53 -36 -88 -88 -88z" />
    <glyph glyph-name="germandbls" unicode="&#xdf;" horiz-adv-x="455" 
d="M31 0v510c0 104 81 172 195 172c125 0 201 -75 201 -189c0 -66 -25 -122 -63 -141v-9c48 -14 79 -77 79 -158c0 -112 -66 -185 -166 -185h-54v151h17c24 0 38 22 38 60c0 39 -14 60 -38 60h-14v145h5c21 0 32 21 32 58c0 36 -11 57 -36 57c-18 0 -31 -11 -31 -32v-499
h-165z" />
    <glyph glyph-name="t" unicode="t" horiz-adv-x="347" 
d="M317 353h-74v-181c0 -13 7 -21 21 -21h48v-151h-96c-84 0 -138 51 -138 129v224h-60v147h31c26 0 40 15 40 39v91h154v-130h74v-147z" />
    <glyph glyph-name="tbar" unicode="&#x167;" horiz-adv-x="347" 
d="M317 353h-74v-54h58v-86h-58v-41c0 -13 7 -21 21 -21h48v-151h-96c-84 0 -138 51 -138 129v84h-43v86h43v54h-60v147h31c26 0 40 15 40 39v91h154v-130h74v-147z" />
    <glyph glyph-name="tcaron" unicode="&#x165;" horiz-adv-x="347" 
d="M274 735h147v-21l-30 -169h-117v190zM243 630v-130h74v-147h-74v-181c0 -13 7 -21 21 -21h48v-151h-96c-84 0 -138 51 -138 129v224h-60v147h31c26 0 40 15 40 39v91h154z" />
    <glyph glyph-name="uni0163" unicode="&#x163;" horiz-adv-x="347" 
d="M317 353h-74v-181c0 -13 7 -21 21 -21h48v-151h-76l-17 -37c49 0 81 -38 81 -92c0 -65 -48 -108 -123 -108c-31 0 -59 7 -76 17v86c18 -10 42 -17 61 -17c18 0 29 10 29 25c0 11 -9 20 -23 20h-51v50l34 68c-46 20 -73 62 -73 117v224h-60v147h31c26 0 40 15 40 39v91
h154v-130h74v-147z" />
    <glyph glyph-name="uni021B" unicode="&#x21b;" horiz-adv-x="347" 
d="M317 353h-74v-181c0 -13 7 -21 21 -21h48v-151h-96c-84 0 -138 51 -138 129v224h-60v147h31c26 0 40 15 40 39v91h154v-130h74v-147zM79 -238l35 189h175v-21l-92 -168h-118z" />
    <glyph glyph-name="uni1E6D" unicode="&#x1e6d;" horiz-adv-x="347" 
d="M317 353h-74v-181c0 -13 7 -21 21 -21h48v-151h-96c-84 0 -138 51 -138 129v224h-60v147h31c26 0 40 15 40 39v91h154v-130h74v-147zM193 -45c52 0 88 -36 88 -88c0 -53 -36 -88 -88 -88c-54 0 -89 35 -89 88c0 52 35 88 89 88z" />
    <glyph glyph-name="u" unicode="u" horiz-adv-x="439" 
d="M239 500h165v-500h-165v46h-9c-14 -33 -48 -58 -91 -58c-63 0 -108 45 -108 112v400h165v-338c0 -12 8 -20 20 -20c13 0 23 8 23 19v339z" />
    <glyph glyph-name="uacute" unicode="&#xfa;" horiz-adv-x="439" 
d="M391 687l-128 -138h-129l67 159h190v-21zM239 500h165v-500h-165v46h-9c-14 -33 -48 -58 -91 -58c-63 0 -108 45 -108 112v400h165v-338c0 -12 8 -20 20 -20c13 0 23 8 23 19v339z" />
    <glyph glyph-name="ubreve" unicode="&#x16d;" horiz-adv-x="439" 
d="M217 541c-93 0 -153 61 -153 155v15h125v-14c0 -16 11 -26 28 -26c16 0 26 10 26 26v14h126v-15c0 -94 -61 -155 -152 -155zM239 500h165v-500h-165v46h-9c-14 -33 -48 -58 -91 -58c-63 0 -108 45 -108 112v400h165v-338c0 -12 8 -20 20 -20c13 0 23 8 23 19v339z" />
    <glyph glyph-name="ucircumflex" unicode="&#xfb;" horiz-adv-x="439" 
d="M212 612l-31 -63h-139l91 159h166l91 -159h-139l-31 63h-8zM239 500h165v-500h-165v46h-9c-14 -33 -48 -58 -91 -58c-63 0 -108 45 -108 112v400h165v-338c0 -12 8 -20 20 -20c13 0 23 8 23 19v339z" />
    <glyph glyph-name="uni0215" unicode="&#x215;" horiz-adv-x="439" 
d="M201 549h-129l-77 138v21h160zM389 549h-129l-76 138v21h161zM239 500h165v-500h-165v46h-9c-14 -33 -48 -58 -91 -58c-63 0 -108 45 -108 112v400h165v-338c0 -12 8 -20 20 -20c13 0 23 8 23 19v339z" />
    <glyph glyph-name="udieresis" unicode="&#xfc;" horiz-adv-x="439" 
d="M122 545c-51 0 -85 35 -85 87c0 50 34 83 85 83s85 -33 85 -83c0 -52 -35 -87 -85 -87zM313 545c-51 0 -86 35 -86 87c0 50 34 83 86 83c50 0 84 -33 84 -83c0 -52 -35 -87 -84 -87zM239 500h165v-500h-165v46h-9c-14 -33 -48 -58 -91 -58c-63 0 -108 45 -108 112v400
h165v-338c0 -12 8 -20 20 -20c13 0 23 8 23 19v339z" />
    <glyph glyph-name="uni1EE5" unicode="&#x1ee5;" horiz-adv-x="439" 
d="M239 500h165v-500h-165v46h-9c-14 -33 -48 -58 -91 -58c-63 0 -108 45 -108 112v400h165v-338c0 -12 8 -20 20 -20c13 0 23 8 23 19v339zM217 -45c52 0 88 -36 88 -88c0 -53 -36 -88 -88 -88c-54 0 -89 35 -89 88c0 52 35 88 89 88z" />
    <glyph glyph-name="ugrave" unicode="&#xf9;" horiz-adv-x="439" 
d="M299 549h-129l-128 138v21h190zM239 500h165v-500h-165v46h-9c-14 -33 -48 -58 -91 -58c-63 0 -108 45 -108 112v400h165v-338c0 -12 8 -20 20 -20c13 0 23 8 23 19v339z" />
    <glyph glyph-name="uhungarumlaut" unicode="&#x171;" horiz-adv-x="439" 
d="M250 687l-76 -138h-129l45 159h160v-21zM279 708h160v-21l-76 -138h-130zM239 161v339h165v-500h-165v46h-9c-14 -33 -48 -58 -91 -58c-63 0 -108 45 -108 112v400h165v-338c0 -12 8 -20 20 -20c13 0 23 8 23 19z" />
    <glyph glyph-name="uni0217" unicode="&#x217;" horiz-adv-x="439" 
d="M189 563v-14h-125v14c0 93 60 156 153 156c91 0 152 -63 152 -156v-14h-126v14c0 14 -10 24 -26 24c-17 0 -28 -10 -28 -24zM239 500h165v-500h-165v46h-9c-14 -33 -48 -58 -91 -58c-63 0 -108 45 -108 112v400h165v-338c0 -12 8 -20 20 -20c13 0 23 8 23 19v339z" />
    <glyph glyph-name="umacron" unicode="&#x16b;" horiz-adv-x="439" 
d="M350 689v-127h-264v127h264zM239 500h165v-500h-165v46h-9c-14 -33 -48 -58 -91 -58c-63 0 -108 45 -108 112v400h165v-338c0 -12 8 -20 20 -20c13 0 23 8 23 19v339z" />
    <glyph glyph-name="uogonek" unicode="&#x173;" horiz-adv-x="439" 
d="M384 -112c10 0 23 4 29 11v-109c-18 -10 -50 -16 -80 -16c-79 0 -130 46 -130 113c0 50 24 94 60 112v1h-24v46h-9c-14 -33 -48 -58 -91 -58c-63 0 -108 45 -108 112v400h165v-338c0 -12 8 -20 20 -20c13 0 23 8 23 19v339h165v-500c-35 -11 -58 -41 -58 -72
c0 -24 15 -40 38 -40z" />
    <glyph glyph-name="uring" unicode="&#x16f;" horiz-adv-x="439" 
d="M218 541c-67 0 -111 43 -111 109s44 109 111 109c66 0 109 -43 109 -109s-43 -109 -109 -109zM218 682c-17 0 -28 -13 -28 -32c0 -20 11 -32 28 -32c15 0 26 12 26 32c0 19 -11 32 -26 32zM239 500h165v-500h-165v46h-9c-14 -33 -48 -58 -91 -58c-63 0 -108 45 -108 112
v400h165v-338c0 -12 8 -20 20 -20c13 0 23 8 23 19v339z" />
    <glyph glyph-name="utilde" unicode="&#x169;" horiz-adv-x="439" 
d="M183 578c-14 0 -24 -11 -24 -28h-118v32c0 84 46 141 114 141c49 0 69 -30 93 -30c14 0 25 11 25 28h119v-31c0 -85 -47 -143 -113 -143c-48 0 -72 31 -96 31zM239 500h165v-500h-165v46h-9c-14 -33 -48 -58 -91 -58c-63 0 -108 45 -108 112v400h165v-338
c0 -12 8 -20 20 -20c13 0 23 8 23 19v339z" />
    <glyph glyph-name="v" unicode="v" horiz-adv-x="428" 
d="M108 0l-102 500h180l26 -315h11l26 315h174l-101 -500h-214z" />
    <glyph glyph-name="w" unicode="w" horiz-adv-x="631" 
d="M98 0l-89 500h180l16 -297h10l26 297h156l24 -297h10l17 297h174l-88 -500h-193l-20 254h-10l-21 -254h-192z" />
    <glyph glyph-name="wacute" unicode="&#x1e83;" horiz-adv-x="631" 
d="M233 549l67 159h190v-21l-128 -138h-129zM98 0l-89 500h180l16 -297h10l26 297h156l24 -297h10l17 297h174l-88 -500h-193l-20 254h-10l-21 -254h-192z" />
    <glyph glyph-name="wcircumflex" unicode="&#x175;" horiz-adv-x="631" 
d="M141 549l91 159h166l91 -159h-139l-31 63h-8l-31 -63h-139zM98 0l-89 500h180l16 -297h10l26 297h156l24 -297h10l17 297h174l-88 -500h-193l-20 254h-10l-21 -254h-192z" />
    <glyph glyph-name="wdieresis" unicode="&#x1e85;" horiz-adv-x="631" 
d="M220 545c-51 0 -85 35 -85 87c0 50 34 83 85 83s85 -33 85 -83c0 -52 -35 -87 -85 -87zM411 545c-51 0 -86 35 -86 87c0 50 34 83 86 83c50 0 84 -33 84 -83c0 -52 -35 -87 -84 -87zM98 0l-89 500h180l16 -297h10l26 297h156l24 -297h10l17 297h174l-88 -500h-193
l-20 254h-10l-21 -254h-192z" />
    <glyph glyph-name="wgrave" unicode="&#x1e81;" horiz-adv-x="631" 
d="M269 549l-128 138v21h190l67 -159h-129zM98 0l-89 500h180l16 -297h10l26 297h156l24 -297h10l17 297h174l-88 -500h-193l-20 254h-10l-21 -254h-192z" />
    <glyph glyph-name="x" unicode="x" horiz-adv-x="443" 
d="M8 0l112 243l-121 257h194l29 -129h9l29 129h175l-112 -243l121 -257h-193l-30 130h-8l-29 -130h-176z" />
    <glyph glyph-name="y" unicode="y" horiz-adv-x="428" 
d="M51 -180v136h61c19 0 32 9 35 23l7 38h-49l-99 483h180l26 -315h11l26 315h174l-116 -571c-14 -70 -69 -109 -150 -109h-106z" />
    <glyph glyph-name="yacute" unicode="&#xfd;" horiz-adv-x="428" 
d="M132 549l67 159h190v-21l-128 -138h-129zM51 -180v136h61c19 0 32 9 35 23l7 38h-49l-99 483h180l26 -315h11l26 315h174l-116 -571c-14 -70 -69 -109 -150 -109h-106z" />
    <glyph glyph-name="ycircumflex" unicode="&#x177;" horiz-adv-x="428" 
d="M40 549l91 159h166l91 -159h-139l-31 63h-8l-31 -63h-139zM51 -180v136h61c19 0 32 9 35 23l7 38h-49l-99 483h180l26 -315h11l26 315h174l-116 -571c-14 -70 -69 -109 -150 -109h-106z" />
    <glyph glyph-name="ydieresis" unicode="&#xff;" horiz-adv-x="428" 
d="M120 545c-51 0 -85 35 -85 87c0 50 34 83 85 83s85 -33 85 -83c0 -52 -35 -87 -85 -87zM311 545c-51 0 -86 35 -86 87c0 50 34 83 86 83c50 0 84 -33 84 -83c0 -52 -35 -87 -84 -87zM51 -180v136h61c19 0 32 9 35 23l7 38h-49l-99 483h180l26 -315h11l26 315h174
l-116 -571c-14 -70 -69 -109 -150 -109h-106z" />
    <glyph glyph-name="ygrave" unicode="&#x1ef3;" horiz-adv-x="428" 
d="M168 549l-128 138v21h190l67 -159h-129zM51 -180v136h61c19 0 32 9 35 23l7 38h-49l-99 483h180l26 -315h11l26 315h174l-116 -571c-14 -70 -69 -109 -150 -109h-106z" />
    <glyph glyph-name="uni0233" unicode="&#x233;" horiz-adv-x="428" 
d="M84 562v127h264v-127h-264zM51 -180v136h61c19 0 32 9 35 23l7 38h-49l-99 483h180l26 -315h11l26 315h174l-116 -571c-14 -70 -69 -109 -150 -109h-106z" />
    <glyph glyph-name="uni1EF9" unicode="&#x1ef9;" horiz-adv-x="428" 
d="M277 547c-48 0 -72 31 -96 31c-14 0 -24 -11 -24 -28h-118v32c0 84 46 141 114 141c49 0 69 -30 93 -30c14 0 25 11 25 28h119v-31c0 -85 -47 -143 -113 -143zM51 -180v136h61c19 0 32 9 35 23l7 38h-49l-99 483h180l26 -315h11l26 315h174l-116 -571
c-14 -70 -69 -109 -150 -109h-106z" />
    <glyph glyph-name="z" unicode="z" horiz-adv-x="407" 
d="M28 0v122l128 220v9h-124v149h343v-122l-129 -220v-9h133v-149h-351z" />
    <glyph glyph-name="zacute" unicode="&#x17a;" horiz-adv-x="407" 
d="M120 549l67 159h190v-21l-128 -138h-129zM28 0v122l128 220v9h-124v149h343v-122l-129 -220v-9h133v-149h-351z" />
    <glyph glyph-name="zcaron" unicode="&#x17e;" horiz-adv-x="407" 
d="M119 549l-91 159h139l31 -63h8l31 63h139l-91 -159h-166zM28 0v122l128 220v9h-124v149h343v-122l-129 -220v-9h133v-149h-351z" />
    <glyph glyph-name="zdotaccent" unicode="&#x17c;" horiz-adv-x="407" 
d="M203 545c-54 0 -89 36 -89 88c0 53 35 88 89 88c52 0 88 -35 88 -88c0 -52 -36 -88 -88 -88zM28 0v122l128 220v9h-124v149h343v-122l-129 -220v-9h133v-149h-351z" />
    <glyph glyph-name="uni1E93" unicode="&#x1e93;" horiz-adv-x="407" 
d="M28 0v122l128 220v9h-124v149h343v-122l-129 -220v-9h133v-149h-351zM203 -221c-54 0 -89 35 -89 88c0 52 35 88 89 88c52 0 88 -36 88 -88c0 -53 -36 -88 -88 -88z" />
    <glyph glyph-name="a.ss01" horiz-adv-x="441" 
d="M241 500h165v-500h-165v47h-8c-14 -34 -49 -59 -92 -59c-67 0 -114 53 -114 131v262c0 78 47 131 114 131c43 0 78 -25 92 -59h8v47zM216 142c15 0 25 12 25 27v162c0 15 -10 27 -25 27s-24 -10 -24 -28v-160c0 -18 9 -28 24 -28z" />
    <glyph glyph-name="aacute.ss01" horiz-adv-x="441" 
d="M397 687l-128 -138h-129l67 159h190v-21zM241 500h165v-500h-165v47h-8c-14 -34 -49 -59 -92 -59c-67 0 -114 53 -114 131v262c0 78 47 131 114 131c43 0 78 -25 92 -59h8v47zM216 142c15 0 25 12 25 27v162c0 15 -10 27 -25 27s-24 -10 -24 -28v-160c0 -18 9 -28 24 -28
z" />
    <glyph glyph-name="abreve.ss01" horiz-adv-x="441" 
d="M223 541c-93 0 -153 61 -153 155v15h125v-14c0 -16 11 -26 28 -26c16 0 26 10 26 26v14h126v-15c0 -94 -61 -155 -152 -155zM241 500h165v-500h-165v47h-8c-14 -34 -49 -59 -92 -59c-67 0 -114 53 -114 131v262c0 78 47 131 114 131c43 0 78 -25 92 -59h8v47zM216 142
c15 0 25 12 25 27v162c0 15 -10 27 -25 27s-24 -10 -24 -28v-160c0 -18 9 -28 24 -28z" />
    <glyph glyph-name="uni01CE.ss01" horiz-adv-x="441" 
d="M305 549h-166l-91 159h139l31 -63h8l31 63h139zM241 500h165v-500h-165v47h-8c-14 -34 -49 -59 -92 -59c-67 0 -114 53 -114 131v262c0 78 47 131 114 131c43 0 78 -25 92 -59h8v47zM216 142c15 0 25 12 25 27v162c0 15 -10 27 -25 27s-24 -10 -24 -28v-160
c0 -18 9 -28 24 -28z" />
    <glyph glyph-name="acircumflex.ss01" horiz-adv-x="441" 
d="M218 612l-31 -63h-139l91 159h166l91 -159h-139l-31 63h-8zM241 500h165v-500h-165v47h-8c-14 -34 -49 -59 -92 -59c-67 0 -114 53 -114 131v262c0 78 47 131 114 131c43 0 78 -25 92 -59h8v47zM216 142c15 0 25 12 25 27v162c0 15 -10 27 -25 27s-24 -10 -24 -28v-160
c0 -18 9 -28 24 -28z" />
    <glyph glyph-name="uni0201.ss01" horiz-adv-x="441" 
d="M207 549h-129l-77 138v21h160zM395 549h-129l-76 138v21h161zM241 500h165v-500h-165v47h-8c-14 -34 -49 -59 -92 -59c-67 0 -114 53 -114 131v262c0 78 47 131 114 131c43 0 78 -25 92 -59h8v47zM216 142c15 0 25 12 25 27v162c0 15 -10 27 -25 27s-24 -10 -24 -28v-160
c0 -18 9 -28 24 -28z" />
    <glyph glyph-name="adieresis.ss01" horiz-adv-x="441" 
d="M128 545c-51 0 -85 35 -85 87c0 50 34 83 85 83s85 -33 85 -83c0 -52 -35 -87 -85 -87zM319 545c-51 0 -86 35 -86 87c0 50 34 83 86 83c50 0 84 -33 84 -83c0 -52 -35 -87 -84 -87zM241 500h165v-500h-165v47h-8c-14 -34 -49 -59 -92 -59c-67 0 -114 53 -114 131v262
c0 78 47 131 114 131c43 0 78 -25 92 -59h8v47zM216 142c15 0 25 12 25 27v162c0 15 -10 27 -25 27s-24 -10 -24 -28v-160c0 -18 9 -28 24 -28z" />
    <glyph glyph-name="uni1EA1.ss01" horiz-adv-x="441" 
d="M241 500h165v-500h-165v47h-8c-14 -34 -49 -59 -92 -59c-67 0 -114 53 -114 131v262c0 78 47 131 114 131c43 0 78 -25 92 -59h8v47zM216 142c15 0 25 12 25 27v162c0 15 -10 27 -25 27s-24 -10 -24 -28v-160c0 -18 9 -28 24 -28zM223 -45c52 0 88 -36 88 -88
c0 -53 -36 -88 -88 -88c-54 0 -89 35 -89 88c0 52 35 88 89 88z" />
    <glyph glyph-name="agrave.ss01" horiz-adv-x="441" 
d="M305 549h-129l-128 138v21h190zM241 500h165v-500h-165v47h-8c-14 -34 -49 -59 -92 -59c-67 0 -114 53 -114 131v262c0 78 47 131 114 131c43 0 78 -25 92 -59h8v47zM216 142c15 0 25 12 25 27v162c0 15 -10 27 -25 27s-24 -10 -24 -28v-160c0 -18 9 -28 24 -28z" />
    <glyph glyph-name="uni0203.ss01" horiz-adv-x="441" 
d="M195 563v-14h-125v14c0 93 60 156 153 156c91 0 152 -63 152 -156v-14h-126v14c0 14 -10 24 -26 24c-17 0 -28 -10 -28 -24zM241 500h165v-500h-165v47h-8c-14 -34 -49 -59 -92 -59c-67 0 -114 53 -114 131v262c0 78 47 131 114 131c43 0 78 -25 92 -59h8v47zM216 142
c15 0 25 12 25 27v162c0 15 -10 27 -25 27s-24 -10 -24 -28v-160c0 -18 9 -28 24 -28z" />
    <glyph glyph-name="amacron.ss01" horiz-adv-x="441" 
d="M356 689v-127h-264v127h264zM241 500h165v-500h-165v47h-8c-14 -34 -49 -59 -92 -59c-67 0 -114 53 -114 131v262c0 78 47 131 114 131c43 0 78 -25 92 -59h8v47zM216 142c15 0 25 12 25 27v162c0 15 -10 27 -25 27s-24 -10 -24 -28v-160c0 -18 9 -28 24 -28z" />
    <glyph glyph-name="aogonek.ss01" horiz-adv-x="441" 
d="M385 -112c10 0 23 4 29 11v-109c-18 -10 -50 -16 -80 -16c-79 0 -130 46 -130 113c0 50 24 94 60 112v1h-23v47h-8c-14 -34 -49 -59 -92 -59c-67 0 -114 53 -114 131v262c0 78 47 131 114 131c43 0 78 -25 92 -59h8v47h165v-500h-1c-35 -11 -58 -41 -58 -72
c0 -24 15 -40 38 -40zM216 142c15 0 25 12 25 27v162c0 15 -10 27 -25 27s-24 -10 -24 -28v-160c0 -18 9 -28 24 -28z" />
    <glyph glyph-name="aring.ss01" horiz-adv-x="441" 
d="M224 541c-67 0 -111 43 -111 109s44 109 111 109c66 0 109 -43 109 -109s-43 -109 -109 -109zM224 682c-17 0 -28 -13 -28 -32c0 -20 11 -32 28 -32c15 0 26 12 26 32c0 19 -11 32 -26 32zM241 500h165v-500h-165v47h-8c-14 -34 -49 -59 -92 -59c-67 0 -114 53 -114 131
v262c0 78 47 131 114 131c43 0 78 -25 92 -59h8v47zM216 142c15 0 25 12 25 27v162c0 15 -10 27 -25 27s-24 -10 -24 -28v-160c0 -18 9 -28 24 -28z" />
    <glyph glyph-name="atilde.ss01" horiz-adv-x="441" 
d="M189 578c-14 0 -24 -11 -24 -28h-118v32c0 84 46 141 114 141c49 0 69 -30 93 -30c14 0 25 11 25 28h119v-31c0 -85 -47 -143 -113 -143c-48 0 -72 31 -96 31zM241 500h165v-500h-165v47h-8c-14 -34 -49 -59 -92 -59c-67 0 -114 53 -114 131v262c0 78 47 131 114 131
c43 0 78 -25 92 -59h8v47zM216 142c15 0 25 12 25 27v162c0 15 -10 27 -25 27s-24 -10 -24 -28v-160c0 -18 9 -28 24 -28z" />
    <glyph glyph-name="k.ss02" horiz-adv-x="443" 
d="M263 0l-43 177h-20v-177h-165v700h165v-368h20l46 168h180l-104 -234l105 -266h-184z" />
    <glyph glyph-name="uni0137.ss02" horiz-adv-x="443" 
d="M200 177v-177h-165v700h165v-368h20l46 168h180l-104 -234l105 -266h-184l-43 177h-20zM124 -238l35 189h175v-21l-92 -168h-118z" />
    <glyph glyph-name="f_t.dlig" horiz-adv-x="649" 
d="M619 353h-75v-181c0 -13 8 -21 22 -21h48v-151h-96c-84 0 -139 51 -139 129v224h-133v-353h-165v353h-59v147h59v71c0 78 55 129 139 129h96v-136h-48c-14 0 -22 -7 -22 -21v-43h105c24 0 39 15 39 39v91h154v-130h75v-147z" />
    <glyph glyph-name="t_t.dlig" horiz-adv-x="642" 
d="M612 353h-74v-181c0 -12 7 -21 22 -21h48v-151h-96c-83 0 -139 51 -139 129v224h-130v-181c0 -13 7 -21 21 -21h48v-151h-96c-84 0 -138 51 -138 129v224h-60v147h31c26 0 40 15 40 39v91h154v-130h102c24 0 39 15 39 39v91h154v-130h74v-147z" />
    <glyph glyph-name="ordfeminine" unicode="&#xaa;" horiz-adv-x="325" 
d="M169 682c77 0 128 -42 128 -106v-252h-115v31h-7c-10 -24 -35 -39 -61 -39c-52 0 -87 41 -87 102c0 64 44 106 111 106h40v46c0 7 -5 12 -12 12c-8 0 -12 -5 -12 -12v-26h-117v32c0 64 53 106 132 106zM164 408c8 0 14 4 14 12v37c-18 -1 -30 -12 -30 -29
c0 -12 6 -20 16 -20z" />
    <glyph glyph-name="ordmasculine" unicode="&#xba;" horiz-adv-x="323" 
d="M162 316c-81 0 -135 51 -135 127v112c0 76 54 127 135 127c80 0 133 -51 133 -127v-112c0 -76 -53 -127 -133 -127zM162 426c8 0 14 8 14 17v112c0 9 -6 17 -14 17c-9 0 -15 -7 -15 -17v-112c0 -10 6 -17 15 -17z" />
    <glyph glyph-name="pi" unicode="&#x3c0;" horiz-adv-x="592" 
d="M557 340h-65v-169c0 -12 7 -20 22 -20h37v-151h-85c-89 0 -148 50 -148 128v212h-45v-340h-173v340h-65v160h522v-160z" />
    <glyph glyph-name="zero" unicode="0" horiz-adv-x="508" 
d="M254 -12c-130 0 -215 77 -215 194v306c0 117 85 194 215 194s216 -77 216 -194v-306c0 -117 -86 -194 -216 -194zM254 148c24 0 42 14 42 37v300c0 23 -18 37 -42 37s-41 -14 -41 -37v-300c0 -23 17 -37 41 -37z" />
    <glyph glyph-name="one" unicode="1" horiz-adv-x="349" 
d="M124 0v486h-11l-86 -51v165l134 70h138v-670h-175z" />
    <glyph glyph-name="two" unicode="2" horiz-adv-x="465" 
d="M31 0v122l158 223c60 85 73 114 73 142c0 26 -13 35 -30 35c-19 0 -29 -14 -29 -32v-52h-174v60c0 110 81 184 203 184c121 0 205 -72 205 -187c0 -65 -27 -130 -76 -199l-94 -132v-9h169v-155h-405z" />
    <glyph glyph-name="three" unicode="3" horiz-adv-x="462" 
d="M230 -12c-126 0 -211 78 -211 193v29h176v-16c0 -30 13 -46 35 -46c21 0 36 15 36 59c0 40 -17 60 -53 60h-75v141h68c35 0 53 20 53 61c0 40 -12 53 -29 53c-18 0 -28 -14 -28 -39v-19h-175v32c0 112 83 186 205 186c120 0 204 -76 204 -186c0 -70 -33 -128 -82 -147v-9
c53 -21 89 -83 89 -159c0 -114 -86 -193 -213 -193z" />
    <glyph glyph-name="four" unicode="4" horiz-adv-x="501" 
d="M479 272v-151h-47v-121h-174v121h-236v132l183 417h227v-398h47zM197 272h61v148l7 49h-12l-56 -188v-9z" />
    <glyph glyph-name="five" unicode="5" horiz-adv-x="468" 
d="M298 442c90 0 154 -89 154 -215c0 -146 -87 -239 -218 -239c-122 0 -205 79 -205 204v12h175v-9c0 -31 13 -47 34 -47c27 0 41 26 41 68c0 43 -15 67 -39 67c-15 0 -28 -6 -33 -19h-175l46 406h333v-146h-181l-16 -110h8c14 17 43 28 76 28z" />
    <glyph glyph-name="six" unicode="6" horiz-adv-x="474" 
d="M238 -12c-130 0 -217 97 -217 239c0 72 24 156 56 222l106 221h196l-140 -247h9c11 13 35 20 63 20c88 0 147 -88 147 -210c0 -148 -88 -245 -220 -245zM239 148c25 0 40 26 40 72c0 45 -15 72 -40 72s-39 -27 -39 -72c0 -46 14 -72 39 -72z" />
    <glyph glyph-name="seven" unicode="7" horiz-adv-x="446" 
d="M48 0l175 501v9h-193v160h393v-136l-183 -534h-192z" />
    <glyph glyph-name="eight" unicode="8" horiz-adv-x="475" 
d="M238 -12c-132 0 -219 82 -219 197c0 71 29 133 78 159v9c-41 26 -65 82 -65 144c0 107 83 185 206 185s206 -78 206 -185c0 -61 -24 -118 -66 -144v-9c47 -25 78 -86 78 -159c0 -115 -87 -197 -218 -197zM238 414c23 0 37 20 37 55c0 36 -14 55 -37 55s-37 -19 -37 -55
c0 -35 14 -55 37 -55zM238 147c27 0 42 23 42 65c0 41 -15 64 -42 64c-28 0 -43 -23 -43 -64c0 -42 15 -65 43 -65z" />
    <glyph glyph-name="nine" unicode="9" horiz-adv-x="474" 
d="M94 0l139 237h-8c-11 -12 -34 -18 -61 -18c-90 0 -147 91 -147 215c0 153 88 248 218 248c131 0 219 -97 219 -239c0 -72 -25 -155 -57 -221l-107 -222h-196zM235 378c25 0 40 27 40 72c0 46 -15 72 -40 72s-39 -26 -39 -72c0 -45 14 -72 39 -72z" />
    <glyph glyph-name="uni24FF" unicode="&#x24ff;" horiz-adv-x="766" 
d="M383 -12c-193 0 -348 155 -348 347s155 347 348 347c192 0 347 -155 347 -347s-155 -347 -347 -347zM383 127c79 0 130 48 130 122v172c0 74 -51 122 -130 122c-77 0 -129 -48 -129 -122v-172c0 -74 52 -122 129 -122zM383 227c-13 0 -22 10 -22 24v168c0 14 9 24 22 24
c14 0 23 -10 23 -24v-168c0 -14 -9 -24 -23 -24z" />
    <glyph glyph-name="uni2776" unicode="&#x2776;" horiz-adv-x="766" 
d="M383 -12c-193 0 -348 155 -348 347s155 347 348 347c192 0 347 -155 347 -347s-155 -347 -347 -347zM281 144h218v100h-52v302h-84l-81 -43v-100l52 31h6v-190h-59v-100z" />
    <glyph glyph-name="uni2777" unicode="&#x2777;" horiz-adv-x="766" 
d="M383 -12c-193 0 -348 155 -348 347s155 347 348 347c192 0 347 -155 347 -347s-155 -347 -347 -347zM264 141h247v100h-96v5l48 66c21 29 48 66 48 120c0 71 -50 118 -124 118c-75 0 -124 -49 -124 -122v-12h108v19c0 8 5 17 14 17c10 0 15 -8 15 -17
c0 -25 -22 -62 -42 -88l-94 -123v-83z" />
    <glyph glyph-name="uni2778" unicode="&#x2778;" horiz-adv-x="766" 
d="M383 -12c-193 0 -348 155 -348 347s155 347 348 347c192 0 347 -155 347 -347s-155 -347 -347 -347zM383 127c78 0 129 48 129 116c0 46 -23 83 -53 95v5c30 12 49 47 49 88c0 66 -50 112 -125 112c-74 0 -124 -47 -124 -117v-15h110v23c0 9 4 15 11 15
c10 0 16 -12 16 -33c0 -24 -10 -38 -27 -38h-44v-85h49c17 0 26 -13 26 -37c0 -22 -7 -35 -19 -35c-9 0 -15 6 -15 16v25h-111v-18c0 -69 50 -117 128 -117z" />
    <glyph glyph-name="uni2779" unicode="&#x2779;" horiz-adv-x="766" 
d="M383 -12c-193 0 -348 155 -348 347s155 347 348 347c192 0 347 -155 347 -347s-155 -347 -347 -347zM379 134h107v71h28v95h-28v236h-140l-119 -249v-82h152v-71zM379 300h-44v6l41 127h8l-5 -29v-104z" />
    <glyph glyph-name="uni277A" unicode="&#x277a;" horiz-adv-x="766" 
d="M383 -12c-193 0 -348 155 -348 347s155 347 348 347c192 0 347 -155 347 -347s-155 -347 -347 -347zM382 125c81 0 133 57 133 143c0 77 -39 130 -95 130c-18 0 -35 -6 -44 -16h-5l7 57h113v95h-204l-28 -239h112c4 6 10 10 15 10c11 0 17 -16 17 -42
c0 -28 -6 -44 -19 -44c-9 0 -15 7 -15 18v19h-112v-8c0 -74 51 -123 125 -123z" />
    <glyph glyph-name="uni277B" unicode="&#x277b;" horiz-adv-x="766" 
d="M383 -12c-193 0 -348 155 -348 347s155 347 348 347c192 0 347 -155 347 -347s-155 -347 -347 -347zM383 131c79 0 133 58 133 146c0 74 -36 127 -92 127c-12 0 -27 -4 -32 -11h-6l80 147h-118l-63 -130c-19 -41 -34 -89 -34 -135c0 -85 53 -144 132 -144zM385 225
c-15 0 -24 17 -24 45c0 30 8 46 22 46c15 0 23 -16 23 -46c0 -28 -8 -45 -21 -45z" />
    <glyph glyph-name="uni277C" unicode="&#x277c;" horiz-adv-x="766" 
d="M383 -12c-193 0 -348 155 -348 347s155 347 348 347c192 0 347 -155 347 -347s-155 -347 -347 -347zM282 124h118l110 317v85h-238v-100h112v-5z" />
    <glyph glyph-name="uni277D" unicode="&#x277d;" horiz-adv-x="766" 
d="M383 -12c-193 0 -348 155 -348 347s155 347 348 347c192 0 347 -155 347 -347s-155 -347 -347 -347zM383 127c79 0 133 49 133 119c0 44 -20 79 -47 94v7c24 15 39 47 39 85c0 64 -50 111 -125 111c-74 0 -124 -47 -124 -111c0 -37 14 -70 39 -85v-7
c-28 -15 -47 -50 -47 -94c0 -70 53 -119 132 -119zM383 381c-12 0 -20 13 -20 35s8 35 20 35c13 0 21 -13 21 -35s-8 -35 -21 -35zM383 220c-15 0 -24 15 -24 40c0 26 9 41 24 41s24 -15 24 -41c0 -25 -9 -40 -24 -40z" />
    <glyph glyph-name="uni277E" unicode="&#x277e;" horiz-adv-x="766" 
d="M383 -12c-193 0 -348 155 -348 347s155 347 348 347c192 0 347 -155 347 -347s-155 -347 -347 -347zM300 131h118l64 129c19 39 34 91 34 136c0 85 -53 144 -133 144c-79 0 -132 -58 -132 -148c0 -76 36 -131 92 -131c7 0 25 3 31 9h5zM383 355c-14 0 -22 16 -22 46
c0 28 8 45 21 45c15 0 24 -17 24 -45c0 -30 -8 -46 -23 -46z" />
    <glyph glyph-name="uni277F" unicode="&#x277f;" horiz-adv-x="766" 
d="M383 -12c-193 0 -348 155 -348 347s155 347 348 347c192 0 347 -155 347 -347s-155 -347 -347 -347zM475 179c62 0 104 43 104 109v97c0 66 -42 109 -104 109c-64 0 -106 -43 -106 -109v-97c0 -66 42 -109 106 -109zM203 184h146v88h-23v217h-75l-48 -27v-90l23 16h7
v-116h-30v-88zM475 268c-8 0 -13 6 -13 13v111c0 7 5 13 13 13c7 0 12 -6 12 -13v-111c0 -7 -5 -13 -12 -13z" />
    <glyph glyph-name="uni24EA" unicode="&#x24ea;" horiz-adv-x="766" 
d="M383 -12c-193 0 -348 155 -348 347s155 347 348 347c190 0 347 -155 347 -347s-155 -347 -347 -347zM383 57c156 0 281 124 281 278s-125 278 -281 278s-281 -125 -281 -278s125 -278 281 -278zM383 127c-77 0 -129 48 -129 122v172c0 74 52 122 129 122
c79 0 130 -48 130 -122v-172c0 -74 -51 -122 -130 -122zM383 227c14 0 23 10 23 24v168c0 14 -9 24 -23 24c-13 0 -22 -10 -22 -24v-168c0 -14 9 -24 22 -24z" />
    <glyph glyph-name="uni2460" unicode="&#x2460;" horiz-adv-x="766" 
d="M383 682c190 0 347 -155 347 -347s-155 -347 -347 -347c-193 0 -348 155 -348 347s155 347 348 347zM383 57c156 0 281 124 281 278s-125 278 -281 278s-281 -125 -281 -278s125 -278 281 -278zM447 546v-302h52v-100h-218v100h59v190h-6l-52 -31v100l81 43h84z" />
    <glyph glyph-name="uni2461" unicode="&#x2461;" horiz-adv-x="766" 
d="M383 -12c-193 0 -348 155 -348 347s155 347 348 347c190 0 347 -155 347 -347s-155 -347 -347 -347zM383 57c156 0 281 124 281 278s-125 278 -281 278s-281 -125 -281 -278s125 -278 281 -278zM264 141v83l94 123c20 26 42 63 42 88c0 9 -5 17 -15 17
c-9 0 -14 -9 -14 -17v-19h-108v12c0 73 49 122 124 122c74 0 124 -47 124 -118c0 -54 -27 -91 -48 -120l-48 -66v-5h96v-100h-247z" />
    <glyph glyph-name="uni2462" unicode="&#x2462;" horiz-adv-x="766" 
d="M383 -12c-193 0 -348 155 -348 347s155 347 348 347c190 0 347 -155 347 -347s-155 -347 -347 -347zM383 57c156 0 281 124 281 278s-125 278 -281 278s-281 -125 -281 -278s125 -278 281 -278zM383 127c-78 0 -128 48 -128 117v18h111v-25c0 -10 6 -16 15 -16
c12 0 19 13 19 35c0 24 -9 37 -26 37h-49v85h44c17 0 27 14 27 38c0 21 -6 33 -16 33c-7 0 -11 -6 -11 -15v-23h-110v15c0 70 50 117 124 117c75 0 125 -46 125 -112c0 -41 -19 -76 -49 -88v-5c30 -12 53 -49 53 -95c0 -68 -51 -116 -129 -116z" />
    <glyph glyph-name="uni2463" unicode="&#x2463;" horiz-adv-x="766" 
d="M383 682c190 0 347 -155 347 -347s-155 -347 -347 -347c-193 0 -348 155 -348 347s155 347 348 347zM383 57c156 0 281 124 281 278s-125 278 -281 278s-281 -125 -281 -278s125 -278 281 -278zM486 536v-236h28v-95h-28v-71h-107v71h-152v82l119 249h140zM335 300h44
v104l5 29h-8l-41 -127v-6z" />
    <glyph glyph-name="uni2464" unicode="&#x2464;" horiz-adv-x="766" 
d="M383 -12c-193 0 -348 155 -348 347s155 347 348 347c190 0 347 -155 347 -347s-155 -347 -347 -347zM383 57c156 0 281 124 281 278s-125 278 -281 278s-281 -125 -281 -278s125 -278 281 -278zM382 125c-74 0 -125 49 -125 123v8h112v-19c0 -11 6 -18 15 -18
c13 0 19 16 19 44c0 26 -6 42 -17 42c-5 0 -11 -4 -15 -10h-112l28 239h204v-95h-113l-7 -57h5c9 10 26 16 44 16c56 0 95 -53 95 -130c0 -86 -52 -143 -133 -143z" />
    <glyph glyph-name="uni2465" unicode="&#x2465;" horiz-adv-x="766" 
d="M383 -12c-193 0 -348 155 -348 347s155 347 348 347c190 0 347 -155 347 -347s-155 -347 -347 -347zM383 57c156 0 281 124 281 278s-125 278 -281 278s-281 -125 -281 -278s125 -278 281 -278zM383 131c-79 0 -132 59 -132 144c0 46 15 94 34 135l63 130h118l-80 -147h6
c5 7 20 11 32 11c56 0 92 -53 92 -127c0 -88 -54 -146 -133 -146zM385 225c13 0 21 17 21 45c0 30 -8 46 -23 46c-14 0 -22 -16 -22 -46c0 -28 9 -45 24 -45z" />
    <glyph glyph-name="uni2466" unicode="&#x2466;" horiz-adv-x="766" 
d="M383 -12c-193 0 -348 155 -348 347s155 347 348 347c190 0 347 -155 347 -347s-155 -347 -347 -347zM383 57c156 0 281 124 281 278s-125 278 -281 278s-281 -125 -281 -278s125 -278 281 -278zM282 124l102 297v5h-112v100h238v-85l-110 -317h-118z" />
    <glyph glyph-name="uni2467" unicode="&#x2467;" horiz-adv-x="766" 
d="M383 -12c-193 0 -348 155 -348 347s155 347 348 347c190 0 347 -155 347 -347s-155 -347 -347 -347zM383 57c156 0 281 124 281 278s-125 278 -281 278s-281 -125 -281 -278s125 -278 281 -278zM383 127c-79 0 -132 49 -132 119c0 44 19 79 47 94v7c-25 15 -39 48 -39 85
c0 64 50 111 124 111c75 0 125 -47 125 -111c0 -38 -15 -70 -39 -85v-7c27 -15 47 -50 47 -94c0 -70 -54 -119 -133 -119zM383 381c13 0 21 13 21 35s-8 35 -21 35c-12 0 -20 -13 -20 -35s8 -35 20 -35zM383 220c15 0 24 15 24 40c0 26 -9 41 -24 41s-24 -15 -24 -41
c0 -25 9 -40 24 -40z" />
    <glyph glyph-name="uni2468" unicode="&#x2468;" horiz-adv-x="766" 
d="M383 -12c-193 0 -348 155 -348 347s155 347 348 347c190 0 347 -155 347 -347s-155 -347 -347 -347zM383 57c156 0 281 124 281 278s-125 278 -281 278s-281 -125 -281 -278s125 -278 281 -278zM300 131l80 139h-5c-7 -6 -24 -9 -32 -9c-56 0 -92 55 -92 131
c0 90 53 148 132 148c80 0 133 -59 133 -144c0 -45 -15 -97 -34 -136l-64 -129h-118zM383 355c15 0 23 16 23 46c0 28 -9 45 -24 45c-13 0 -21 -17 -21 -45c0 -30 8 -46 22 -46z" />
    <glyph glyph-name="uni2469" unicode="&#x2469;" horiz-adv-x="766" 
d="M383 682c190 0 347 -155 347 -347s-155 -347 -347 -347c-193 0 -348 155 -348 347s155 347 348 347zM383 57c156 0 281 124 281 278s-125 278 -281 278s-281 -125 -281 -278s125 -278 281 -278zM462 479c57 0 95 -39 95 -98v-89c0 -59 -38 -98 -95 -98
c-58 0 -96 39 -96 98v89c0 59 38 98 96 98zM331 475v-196h16v-81h-125v81h23v104h-6l-18 -14v81l41 25h69zM472 284v105c0 6 -5 9 -10 9s-11 -3 -11 -9v-105c0 -5 6 -9 11 -9s10 4 10 9z" />
    <glyph glyph-name="zero.tf" horiz-adv-x="502" 
d="M252 -12c-130 0 -216 77 -216 194v306c0 117 86 194 216 194s216 -77 216 -194v-306c0 -117 -86 -194 -216 -194zM252 148c24 0 41 14 41 37v300c0 23 -17 37 -41 37s-41 -14 -41 -37v-300c0 -23 17 -37 41 -37z" />
    <glyph glyph-name="one.tf" horiz-adv-x="502" 
d="M363 160h105v-160h-394v160h115v326h-11l-103 -51v165l150 70h138v-510z" />
    <glyph glyph-name="two.tf" horiz-adv-x="502" 
d="M48 0v122l158 223c61 85 73 114 73 142c0 26 -12 35 -29 35c-19 0 -30 -14 -30 -32v-52h-174v60c0 110 82 184 204 184c121 0 205 -72 205 -187c0 -65 -27 -130 -76 -199l-95 -132v-9h170v-155h-406z" />
    <glyph glyph-name="three.tf" horiz-adv-x="502" 
d="M249 -12c-126 0 -211 78 -211 193v29h176v-16c0 -30 13 -46 35 -46c21 0 36 15 36 59c0 40 -17 60 -53 60h-75v141h68c35 0 52 20 52 61c0 40 -11 53 -28 53c-18 0 -29 -14 -29 -39v-19h-174v32c0 112 83 186 205 186c120 0 204 -76 204 -186c0 -70 -33 -128 -82 -147v-9
c53 -21 89 -83 89 -159c0 -114 -86 -193 -213 -193z" />
    <glyph glyph-name="four.tf" horiz-adv-x="502" 
d="M481 272v-151h-47v-121h-174v121h-237v132l183 417h228v-398h47zM198 272h62v148l7 49h-12l-57 -188v-9z" />
    <glyph glyph-name="five.tf" horiz-adv-x="502" 
d="M307 442c89 0 153 -89 153 -215c0 -146 -86 -239 -217 -239c-122 0 -206 79 -206 204v12h175v-9c0 -31 14 -47 35 -47c27 0 40 26 40 68c0 43 -14 67 -38 67c-15 0 -28 -6 -34 -19h-174l45 406h333v-146h-181l-16 -110h8c14 17 44 28 77 28z" />
    <glyph glyph-name="six.tf" horiz-adv-x="502" 
d="M251 -12c-130 0 -218 97 -218 239c0 72 24 156 56 222l107 221h196l-141 -247h10c10 13 35 20 63 20c88 0 147 -88 147 -210c0 -148 -89 -245 -220 -245zM252 148c25 0 39 26 39 72c0 45 -14 72 -39 72s-39 -27 -39 -72c0 -46 14 -72 39 -72z" />
    <glyph glyph-name="seven.tf" horiz-adv-x="502" 
d="M81 0l175 501v9h-194v160h393v-136l-182 -534h-192z" />
    <glyph glyph-name="eight.tf" horiz-adv-x="502" 
d="M251 -12c-132 0 -219 82 -219 197c0 71 29 133 78 159v9c-41 26 -65 82 -65 144c0 107 83 185 206 185s206 -78 206 -185c0 -61 -24 -118 -66 -144v-9c47 -25 78 -86 78 -159c0 -115 -87 -197 -218 -197zM251 414c23 0 37 20 37 55c0 36 -14 55 -37 55s-37 -19 -37 -55
c0 -35 14 -55 37 -55zM251 147c27 0 42 23 42 65c0 41 -15 64 -42 64c-28 0 -43 -23 -43 -64c0 -42 15 -65 43 -65z" />
    <glyph glyph-name="nine.tf" horiz-adv-x="502" 
d="M111 0l138 237h-8c-10 -12 -33 -18 -60 -18c-90 0 -148 91 -148 215c0 153 89 248 219 248c131 0 219 -97 219 -239c0 -72 -25 -155 -58 -221l-106 -222h-196zM252 378c25 0 39 27 39 72c0 46 -14 72 -39 72s-39 -26 -39 -72c0 -45 14 -72 39 -72z" />
    <glyph glyph-name="zero.tf.zero" horiz-adv-x="502" 
d="M251 682c129 0 215 -77 215 -194v-306c0 -117 -86 -194 -215 -194s-215 77 -215 194v306c0 117 86 194 215 194zM251 522c-24 0 -41 -14 -41 -37v-125l82 114v11c0 23 -17 37 -41 37zM251 148c24 0 41 14 41 37v126l-82 -114v-12c0 -23 17 -37 41 -37z" />
    <glyph glyph-name="zero.zero" horiz-adv-x="508" 
d="M254 682c130 0 216 -77 216 -194v-306c0 -117 -86 -194 -216 -194s-215 77 -215 194v306c0 117 85 194 215 194zM254 522c-24 0 -41 -14 -41 -37v-125l83 115v10c0 23 -18 37 -42 37zM254 148c24 0 42 14 42 37v127l-83 -115v-12c0 -23 17 -37 41 -37z" />
    <glyph glyph-name="zero.subs" horiz-adv-x="298" 
d="M149 -107c-77 0 -130 48 -130 122v172c0 74 53 122 130 122c78 0 129 -48 129 -122v-172c0 -74 -51 -122 -129 -122zM149 -7c13 0 22 10 22 24v168c0 14 -9 24 -22 24c-14 0 -22 -10 -22 -24v-168c0 -14 8 -24 22 -24z" />
    <glyph glyph-name="one.subs" horiz-adv-x="265" 
d="M193 0h52v-100h-218v100h60v190h-6l-53 -31v100l82 43h83v-302z" />
    <glyph glyph-name="two.subs" horiz-adv-x="290" 
d="M23 -100v83l94 123c21 27 42 63 42 88c0 9 -7 17 -16 17c-10 0 -17 -8 -17 -19v-21h-107v16c0 73 51 122 126 122s125 -47 125 -118c0 -51 -28 -90 -49 -119l-48 -67v-5h96v-100h-246z" />
    <glyph glyph-name="three.subs" horiz-adv-x="297" 
d="M148 -107c-78 0 -129 44 -129 107v28h112v-23c0 -11 5 -18 16 -18c10 0 17 12 17 32c0 26 -9 41 -26 41h-47v84h43c17 0 26 15 26 41c0 19 -6 30 -16 30s-15 -7 -15 -17v-21h-109v25c0 64 52 107 129 107c72 0 123 -45 123 -112c0 -43 -19 -76 -49 -88v-5
c32 -13 54 -51 54 -95c0 -68 -52 -116 -129 -116z" />
    <glyph glyph-name="four.subs" horiz-adv-x="308" 
d="M288 66v-95h-28v-71h-107v71h-142v82l109 249h140v-236h28zM103 66h50v103l4 29h-8l-46 -126v-6z" />
    <glyph glyph-name="five.subs" horiz-adv-x="297" 
d="M145 -107c-74 0 -126 49 -126 123v9h112v-20c0 -11 6 -18 17 -18s18 16 18 44c0 29 -7 44 -18 44c-7 0 -13 -5 -16 -12h-111l28 239h203v-95h-113l-6 -57h5c9 9 23 16 44 16c56 0 95 -53 95 -130c0 -87 -53 -143 -132 -143z" />
    <glyph glyph-name="six.subs" horiz-adv-x="304" 
d="M152 -107c-79 0 -133 58 -133 144c0 46 15 94 35 135l62 130h118l-81 -147h6c7 8 23 11 33 11c55 0 92 -52 92 -127c0 -88 -55 -146 -132 -146zM152 -9c13 0 21 15 21 41c0 27 -8 42 -22 42s-21 -15 -21 -42c0 -26 7 -41 22 -41z" />
    <glyph glyph-name="seven.subs" horiz-adv-x="267" 
d="M30 -100l110 297v5h-121v100h238v-85l-109 -317h-118z" />
    <glyph glyph-name="eight.subs" horiz-adv-x="303" 
d="M151 -107c-79 0 -132 50 -132 119c0 40 16 78 47 94v7c-26 15 -39 49 -39 85c0 63 50 111 124 111c75 0 124 -47 124 -111c0 -37 -14 -70 -38 -85v-7c26 -14 46 -50 46 -94c0 -70 -53 -119 -132 -119zM151 147c12 0 20 13 20 35s-8 35 -20 35c-13 0 -19 -13 -19 -35
s6 -35 19 -35zM151 -14c15 0 24 15 24 40c0 26 -9 41 -24 41s-23 -15 -23 -41c0 -25 8 -40 23 -40z" />
    <glyph glyph-name="nine.subs" horiz-adv-x="304" 
d="M68 -100l79 140h-5c-6 -6 -20 -10 -31 -10c-57 0 -92 56 -92 131c0 90 54 148 133 148s132 -59 132 -144c0 -45 -15 -97 -34 -136l-64 -129h-118zM151 128c14 0 22 15 22 42c0 26 -8 41 -22 41s-21 -15 -21 -41c0 -27 7 -42 21 -42z" />
    <glyph glyph-name="zero.dnom" horiz-adv-x="298" 
d="M149 -7c-77 0 -130 48 -130 122v172c0 74 53 122 130 122c78 0 129 -48 129 -122v-172c0 -74 -51 -122 -129 -122zM149 93c13 0 22 10 22 24v168c0 14 -9 24 -22 24c-14 0 -22 -10 -22 -24v-168c0 -14 8 -24 22 -24z" />
    <glyph glyph-name="one.dnom" horiz-adv-x="265" 
d="M193 100h52v-100h-218v100h60v190h-6l-53 -31v100l82 43h83v-302z" />
    <glyph glyph-name="two.dnom" horiz-adv-x="290" 
d="M23 0v83l94 123c21 27 42 63 42 88c0 9 -7 17 -16 17c-10 0 -17 -8 -17 -19v-21h-107v16c0 73 51 122 126 122s125 -47 125 -118c0 -51 -28 -90 -49 -119l-48 -67v-5h96v-100h-246z" />
    <glyph glyph-name="three.dnom" horiz-adv-x="297" 
d="M148 -7c-78 0 -129 44 -129 107v28h112v-23c0 -11 5 -18 16 -18c10 0 17 12 17 32c0 26 -9 41 -26 41h-47v84h43c17 0 26 15 26 41c0 19 -6 30 -16 30s-15 -7 -15 -17v-21h-109v25c0 64 52 107 129 107c72 0 123 -45 123 -112c0 -43 -19 -76 -49 -88v-5
c32 -13 54 -51 54 -95c0 -68 -52 -116 -129 -116z" />
    <glyph glyph-name="four.dnom" horiz-adv-x="308" 
d="M288 166v-95h-28v-71h-107v71h-142v82l109 249h140v-236h28zM103 166h50v103l4 29h-8l-46 -126v-6z" />
    <glyph glyph-name="five.dnom" horiz-adv-x="297" 
d="M145 -7c-74 0 -126 49 -126 123v9h112v-20c0 -11 6 -18 17 -18s18 16 18 44c0 29 -7 44 -18 44c-7 0 -13 -5 -16 -12h-111l28 239h203v-95h-113l-6 -57h5c9 9 23 16 44 16c56 0 95 -53 95 -130c0 -87 -53 -143 -132 -143z" />
    <glyph glyph-name="six.dnom" horiz-adv-x="304" 
d="M152 -7c-79 0 -133 58 -133 144c0 46 15 94 35 135l62 130h118l-81 -147h6c7 8 23 11 33 11c55 0 92 -52 92 -127c0 -88 -55 -146 -132 -146zM152 91c13 0 21 15 21 41c0 27 -8 42 -22 42s-21 -15 -21 -42c0 -26 7 -41 22 -41z" />
    <glyph glyph-name="seven.dnom" horiz-adv-x="267" 
d="M30 0l110 297v5h-121v100h238v-85l-109 -317h-118z" />
    <glyph glyph-name="eight.dnom" horiz-adv-x="303" 
d="M151 -7c-79 0 -132 50 -132 119c0 40 16 78 47 94v7c-26 15 -39 49 -39 85c0 63 50 111 124 111c75 0 124 -47 124 -111c0 -37 -14 -70 -38 -85v-7c26 -14 46 -50 46 -94c0 -70 -53 -119 -132 -119zM151 247c12 0 20 13 20 35s-8 35 -20 35c-13 0 -19 -13 -19 -35
s6 -35 19 -35zM151 86c15 0 24 15 24 40c0 26 -9 41 -24 41s-23 -15 -23 -41c0 -25 8 -40 23 -40z" />
    <glyph glyph-name="nine.dnom" horiz-adv-x="304" 
d="M68 0l79 140h-5c-6 -6 -20 -10 -31 -10c-57 0 -92 56 -92 131c0 90 54 148 133 148s132 -59 132 -144c0 -45 -15 -97 -34 -136l-64 -129h-118zM151 228c14 0 22 15 22 42c0 26 -8 41 -22 41s-21 -15 -21 -41c0 -27 7 -42 21 -42z" />
    <glyph glyph-name="zero.numr" horiz-adv-x="298" 
d="M149 261c-77 0 -130 48 -130 122v172c0 74 53 122 130 122c78 0 129 -48 129 -122v-172c0 -74 -51 -122 -129 -122zM149 361c13 0 22 10 22 24v168c0 14 -9 24 -22 24c-14 0 -22 -10 -22 -24v-168c0 -14 8 -24 22 -24z" />
    <glyph glyph-name="one.numr" horiz-adv-x="265" 
d="M193 368h52v-100h-218v100h60v190h-6l-53 -31v100l82 43h83v-302z" />
    <glyph glyph-name="two.numr" horiz-adv-x="290" 
d="M23 268v83l94 123c21 27 42 63 42 88c0 9 -7 17 -16 17c-10 0 -17 -8 -17 -19v-21h-107v16c0 73 51 122 126 122s125 -47 125 -118c0 -51 -28 -90 -49 -119l-48 -67v-5h96v-100h-246z" />
    <glyph glyph-name="three.numr" horiz-adv-x="297" 
d="M148 261c-78 0 -129 44 -129 107v28h112v-23c0 -11 5 -18 16 -18c10 0 17 12 17 32c0 26 -9 41 -26 41h-47v84h43c17 0 26 15 26 41c0 19 -6 30 -16 30s-15 -7 -15 -17v-21h-109v25c0 64 52 107 129 107c72 0 123 -45 123 -112c0 -43 -19 -76 -49 -88v-5
c32 -13 54 -51 54 -95c0 -68 -52 -116 -129 -116z" />
    <glyph glyph-name="four.numr" horiz-adv-x="308" 
d="M288 434v-95h-28v-71h-107v71h-142v82l109 249h140v-236h28zM103 434h50v103l4 29h-8l-46 -126v-6z" />
    <glyph glyph-name="five.numr" horiz-adv-x="297" 
d="M145 261c-74 0 -126 49 -126 123v9h112v-20c0 -11 6 -18 17 -18s18 16 18 44c0 29 -7 44 -18 44c-7 0 -13 -5 -16 -12h-111l28 239h203v-95h-113l-6 -57h5c9 9 23 16 44 16c56 0 95 -53 95 -130c0 -87 -53 -143 -132 -143z" />
    <glyph glyph-name="six.numr" horiz-adv-x="304" 
d="M152 261c-79 0 -133 58 -133 144c0 46 15 94 35 135l62 130h118l-81 -147h6c7 8 23 11 33 11c55 0 92 -52 92 -127c0 -88 -55 -146 -132 -146zM152 359c13 0 21 15 21 41c0 27 -8 42 -22 42s-21 -15 -21 -42c0 -26 7 -41 22 -41z" />
    <glyph glyph-name="seven.numr" horiz-adv-x="267" 
d="M30 268l110 297v5h-121v100h238v-85l-109 -317h-118z" />
    <glyph glyph-name="eight.numr" horiz-adv-x="303" 
d="M151 261c-79 0 -132 50 -132 119c0 40 16 78 47 94v7c-26 15 -39 49 -39 85c0 63 50 111 124 111c75 0 124 -47 124 -111c0 -37 -14 -70 -38 -85v-7c26 -14 46 -50 46 -94c0 -70 -53 -119 -132 -119zM151 515c12 0 20 13 20 35s-8 35 -20 35c-13 0 -19 -13 -19 -35
s6 -35 19 -35zM151 354c15 0 24 15 24 40c0 26 -9 41 -24 41s-23 -15 -23 -41c0 -25 8 -40 23 -40z" />
    <glyph glyph-name="nine.numr" horiz-adv-x="304" 
d="M68 268l79 140h-5c-6 -6 -20 -10 -31 -10c-57 0 -92 56 -92 131c0 90 54 148 133 148s132 -59 132 -144c0 -45 -15 -97 -34 -136l-64 -129h-118zM151 496c14 0 22 15 22 42c0 26 -8 41 -22 41s-21 -15 -21 -41c0 -27 7 -42 21 -42z" />
    <glyph glyph-name="uni2070" unicode="&#x2070;" horiz-adv-x="298" 
d="M149 361c-77 0 -130 48 -130 122v172c0 74 53 122 130 122c78 0 129 -48 129 -122v-172c0 -74 -51 -122 -129 -122zM149 461c13 0 22 10 22 24v168c0 14 -9 24 -22 24c-14 0 -22 -10 -22 -24v-168c0 -14 8 -24 22 -24z" />
    <glyph glyph-name="uni00B9" unicode="&#xb9;" horiz-adv-x="265" 
d="M193 468h52v-100h-218v100h60v190h-6l-53 -31v100l82 43h83v-302z" />
    <glyph glyph-name="uni00B2" unicode="&#xb2;" horiz-adv-x="290" 
d="M23 368v83l94 123c21 27 42 63 42 88c0 9 -7 17 -16 17c-10 0 -17 -8 -17 -19v-21h-107v16c0 73 51 122 126 122s125 -47 125 -118c0 -51 -28 -90 -49 -119l-48 -67v-5h96v-100h-246z" />
    <glyph glyph-name="uni00B3" unicode="&#xb3;" horiz-adv-x="297" 
d="M148 361c-78 0 -129 44 -129 107v28h112v-23c0 -11 5 -18 16 -18c10 0 17 12 17 32c0 26 -9 41 -26 41h-47v84h43c17 0 26 15 26 41c0 19 -6 30 -16 30s-15 -7 -15 -17v-21h-109v25c0 64 52 107 129 107c72 0 123 -45 123 -112c0 -43 -19 -76 -49 -88v-5
c32 -13 54 -51 54 -95c0 -68 -52 -116 -129 -116z" />
    <glyph glyph-name="uni2074" unicode="&#x2074;" horiz-adv-x="308" 
d="M288 534v-95h-28v-71h-107v71h-142v82l109 249h140v-236h28zM103 534h50v103l4 29h-8l-46 -126v-6z" />
    <glyph glyph-name="uni2075" unicode="&#x2075;" horiz-adv-x="297" 
d="M145 361c-74 0 -126 49 -126 123v9h112v-20c0 -11 6 -18 17 -18s18 16 18 44c0 29 -7 44 -18 44c-7 0 -13 -5 -16 -12h-111l28 239h203v-95h-113l-6 -57h5c9 9 23 16 44 16c56 0 95 -53 95 -130c0 -87 -53 -143 -132 -143z" />
    <glyph glyph-name="uni2076" unicode="&#x2076;" horiz-adv-x="304" 
d="M152 361c-79 0 -133 58 -133 144c0 46 15 94 35 135l62 130h118l-81 -147h6c7 8 23 11 33 11c55 0 92 -52 92 -127c0 -88 -55 -146 -132 -146zM152 459c13 0 21 15 21 41c0 27 -8 42 -22 42s-21 -15 -21 -42c0 -26 7 -41 22 -41z" />
    <glyph glyph-name="uni2077" unicode="&#x2077;" horiz-adv-x="267" 
d="M30 368l110 297v5h-121v100h238v-85l-109 -317h-118z" />
    <glyph glyph-name="uni2078" unicode="&#x2078;" horiz-adv-x="303" 
d="M151 361c-79 0 -132 50 -132 119c0 40 16 78 47 94v7c-26 15 -39 49 -39 85c0 63 50 111 124 111c75 0 124 -47 124 -111c0 -37 -14 -70 -38 -85v-7c26 -14 46 -50 46 -94c0 -70 -53 -119 -132 -119zM151 615c12 0 20 13 20 35s-8 35 -20 35c-13 0 -19 -13 -19 -35
s6 -35 19 -35zM151 454c15 0 24 15 24 40c0 26 -9 41 -24 41s-23 -15 -23 -41c0 -25 8 -40 23 -40z" />
    <glyph glyph-name="uni2079" unicode="&#x2079;" horiz-adv-x="304" 
d="M68 368l79 140h-5c-6 -6 -20 -10 -31 -10c-57 0 -92 56 -92 131c0 90 54 148 133 148s132 -59 132 -144c0 -45 -15 -97 -34 -136l-64 -129h-118zM151 596c14 0 22 15 22 42c0 26 -8 41 -22 41s-21 -15 -21 -41c0 -27 7 -42 21 -42z" />
    <glyph glyph-name="fraction" unicode="&#x2044;" horiz-adv-x="190" 
d="M-115 0l298 670h122l-298 -670h-122z" />
    <glyph glyph-name="onehalf" unicode="&#xbd;" horiz-adv-x="770" 
d="M245 268h-218v100h60v190h-6l-53 -31v100l82 43h83v-302h52v-100zM474 670h122l-298 -670h-122zM654 105v-5h96v-100h-246v83l94 123c21 27 42 63 42 88c0 9 -7 17 -16 17c-10 0 -17 -8 -17 -19v-21h-107v16c0 73 51 122 126 122s125 -47 125 -118
c0 -51 -28 -90 -49 -119z" />
    <glyph glyph-name="uni2153" unicode="&#x2153;" horiz-adv-x="777" 
d="M245 268h-218v100h60v190h-6l-53 -31v100l82 43h83v-302h52v-100zM474 670h122l-298 -670h-122zM704 204c32 -13 54 -51 54 -95c0 -68 -52 -116 -129 -116c-78 0 -129 44 -129 107v28h112v-23c0 -11 5 -18 16 -18c10 0 17 12 17 32c0 26 -9 41 -26 41h-47v84h43
c17 0 26 15 26 41c0 19 -6 30 -16 30s-15 -7 -15 -17v-21h-109v25c0 64 52 107 129 107c72 0 123 -45 123 -112c0 -43 -19 -76 -49 -88v-5z" />
    <glyph glyph-name="uni2154" unicode="&#x2154;" horiz-adv-x="802" 
d="M23 268v83l94 123c21 27 42 63 42 88c0 9 -7 17 -16 17c-10 0 -17 -8 -17 -19v-21h-107v16c0 73 51 122 126 122s125 -47 125 -118c0 -51 -28 -90 -49 -119l-48 -67v-5h96v-100h-246zM201 0l298 670h122l-298 -670h-122zM654 -7c-78 0 -129 44 -129 107v28h112v-23
c0 -11 5 -18 16 -18c10 0 17 12 17 32c0 26 -9 41 -26 41h-47v84h43c17 0 26 15 26 41c0 19 -6 30 -16 30s-15 -7 -15 -17v-21h-109v25c0 64 52 107 129 107c72 0 123 -45 123 -112c0 -43 -19 -76 -49 -88v-5c32 -13 54 -51 54 -95c0 -68 -52 -116 -129 -116z" />
    <glyph glyph-name="onequarter" unicode="&#xbc;" horiz-adv-x="756" 
d="M245 268h-218v100h60v190h-6l-53 -31v100l82 43h83v-302h52v-100zM474 670h122l-298 -670h-122zM737 166v-95h-28v-71h-107v71h-142v82l109 249h140v-236h28zM552 166h50v103l4 29h-8l-46 -126v-6z" />
    <glyph glyph-name="threequarters" unicode="&#xbe;" horiz-adv-x="762" 
d="M277 377c0 -68 -52 -116 -129 -116c-78 0 -129 44 -129 107v28h112v-23c0 -11 5 -18 16 -18c10 0 17 12 17 32c0 26 -9 41 -26 41h-47v84h43c17 0 26 15 26 41c0 19 -6 30 -16 30s-15 -7 -15 -17v-21h-109v25c0 64 52 107 129 107c72 0 123 -45 123 -112
c0 -43 -19 -76 -49 -88v-5c32 -13 54 -51 54 -95zM480 670h122l-298 -670h-122zM743 166v-95h-28v-71h-107v71h-142v82l109 249h140v-236h28zM558 166h50v103l4 29h-8l-46 -126v-6z" />
    <glyph glyph-name="uni2157" unicode="&#x2157;" horiz-adv-x="783" 
d="M148 261c-78 0 -129 44 -129 107v28h112v-23c0 -11 5 -18 16 -18c10 0 17 12 17 32c0 26 -9 41 -26 41h-47v84h43c17 0 26 15 26 41c0 19 -6 30 -16 30s-15 -7 -15 -17v-21h-109v25c0 64 52 107 129 107c72 0 123 -45 123 -112c0 -43 -19 -76 -49 -88v-5
c32 -13 54 -51 54 -95c0 -68 -52 -116 -129 -116zM182 0l298 670h122l-298 -670h-122zM632 -7c-74 0 -126 49 -126 123v9h112v-20c0 -11 6 -18 17 -18s18 16 18 44c0 29 -7 44 -18 44c-7 0 -13 -5 -16 -12h-111l28 239h203v-95h-113l-6 -57h5c9 9 23 16 44 16
c56 0 95 -53 95 -130c0 -87 -53 -143 -132 -143z" />
    <glyph glyph-name="oneeighth" unicode="&#x215b;" horiz-adv-x="783" 
d="M245 268h-218v100h60v190h-6l-53 -31v100l82 43h83v-302h52v-100zM474 670h122l-298 -670h-122zM718 206c26 -14 46 -50 46 -94c0 -70 -53 -119 -132 -119s-132 50 -132 119c0 40 16 78 47 94v7c-26 15 -39 49 -39 85c0 63 50 111 124 111c75 0 124 -47 124 -111
c0 -37 -14 -70 -38 -85v-7zM632 317c-13 0 -19 -13 -19 -35s6 -35 19 -35c12 0 20 13 20 35s-8 35 -20 35zM632 86c15 0 24 15 24 40c0 26 -9 41 -24 41s-23 -15 -23 -41c0 -25 8 -40 23 -40z" />
    <glyph glyph-name="threeeighths" unicode="&#x215c;" horiz-adv-x="789" 
d="M148 261c-78 0 -129 44 -129 107v28h112v-23c0 -11 5 -18 16 -18c10 0 17 12 17 32c0 26 -9 41 -26 41h-47v84h43c17 0 26 15 26 41c0 19 -6 30 -16 30s-15 -7 -15 -17v-21h-109v25c0 64 52 107 129 107c72 0 123 -45 123 -112c0 -43 -19 -76 -49 -88v-5
c32 -13 54 -51 54 -95c0 -68 -52 -116 -129 -116zM182 0l298 670h122l-298 -670h-122zM638 -7c-79 0 -132 50 -132 119c0 40 16 78 47 94v7c-26 15 -39 49 -39 85c0 63 50 111 124 111c75 0 124 -47 124 -111c0 -37 -14 -70 -38 -85v-7c26 -14 46 -50 46 -94
c0 -70 -53 -119 -132 -119zM638 247c12 0 20 13 20 35s-8 35 -20 35c-13 0 -19 -13 -19 -35s6 -35 19 -35zM638 86c15 0 24 15 24 40c0 26 -9 41 -24 41s-23 -15 -23 -41c0 -25 8 -40 23 -40z" />
    <glyph glyph-name="fiveeighths" unicode="&#x215d;" horiz-adv-x="789" 
d="M145 261c-74 0 -126 49 -126 123v9h112v-20c0 -11 6 -18 17 -18s18 16 18 44c0 29 -7 44 -18 44c-7 0 -13 -5 -16 -12h-111l28 239h203v-95h-113l-6 -57h5c9 9 23 16 44 16c56 0 95 -53 95 -130c0 -87 -53 -143 -132 -143zM182 0l298 670h122l-298 -670h-122zM638 -7
c-79 0 -132 50 -132 119c0 40 16 78 47 94v7c-26 15 -39 49 -39 85c0 63 50 111 124 111c75 0 124 -47 124 -111c0 -37 -14 -70 -38 -85v-7c26 -14 46 -50 46 -94c0 -70 -53 -119 -132 -119zM638 247c12 0 20 13 20 35s-8 35 -20 35c-13 0 -19 -13 -19 -35s6 -35 19 -35z
M638 86c15 0 24 15 24 40c0 26 -9 41 -24 41s-23 -15 -23 -41c0 -25 8 -40 23 -40z" />
    <glyph glyph-name="seveneighths" unicode="&#x215e;" horiz-adv-x="727" 
d="M30 268l110 297v5h-121v100h238v-85l-109 -317h-118zM120 0l298 670h122l-298 -670h-122zM576 -7c-79 0 -132 50 -132 119c0 40 16 78 47 94v7c-26 15 -39 49 -39 85c0 63 50 111 124 111c75 0 124 -47 124 -111c0 -37 -14 -70 -38 -85v-7c26 -14 46 -50 46 -94
c0 -70 -53 -119 -132 -119zM576 247c12 0 20 13 20 35s-8 35 -20 35c-13 0 -19 -13 -19 -35s6 -35 19 -35zM576 86c15 0 24 15 24 40c0 26 -9 41 -24 41s-23 -15 -23 -41c0 -25 8 -40 23 -40z" />
    <glyph glyph-name="period" unicode="." horiz-adv-x="243" 
d="M122 -11c-62 0 -103 40 -103 101s41 101 103 101c61 0 102 -40 102 -101s-41 -101 -102 -101z" />
    <glyph glyph-name="comma" unicode="," horiz-adv-x="260" 
d="M16 -97l44 269h180v-20l-102 -249h-122z" />
    <glyph glyph-name="colon" unicode=":" horiz-adv-x="251" 
d="M126 295c-62 0 -103 40 -103 101s41 101 103 101c61 0 102 -40 102 -101s-41 -101 -102 -101zM126 -11c-62 0 -103 40 -103 101s41 101 103 101c61 0 102 -40 102 -101s-41 -101 -102 -101z" />
    <glyph glyph-name="semicolon" unicode=";" horiz-adv-x="265" 
d="M141 295c-62 0 -102 40 -102 101s40 101 102 101c61 0 102 -40 102 -101s-41 -101 -102 -101zM11 -97l44 269h180v-20l-102 -249h-122z" />
    <glyph glyph-name="ellipsis" unicode="&#x2026;" horiz-adv-x="725" 
d="M122 -11c-62 0 -103 40 -103 101s41 101 103 101c61 0 102 -40 102 -101s-41 -101 -102 -101zM363 -11c-62 0 -102 40 -102 101s40 101 102 101c61 0 102 -40 102 -101s-41 -101 -102 -101zM604 -11c-62 0 -102 40 -102 101s40 101 102 101c61 0 102 -40 102 -101
s-41 -101 -102 -101z" />
    <glyph glyph-name="exclam" unicode="!" horiz-adv-x="239" 
d="M52 235l-20 259v176h174v-176l-20 -259h-134zM119 -11c-61 0 -102 40 -102 101s41 101 102 101c62 0 103 -40 103 -101s-41 -101 -103 -101z" />
    <glyph glyph-name="exclamdown" unicode="&#xa1;" horiz-adv-x="239" 
d="M119 309c-61 0 -102 40 -102 101s41 101 102 101c62 0 103 -40 103 -101s-41 -101 -103 -101zM32 -170v176l20 259h134l20 -259v-176h-174z" />
    <glyph glyph-name="question" unicode="?" horiz-adv-x="436" 
d="M124 235v39c0 139 120 131 120 212c0 24 -10 38 -27 38c-16 0 -25 -12 -25 -34v-33h-179v30c0 117 80 195 206 195c122 0 205 -72 205 -193c0 -156 -126 -166 -126 -230v-24h-174zM214 -11c-62 0 -102 40 -102 101s40 101 102 101s102 -40 102 -101s-40 -101 -102 -101z
" />
    <glyph glyph-name="questiondown" unicode="&#xbf;" horiz-adv-x="426" 
d="M221 309c-62 0 -102 40 -102 101s40 101 102 101s102 -40 102 -101s-40 -101 -102 -101zM216 -182c-121 0 -205 72 -205 193c0 156 126 166 126 230v24h174v-39c0 -139 -119 -131 -119 -212c0 -24 9 -38 26 -38c16 0 26 12 26 34v33h179v-30c0 -117 -81 -195 -207 -195z
" />
    <glyph glyph-name="periodcentered" unicode="&#xb7;" horiz-adv-x="269" 
d="M135 184c-60 0 -100 39 -100 99s40 99 100 99c59 0 99 -39 99 -99s-40 -99 -99 -99z" />
    <glyph glyph-name="bullet" unicode="&#x2022;" horiz-adv-x="329" 
d="M164 154c-76 0 -129 51 -129 129c0 79 53 129 129 129c79 0 129 -51 129 -129s-50 -129 -129 -129z" />
    <glyph glyph-name="asterisk" unicode="*" horiz-adv-x="391" 
d="M264 530l66 -24l41 -24l-48 -84l-41 24l-51 46l13 -70v-48h-98v48l14 69l-51 -45l-41 -24l-49 84l41 24l67 24l-67 24l-41 25l49 84l41 -24l51 -46l-14 70v49h98v-49l-13 -70l51 46l41 24l48 -84l-41 -25z" />
    <glyph glyph-name="numbersign" unicode="#" horiz-adv-x="568" 
d="M540 393h-79l-14 -116h61v-120h-75l-19 -157h-140l19 157h-57l-19 -157h-140l19 157h-67v120h81l14 116h-63v120h77l19 157h140l-19 -157h57l19 157h140l-19 -157h65v-120zM307 277l14 116h-57l-14 -116h57z" />
    <glyph glyph-name="slash" unicode="/" horiz-adv-x="393" 
d="M5 -150l224 870h160l-224 -870h-160z" />
    <glyph glyph-name="backslash" unicode="\" horiz-adv-x="393" 
d="M229 -150l-224 870h160l224 -870h-160z" />
    <glyph glyph-name="exclamdown.case" horiz-adv-x="239" 
d="M119 479c-61 0 -102 40 -102 101s41 101 102 101c62 0 103 -40 103 -101s-41 -101 -103 -101zM32 0v176l20 259h134l20 -259v-176h-174z" />
    <glyph glyph-name="questiondown.case" horiz-adv-x="436" 
d="M222 480c-61 0 -102 40 -102 101s41 101 102 101c62 0 102 -40 102 -101s-40 -101 -102 -101zM217 -11c-121 0 -204 72 -204 193c0 156 125 166 125 230v24h174v-39c0 -139 -119 -132 -119 -212c0 -24 9 -38 26 -38c16 0 26 12 26 33v34h179v-30
c0 -117 -80 -195 -207 -195z" />
    <glyph glyph-name="periodcentered.case" horiz-adv-x="269" 
d="M135 237c-60 0 -100 39 -100 99s40 99 100 99c59 0 99 -39 99 -99s-40 -99 -99 -99z" />
    <glyph glyph-name="bullet.case" horiz-adv-x="329" 
d="M164 207c-76 0 -129 51 -129 129c0 79 53 129 129 129c79 0 129 -51 129 -129s-50 -129 -129 -129z" />
    <glyph glyph-name="asterisk.case" horiz-adv-x="407" 
d="M272 490l66 -24l41 -24l-48 -84l-41 24l-51 46l13 -70v-48h-98v48l14 69l-51 -45l-41 -24l-49 84l41 24l67 24l-67 24l-41 25l49 84l41 -24l51 -46l-14 70v49h98v-49l-13 -70l51 46l41 24l48 -84l-41 -25z" />
    <glyph glyph-name="slash.case" horiz-adv-x="371" 
d="M10 0l192 670h160l-192 -670h-160z" />
    <glyph glyph-name="backslash.case" horiz-adv-x="371" 
d="M202 0l-192 670h160l192 -670h-160z" />
    <glyph glyph-name="parenleft" unicode="(" horiz-adv-x="306" 
d="M158 -150c-81 112 -123 271 -123 435c0 173 47 330 123 435h152v-11c-66 -99 -103 -252 -103 -424c0 -171 37 -324 103 -424v-11h-152z" />
    <glyph glyph-name="parenright" unicode=")" horiz-adv-x="306" 
d="M-5 -150v11c66 100 104 254 104 424c0 172 -38 325 -104 424v11h153c80 -111 122 -271 122 -435c0 -163 -42 -323 -122 -435h-153z" />
    <glyph glyph-name="braceleft" unicode="{" horiz-adv-x="364" 
d="M254 -150c-93 0 -155 56 -155 141v175c0 24 -16 41 -40 41h-24v157h24c24 0 40 16 40 40v175c0 85 62 141 155 141h86v-155h-44c-17 0 -27 -11 -27 -26v-169c0 -44 -25 -74 -59 -74h-10v-21h10c34 0 59 -30 59 -74v-170c0 -15 10 -26 27 -26h44v-155h-86z" />
    <glyph glyph-name="braceright" unicode="}" horiz-adv-x="364" 
d="M24 -150v155h45c15 0 26 11 26 26v170c0 44 24 74 58 74h10v21h-10c-34 0 -58 30 -58 74v169c0 15 -11 26 -26 26h-45v155h86c93 0 154 -56 154 -141v-177c0 -24 16 -40 40 -40h24v-153h-24c-24 0 -40 -17 -40 -41v-177c0 -85 -61 -141 -154 -141h-86z" />
    <glyph glyph-name="bracketleft" unicode="[" horiz-adv-x="337" 
d="M313 565h-92v-560h92v-155h-262v870h262v-155z" />
    <glyph glyph-name="bracketright" unicode="]" horiz-adv-x="337" 
d="M285 720v-870h-261v155h92v560h-92v155h261z" />
    <glyph glyph-name="parenleft.case" horiz-adv-x="307" 
d="M148 0c-68 67 -113 199 -113 335c0 114 48 248 113 335h153v-11c-57 -82 -94 -210 -94 -324c0 -137 38 -264 94 -324v-11h-153z" />
    <glyph glyph-name="parenright.case" horiz-adv-x="307" 
d="M5 0v11c56 60 95 187 95 324c0 114 -38 242 -95 324v11h153c68 -90 113 -224 113 -335c0 -135 -45 -268 -113 -335h-153z" />
    <glyph glyph-name="braceleft.case" horiz-adv-x="364" 
d="M244 0c-93 0 -155 56 -155 141v75c0 24 -16 41 -40 41h-24v157h24c24 0 40 16 40 40v75c0 85 62 141 155 141h86v-155h-44c-17 0 -27 -11 -27 -26v-69c0 -44 -25 -74 -59 -74h-10v-21h10c34 0 59 -30 59 -74v-70c0 -15 10 -26 27 -26h44v-155h-86z" />
    <glyph glyph-name="braceright.case" horiz-adv-x="364" 
d="M34 0v155h45c15 0 26 11 26 26v70c0 44 24 74 58 74h10v21h-10c-34 0 -58 30 -58 74v69c0 15 -11 26 -26 26h-45v155h86c93 0 154 -56 154 -141v-77c0 -24 16 -40 40 -40h24v-153h-24c-24 0 -40 -17 -40 -41v-77c0 -85 -61 -141 -154 -141h-86z" />
    <glyph glyph-name="bracketleft.case" horiz-adv-x="347" 
d="M313 515h-92v-360h92v-155h-262v670h262v-155z" />
    <glyph glyph-name="bracketright.case" horiz-adv-x="347" 
d="M295 670v-670h-261v155h92v360h-92v155h261z" />
    <glyph glyph-name="hyphen" unicode="-" horiz-adv-x="312" 
d="M35 201v155h242v-155h-242z" />
    <glyph glyph-name="endash" unicode="&#x2013;" horiz-adv-x="423" 
d="M35 208v141h353v-141h-353z" />
    <glyph glyph-name="emdash" unicode="&#x2014;" horiz-adv-x="682" 
d="M35 208v141h611v-141h-611z" />
    <glyph glyph-name="underscore" unicode="_" horiz-adv-x="371" 
d="M9 -180v127h353v-127h-353z" />
    <glyph glyph-name="hyphen.case" horiz-adv-x="312" 
d="M35 257v155h242v-155h-242z" />
    <glyph glyph-name="endash.case" horiz-adv-x="423" 
d="M35 264v141h353v-141h-353z" />
    <glyph glyph-name="emdash.case" horiz-adv-x="682" 
d="M35 264v141h611v-141h-611z" />
    <glyph glyph-name="quotesinglbase" unicode="&#x201a;" horiz-adv-x="260" 
d="M16 -97l44 269h180v-20l-102 -249h-122z" />
    <glyph glyph-name="quotedblbase" unicode="&#x201e;" horiz-adv-x="477" 
d="M16 -97l44 269h180v-20l-102 -249h-122zM233 -97l45 269h180v-20l-102 -249h-123z" />
    <glyph glyph-name="quotedblleft" unicode="&#x201c;" horiz-adv-x="484" 
d="M14 400v22l102 248h123l-45 -270h-180zM232 400v22l101 248h123l-44 -270h-180z" />
    <glyph glyph-name="quotedblright" unicode="&#x201d;" horiz-adv-x="484" 
d="M27 400l45 270h180v-20l-102 -250h-123zM245 400l44 270h181v-20l-102 -250h-123z" />
    <glyph glyph-name="quoteleft" unicode="&#x2018;" horiz-adv-x="266" 
d="M14 400v22l102 248h123l-45 -270h-180z" />
    <glyph glyph-name="quoteright" unicode="&#x2019;" horiz-adv-x="266" 
d="M27 400l45 270h180v-20l-102 -250h-123z" />
    <glyph glyph-name="guillemotleft" unicode="&#xab;" horiz-adv-x="566" 
d="M131 70l-118 195l118 195h173l-103 -189v-12l103 -189h-173zM371 70l-119 195l119 195h173l-103 -189v-12l103 -189h-173z" />
    <glyph glyph-name="guillemotright" unicode="&#xbb;" horiz-adv-x="566" 
d="M22 70l103 189v12l-103 189h173l119 -195l-119 -195h-173zM261 70l104 189v12l-104 189h173l119 -195l-119 -195h-173z" />
    <glyph glyph-name="guilsinglleft" unicode="&#x2039;" horiz-adv-x="326" 
d="M131 70l-118 195l118 195h173l-103 -189v-12l103 -189h-173z" />
    <glyph glyph-name="guilsinglright" unicode="&#x203a;" horiz-adv-x="326" 
d="M22 70l103 189v12l-103 189h173l119 -195l-119 -195h-173z" />
    <glyph glyph-name="quotedbl" unicode="&#x22;" horiz-adv-x="438" 
d="M45 398l-18 226v46h173v-46l-17 -226h-138zM254 398l-17 226v46h173v-46l-17 -226h-139z" />
    <glyph glyph-name="quotesingle" unicode="'" horiz-adv-x="228" 
d="M45 398l-18 226v46h173v-46l-17 -226h-138z" />
    <glyph glyph-name="guillemotleft.case" horiz-adv-x="566" 
d="M131 140l-118 195l118 195h173l-103 -189v-12l103 -189h-173zM371 140l-119 195l119 195h173l-103 -189v-12l103 -189h-173z" />
    <glyph glyph-name="guillemotright.case" horiz-adv-x="566" 
d="M22 140l103 189v12l-103 189h173l119 -195l-119 -195h-173zM261 140l104 189v12l-104 189h173l119 -195l-119 -195h-173z" />
    <glyph glyph-name="guilsinglleft.case" horiz-adv-x="326" 
d="M131 140l-118 195l118 195h173l-103 -189v-12l103 -189h-173z" />
    <glyph glyph-name="guilsinglright.case" horiz-adv-x="326" 
d="M22 140l103 189v12l-103 189h173l119 -195l-119 -195h-173z" />
    <glyph glyph-name="cent" unicode="&#xa2;" horiz-adv-x="441" 
d="M408 376h-164v44c0 15 -9 26 -24 26c-13 0 -22 -10 -22 -26v-170c0 -16 9 -26 22 -26c15 0 24 11 24 26v44h164v-44c0 -79 -41 -139 -109 -164v-86h-156v86c-68 25 -110 85 -110 164v170c0 79 42 139 110 164v86h156v-86c68 -25 109 -85 109 -164v-44z" />
    <glyph glyph-name="currency" unicode="&#xa4;" horiz-adv-x="456" 
d="M386 336c0 -23 -3 -44 -8 -63l51 -62l-113 -113l-53 63c-11 -3 -23 -4 -35 -4s-24 1 -34 3l-53 -62l-114 113l52 62c-5 19 -8 40 -8 63c0 22 3 43 8 61l-52 62l114 113l52 -62c11 2 23 3 35 3s24 -1 35 -4l53 63l113 -113l-51 -61c5 -19 8 -40 8 -62zM189 336
c0 -46 15 -71 39 -71c27 0 41 25 41 71c0 43 -14 69 -41 69c-24 0 -39 -26 -39 -69z" />
    <glyph glyph-name="dollar" unicode="$" horiz-adv-x="453" 
d="M421 215c0 -87 -44 -152 -116 -178v-92h-156v91c-71 24 -116 85 -116 168v19h166v-22c0 -17 12 -28 30 -28c15 0 26 11 26 28c0 78 -221 52 -221 260c0 84 44 147 115 173v91h156v-91c67 -25 110 -83 110 -163v-16h-164v17c0 15 -11 25 -26 25c-14 0 -23 -10 -23 -25
c0 -77 219 -44 219 -257z" />
    <glyph glyph-name="Euro" unicode="&#x20ac;" horiz-adv-x="516" 
d="M488 470h-173v18c0 21 -14 34 -32 34c-21 0 -36 -16 -36 -41v-45h126v-81h-126v-40h126v-81h-126v-45c0 -25 15 -41 36 -41c18 0 32 13 32 34v18h173v-21c0 -115 -83 -191 -202 -191c-129 0 -212 77 -212 194v52h-39v81h39v40h-39v81h39v52c0 117 83 194 212 194
c119 0 202 -76 202 -191v-21z" />
    <glyph glyph-name="florin" unicode="&#x192;" horiz-adv-x="413" 
d="M349 535c-26 0 -39 -14 -41 -41l-9 -100h76v-147h-89l-24 -278c-8 -91 -62 -149 -158 -149h-75v135h28c26 0 39 14 41 41l22 251h-70v147h83l11 127c8 90 61 149 158 149h75v-135h-28z" />
    <glyph glyph-name="franc" unicode="&#x20a3;" horiz-adv-x="445" 
d="M417 510h-169v-102h128v-160h-128v-53h69v-122h-69v-73h-174v73h-39v122h39v475h343v-160z" />
    <glyph glyph-name="lira" unicode="&#x20a4;" horiz-adv-x="501" 
d="M473 463h-173v28c0 19 -10 31 -25 31c-17 0 -27 -12 -27 -31v-77h149v-82h-149v-39h149v-82h-149v-5c0 -14 -3 -27 -10 -37v-9h229v-160h-431v143c23 1 38 21 38 46v22h-39v82h39v39h-39v82h39v83c0 111 80 185 201 185c118 0 198 -74 198 -188v-31z" />
    <glyph glyph-name="peseta" unicode="&#x20a7;" horiz-adv-x="562" 
d="M541 469v-81h-36c-13 -128 -90 -201 -216 -201h-41v-187h-174v388h-39v81h39v201h215c126 0 203 -72 216 -201h36zM248 519v-50h80c-10 32 -31 50 -62 50h-18zM266 338c31 0 53 18 62 50h-80v-50h18z" />
    <glyph glyph-name="uni20BD" unicode="&#x20bd;" horiz-adv-x="534" 
d="M297 212h-49v-47h126v-98h-126v-67h-174v67h-39v98h39v47h-39v159h39v299h223c134 0 210 -83 210 -229s-76 -229 -210 -229zM248 510v-139h35c31 0 50 26 50 70s-19 69 -50 69h-35z" />
    <glyph glyph-name="uni20A8" unicode="&#x20a8;" horiz-adv-x="918" 
d="M502 441c0 -92 -33 -159 -93 -196l109 -245h-203l-72 212h-23v-212h-175v670h229c145 0 228 -83 228 -229zM700 355c0 -60 201 -24 201 -201c0 -102 -69 -166 -179 -166s-181 65 -181 162v16h156v-15c0 -14 10 -25 23 -25s23 8 23 22c0 62 -200 36 -200 208
c0 102 71 156 173 156c109 0 180 -61 180 -153v-17h-156v14c0 11 -9 18 -20 18s-20 -8 -20 -19zM220 510v-143h35c46 0 73 26 73 71c0 46 -27 72 -73 72h-35z" />
    <glyph glyph-name="sterling" unicode="&#xa3;" horiz-adv-x="501" 
d="M473 463h-173v28c0 19 -10 31 -25 31c-17 0 -27 -12 -27 -31v-105h149v-142h-149v-38c0 -14 -3 -27 -10 -37v-9h229v-160h-431v143c23 1 38 21 38 46v55h-39v142h39v111c0 111 80 185 201 185c118 0 198 -74 198 -188v-31z" />
    <glyph glyph-name="yen" unicode="&#xa5;" horiz-adv-x="518" 
d="M498 670l-121 -328h54v-83h-85v-45h85v-84h-85v-130h-174v130h-84v84h84v42l-1 3h-83v83h52l-121 328h201l36 -224h11l37 224h194z" />
    <glyph glyph-name="plus" unicode="+" horiz-adv-x="463" 
d="M428 369v-141h-122v-126h-147v126h-124v141h124v125h147v-125h122z" />
    <glyph glyph-name="minus" unicode="&#x2212;" horiz-adv-x="423" 
d="M35 228v141h353v-141h-353z" />
    <glyph glyph-name="multiply" unicode="&#xd7;" horiz-adv-x="447" 
d="M412 388l-89 -89l89 -90l-99 -99l-89 89l-89 -89l-100 99l90 90l-90 89l100 99l89 -89l89 89z" />
    <glyph glyph-name="divide" unicode="&#xf7;" horiz-adv-x="423" 
d="M213 394c-50 0 -82 32 -82 82c0 48 32 80 82 80c48 0 81 -32 81 -80c0 -50 -33 -82 -81 -82zM35 236v124h353v-124h-353zM213 41c-50 0 -82 32 -82 81s32 81 82 81c48 0 81 -32 81 -81s-33 -81 -81 -81z" />
    <glyph glyph-name="equal" unicode="=" horiz-adv-x="423" 
d="M35 338v141h353v-141h-353zM35 117v142h353v-142h-353z" />
    <glyph glyph-name="notequal" unicode="&#x2260;" horiz-adv-x="423" 
d="M388 338h-93l-22 -79h115v-142h-154l-19 -68h-144l19 68h-55v142h94l22 79h-116v141h155l19 68h143l-19 -68h55v-141z" />
    <glyph glyph-name="greater" unicode="&#x3e;" horiz-adv-x="391" 
d="M35 49v159l162 86v9l-162 86v159l321 -179v-141z" />
    <glyph glyph-name="less" unicode="&#x3c;" horiz-adv-x="391" 
d="M356 49l-321 179v141l321 179v-159l-162 -86v-9l162 -86v-159z" />
    <glyph glyph-name="greaterequal" unicode="&#x2265;" horiz-adv-x="391" 
d="M35 178v158l153 61v8l-153 60v159l321 -153v-141zM35 0v141h321v-141h-321z" />
    <glyph glyph-name="lessequal" unicode="&#x2264;" horiz-adv-x="391" 
d="M356 178l-321 152v141l321 153v-159l-153 -60v-8l153 -61v-158zM35 0v141h321v-141h-321z" />
    <glyph glyph-name="plusminus" unicode="&#xb1;" horiz-adv-x="423" 
d="M286 433h102v-141h-102v-106h-147v106h-104v141h104v106h147v-106zM35 0v141h353v-141h-353z" />
    <glyph glyph-name="approxequal" unicode="&#x2248;" horiz-adv-x="520" 
d="M340 316c-62 0 -93 31 -121 31c-19 0 -29 -13 -29 -29h-155v39c0 102 63 170 147 170c63 0 87 -32 118 -32c20 0 29 13 29 30h155v-40c0 -102 -59 -169 -144 -169zM340 68c-62 0 -93 32 -121 32c-19 0 -29 -13 -29 -30h-155v40c0 102 63 169 147 169c63 0 87 -31 118 -31
c20 0 29 13 29 29h155v-39c0 -102 -59 -170 -144 -170z" />
    <glyph glyph-name="asciitilde" unicode="~" horiz-adv-x="520" 
d="M340 192c-62 0 -93 32 -121 32c-19 0 -29 -13 -29 -30h-155v40c0 101 63 169 147 169c63 0 87 -32 118 -32c20 0 29 13 29 30h155v-40c0 -101 -59 -169 -144 -169z" />
    <glyph glyph-name="logicalnot" unicode="&#xac;" horiz-adv-x="459" 
d="M35 409h388v-260h-145v119h-243v141z" />
    <glyph glyph-name="asciicircum" unicode="^" horiz-adv-x="464" 
d="M27 399l124 271h161l124 -271h-167l-33 131h-9l-32 -131h-168z" />
    <glyph glyph-name="infinity" unicode="&#x221e;" horiz-adv-x="810" 
d="M587 488c108 0 187 -88 187 -221s-79 -221 -187 -221c-71 0 -134 43 -176 110h-11c-41 -65 -105 -110 -177 -110c-108 0 -188 88 -188 221s79 221 188 221c72 0 135 -43 177 -109h11c41 64 104 109 176 109zM248 195c29 0 60 29 75 72c-15 43 -46 72 -75 72
c-33 0 -55 -29 -55 -72s22 -72 55 -72zM562 195c33 0 55 29 55 72s-22 72 -55 72c-29 0 -60 -29 -75 -72c15 -43 46 -72 75 -72z" />
    <glyph glyph-name="integral" unicode="&#x222b;" horiz-adv-x="381" 
d="M20 -180v159h58c10 0 18 8 18 17v528c0 89 57 146 143 146h107v-159h-57c-12 0 -20 -8 -20 -17v-528c0 -89 -59 -146 -149 -146h-100z" />
    <glyph glyph-name="uni2126" unicode="&#x2126;" horiz-adv-x="565" 
d="M469 151h61v-151h-219v191c17 9 28 36 28 64v210c0 34 -23 57 -57 57s-57 -22 -57 -57v-210c0 -30 11 -56 29 -64v-191h-219v151h60v7c-25 17 -44 59 -44 111v199c0 129 92 214 231 214s231 -86 231 -214v-199c0 -50 -18 -93 -44 -111v-7z" />
    <glyph glyph-name="uni2206" unicode="&#x2206;" horiz-adv-x="583" 
d="M415 670l133 -670h-513l134 670h246zM293 496h-10l-38 -336h86z" />
    <glyph glyph-name="product" unicode="&#x220f;" horiz-adv-x="592" 
d="M557 670v-160h-65v-690h-174v690h-45v-690h-173v690h-65v160h522z" />
    <glyph glyph-name="summation" unicode="&#x2211;" horiz-adv-x="492" 
d="M457 670v-160h-193l126 -265l-125 -265h192v-160h-422v105l158 320l-158 320v105h422z" />
    <glyph glyph-name="radical" unicode="&#x221a;" horiz-adv-x="575" 
d="M354 670h186l-127 -670h-235l-54 284h-89v160h232l25 -249h11z" />
    <glyph glyph-name="partialdiff" unicode="&#x2202;" horiz-adv-x="463" 
d="M233 -12c-119 0 -198 73 -198 186v122c0 101 54 166 134 166c21 0 48 -9 67 -23h8c0 51 -24 87 -61 87h-93v156h108c138 0 230 -121 230 -303v-205c0 -113 -79 -186 -195 -186zM233 147c13 0 22 11 22 27v102c0 16 -9 27 -22 27c-14 0 -24 -10 -24 -27v-102
c0 -17 10 -27 24 -27z" />
    <glyph glyph-name="uni00B5" unicode="&#xb5;" horiz-adv-x="480" 
d="M262 500h173v-500h-173v38h-9c-7 -14 -18 -27 -34 -36v-182h-174v680h174v-328c0 -13 7 -22 20 -22s23 8 23 21v329z" />
    <glyph glyph-name="percent" unicode="%" horiz-adv-x="712" 
d="M161 308c-80 0 -134 49 -134 122v130c0 73 54 122 134 122c81 0 133 -49 133 -122v-130c0 -73 -52 -122 -133 -122zM124 0l330 670h134l-330 -670h-134zM161 415c10 0 17 7 17 16v128c0 9 -7 16 -17 16s-16 -7 -16 -16v-128c0 -9 6 -16 16 -16zM551 -12
c-81 0 -134 49 -134 122v130c0 73 53 122 134 122s133 -49 133 -122v-130c0 -73 -52 -122 -133 -122zM551 95c10 0 16 8 16 16v128c0 8 -6 16 -16 16s-16 -7 -16 -16v-128c0 -9 6 -16 16 -16z" />
    <glyph glyph-name="perthousand" unicode="&#x2030;" horiz-adv-x="1007" 
d="M161 308c-80 0 -134 49 -134 122v130c0 73 54 122 134 122c81 0 133 -49 133 -122v-130c0 -73 -52 -122 -133 -122zM124 0l330 670h134l-330 -670h-134zM161 415c10 0 17 7 17 16v128c0 9 -7 16 -17 16s-16 -7 -16 -16v-128c0 -9 6 -16 16 -16zM551 -12
c-81 0 -134 49 -134 122v130c0 73 53 122 134 122s133 -49 133 -122v-130c0 -73 -52 -122 -133 -122zM846 -12c-80 0 -133 49 -133 122v130c0 73 53 122 133 122c81 0 133 -49 133 -122v-130c0 -73 -52 -122 -133 -122zM551 95c10 0 16 8 16 16v128c0 8 -6 16 -16 16
s-16 -7 -16 -16v-128c0 -9 6 -16 16 -16zM846 95c11 0 16 8 16 16v128c0 8 -5 16 -16 16c-9 0 -16 -7 -16 -16v-128c0 -9 7 -16 16 -16z" />
    <glyph glyph-name="plus.case" horiz-adv-x="463" 
d="M428 406v-141h-122v-126h-147v126h-124v141h124v125h147v-125h122z" />
    <glyph glyph-name="arrowup" unicode="&#x2191;" horiz-adv-x="722" 
d="M270 39v238l4 30h-13l-102 -101l-129 129l331 329l330 -329l-129 -129l-101 101h-13l4 -30v-238h-182z" />
    <glyph glyph-name="uni2197" unicode="&#x2197;" horiz-adv-x="722" 
d="M236 66l-128 129l168 167l24 20l-9 9h-143v181h466v-465h-181v142l-10 10l-18 -25z" />
    <glyph glyph-name="arrowright" unicode="&#x2192;" horiz-adv-x="722" 
d="M344 -11l-128 129l101 101v13l-31 -4h-237v182h237l31 -4v13l-101 102l128 128l330 -330z" />
    <glyph glyph-name="uni2198" unicode="&#x2198;" horiz-adv-x="722" 
d="M148 66v181h143l9 9l-24 19l-168 167l128 130l169 -168l18 -26l10 11v142h181v-465h-466z" />
    <glyph glyph-name="arrowdown" unicode="&#x2193;" horiz-adv-x="722" 
d="M362 39l-331 330l129 128l102 -100h13l-4 30v237h182v-237l-4 -30h13l101 100l129 -128z" />
    <glyph glyph-name="uni2199" unicode="&#x2199;" horiz-adv-x="722" 
d="M108 66v465h181v-142l10 -11l18 26l168 168l129 -130l-168 -167l-24 -19l9 -9h143v-181h-466z" />
    <glyph glyph-name="arrowleft" unicode="&#x2190;" horiz-adv-x="722" 
d="M378 -11l-329 330l329 330l129 -128l-101 -102v-13l31 4h237v-182h-237l-31 4v-13l101 -101z" />
    <glyph glyph-name="uni2196" unicode="&#x2196;" horiz-adv-x="722" 
d="M485 66l-168 168l-18 25l-10 -10v-142h-181v465h466v-181h-143l-9 -9l24 -20l168 -167z" />
    <glyph glyph-name="arrowboth" unicode="&#x2194;" horiz-adv-x="1123" 
d="M746 649l329 -330l-329 -330l-129 129l101 101v13l-30 -4h-251l-31 4v-13l101 -101l-129 -129l-329 330l329 330l129 -128l-101 -102v-13l31 4h251l30 -4v13l-101 102z" />
    <glyph glyph-name="arrowupdn" unicode="&#x2195;" horiz-adv-x="731" 
d="M465 163l102 101l129 -128l-331 -330l-330 330l129 128l101 -101h13l-4 31v251l4 30h-13l-101 -101l-129 129l330 330l331 -330l-129 -129l-102 101h-13l4 -30v-251l-4 -31h13z" />
    <glyph glyph-name="arrowup.ss08" horiz-adv-x="765" 
d="M382 -12c-192 0 -347 155 -347 347s155 347 347 347s347 -155 347 -347s-155 -347 -347 -347zM314 117h137v178l-3 22h9l76 -74l96 96l-247 247l-247 -247l96 -96l76 74h10l-3 -22v-178z" />
    <glyph glyph-name="uni2197.ss08" horiz-adv-x="765" 
d="M382 -12c-192 0 -347 155 -347 347s155 347 347 347s347 -155 347 -347s-155 -347 -347 -347zM279 130l126 124l13 19l8 -7v-107h136v349h-349v-136h107l6 -7l-18 -14l-125 -124z" />
    <glyph glyph-name="arrowright.ss08" horiz-adv-x="765" 
d="M382 -12c-192 0 -347 155 -347 347s155 347 347 347s347 -155 347 -347s-155 -347 -347 -347zM389 89l248 246l-248 247l-96 -96l75 -75v-10l-23 3h-177v-138h177l23 3v-9l-75 -75z" />
    <glyph glyph-name="uni2198.ss08" horiz-adv-x="765" 
d="M382 -12c-192 0 -347 155 -347 347s155 347 347 347s347 -155 347 -347s-155 -347 -347 -347zM213 150h349v348h-136v-106l-8 -8l-13 20l-126 124l-96 -97l125 -125l18 -14l-6 -7h-107v-135z" />
    <glyph glyph-name="arrowdown.ss08" horiz-adv-x="765" 
d="M382 -12c-192 0 -347 155 -347 347s155 347 347 347s347 -155 347 -347s-155 -347 -347 -347zM383 101l247 247l-96 97l-76 -75h-10l3 22v178h-136v-178l3 -22h-10l-76 75l-97 -97z" />
    <glyph glyph-name="uni2199.ss08" horiz-adv-x="765" 
d="M382 -12c-192 0 -347 155 -347 347s155 347 347 347s347 -155 347 -347s-155 -347 -347 -347zM203 150h349v135h-107l-6 7l18 15l125 124l-96 97l-126 -124l-13 -19l-8 7v106h-136v-348z" />
    <glyph glyph-name="arrowleft.ss08" horiz-adv-x="765" 
d="M382 -12c-192 0 -347 155 -347 347s155 347 347 347s347 -155 347 -347s-155 -347 -347 -347zM375 89l96 96l-75 75v9l23 -3h177v138h-177l-23 -3v10l75 75l-96 96l-248 -247z" />
    <glyph glyph-name="uni2196.ss08" horiz-adv-x="765" 
d="M382 -12c-192 0 -347 155 -347 347s155 347 347 347s347 -155 347 -347s-155 -347 -347 -347zM486 130l96 97l-125 124l-18 14l6 7h107v136h-349v-349h136v107l8 7l13 -19z" />
    <glyph glyph-name="uni25CF" unicode="&#x25cf;" horiz-adv-x="793" 
d="M396 -12c-192 0 -347 155 -347 347s155 347 347 347s347 -155 347 -347s-155 -347 -347 -347z" />
    <glyph glyph-name="circle" unicode="&#x25cb;" horiz-adv-x="793" 
d="M396 -12c-192 0 -347 155 -347 347s155 347 347 347c191 0 347 -155 347 -347s-155 -347 -347 -347zM396 65c150 0 271 120 271 270s-121 270 -271 270c-149 0 -270 -120 -270 -270s121 -270 270 -270z" />
    <glyph glyph-name="lozenge" unicode="&#x25ca;" horiz-adv-x="575" 
d="M401 670l139 -335l-139 -335h-228l-138 335l138 335h228zM290 174l40 161l-40 161h-12l-40 -161l40 -161h12z" />
    <glyph glyph-name="filledbox" unicode="&#x25a0;" horiz-adv-x="799" 
d="M64 0v670h670v-670h-670z" />
    <glyph glyph-name="uni25A1" unicode="&#x25a1;" horiz-adv-x="799" 
d="M64 0v670h670v-670h-670zM148 84h503v502h-503v-502z" />
    <glyph glyph-name="triagup" unicode="&#x25b2;" horiz-adv-x="799" 
d="M719 40h-640l320 590z" />
    <glyph glyph-name="uni25B6" unicode="&#x25b6;" horiz-adv-x="799" 
d="M104 15v640l590 -320z" />
    <glyph glyph-name="triagdn" unicode="&#x25bc;" horiz-adv-x="799" 
d="M719 630l-320 -590l-320 590h640z" />
    <glyph glyph-name="uni25C0" unicode="&#x25c0;" horiz-adv-x="799" 
d="M694 15l-590 320l590 320v-640z" />
    <glyph glyph-name="uni2713" unicode="&#x2713;" horiz-adv-x="632" 
d="M230 366l62 -155h10l117 419h194l-201 -590h-222l-171 326h211z" />
    <glyph glyph-name="at" unicode="@" horiz-adv-x="711" 
d="M366 468h137v-245c0 -16 11 -27 27 -27c28 0 45 55 45 130c0 152 -87 250 -211 250c-136 0 -223 -112 -223 -292c0 -187 93 -310 250 -310c65 0 135 19 165 40v-106c-38 -24 -106 -40 -173 -40c-216 0 -356 166 -356 415c0 242 132 399 337 399c192 0 324 -139 324 -354
c0 -151 -70 -252 -182 -252c-49 0 -89 19 -114 51h-9c-14 -31 -48 -51 -85 -51c-61 0 -101 48 -101 121v177c0 62 37 104 90 104c30 0 59 -17 72 -46h7v36zM351 204c8 0 15 7 15 17v112c0 10 -7 17 -15 17c-11 0 -17 -8 -17 -18v-110c0 -10 6 -18 17 -18z" />
    <glyph glyph-name="ampersand" unicode="&#x26;" horiz-adv-x="529" 
d="M469 125l53 -70v-55h-133l-28 38c-32 -32 -75 -50 -130 -50c-123 0 -216 85 -216 206c0 75 31 142 94 180v9c-26 47 -41 94 -41 140c0 87 65 159 167 159c101 0 169 -68 169 -164c0 -67 -36 -132 -97 -178l65 -86v72h132v-75c0 -49 -11 -94 -35 -126zM235 560
c-18 0 -29 -14 -29 -38s5 -45 19 -69c21 23 35 49 35 74c0 21 -8 33 -25 33zM259 118c13 0 26 2 37 6l-100 134c-9 -17 -14 -37 -14 -57c0 -48 29 -83 77 -83z" />
    <glyph glyph-name="paragraph" unicode="&#xb6;" horiz-adv-x="514" 
d="M328 670v-840h-112v384h-5c-114 0 -191 91 -191 229c0 136 77 227 191 227h117zM367 670h112v-840h-112v840z" />
    <glyph glyph-name="section" unicode="&#xa7;" horiz-adv-x="493" 
d="M405 128v-14c24 -27 40 -67 40 -125c0 -111 -79 -177 -196 -177c-116 0 -196 65 -196 165v11h167v-10c0 -17 12 -29 29 -29c16 0 26 12 26 28c0 104 -240 59 -240 262c0 56 17 99 54 129v11c-24 27 -41 66 -41 125c0 112 78 178 196 178s196 -66 196 -165v-11h-167v11
c0 17 -12 28 -29 28c-16 0 -26 -11 -26 -27c0 -104 240 -59 240 -262c0 -56 -19 -100 -53 -128zM206 269c0 -44 34 -63 76 -81c4 11 6 24 6 36c0 45 -33 64 -75 82c-4 -11 -7 -24 -7 -37z" />
    <glyph glyph-name="copyright" unicode="&#xa9;" horiz-adv-x="632" 
d="M315 -12c-169 0 -280 138 -280 347s111 347 280 347c170 0 282 -138 282 -347s-112 -347 -282 -347zM315 60c123 0 204 109 204 275s-81 275 -204 275c-122 0 -203 -109 -203 -275s81 -275 203 -275zM316 135c-91 0 -151 56 -151 142v116c0 86 60 142 151 142
c92 0 152 -56 152 -142v-32h-138v32c0 9 -5 15 -13 15c-9 0 -14 -6 -14 -15v-116c0 -9 5 -15 14 -15c8 0 13 6 13 15v32h138v-32c0 -86 -60 -142 -152 -142z" />
    <glyph glyph-name="registered" unicode="&#xae;" horiz-adv-x="390" 
d="M194 682c107 0 178 -78 178 -197s-71 -197 -178 -197c-106 0 -177 78 -177 197s71 197 177 197zM194 332c81 0 134 61 134 153s-53 153 -134 153c-80 0 -132 -61 -132 -153s52 -153 132 -153zM281 520c0 -27 -11 -48 -31 -60l35 -69h-71l-23 57h-6v-57h-61v201h83
c45 0 74 -29 74 -72zM185 535v-34h16c11 0 18 7 18 17c0 11 -7 17 -18 17h-16z" />
    <glyph glyph-name="trademark" unicode="&#x2122;" horiz-adv-x="569" 
d="M7 583v87h214v-87h-61v-248h-91v248h-62zM423 670h118v-335h-93v159l4 25h-6l-20 -132h-67l-19 132h-6l3 -25v-159h-93v335h122l26 -156h6z" />
    <glyph glyph-name="degree" unicode="&#xb0;" horiz-adv-x="310" 
d="M155 375c-89 0 -148 61 -148 154c0 92 59 153 148 153c88 0 147 -60 147 -153s-59 -154 -147 -154zM155 481c18 0 31 19 31 48c0 28 -13 46 -31 46c-19 0 -30 -19 -30 -46c0 -28 11 -48 30 -48z" />
    <glyph glyph-name="bar" unicode="|" horiz-adv-x="259" 
d="M55 -180v930h148v-930h-148z" />
    <glyph glyph-name="brokenbar" unicode="&#xa6;" horiz-adv-x="259" 
d="M55 373v377h148v-377h-148zM55 -180v377h148v-377h-148z" />
    <glyph glyph-name="dagger" unicode="&#x2020;" horiz-adv-x="443" 
d="M408 500v-139h-113v-531h-148v531h-112v139h112v170h148v-170h113z" />
    <glyph glyph-name="daggerdbl" unicode="&#x2021;" horiz-adv-x="443" 
d="M408 361h-113v-222h113v-139h-113v-170h-148v170h-112v139h112v222h-112v139h112v170h148v-170h113v-139z" />
    <glyph glyph-name="uni2116" unicode="&#x2116;" horiz-adv-x="970" 
d="M749 192c-114 0 -189 72 -189 179v132c0 108 75 179 189 179s190 -71 190 -179v-132c0 -107 -76 -179 -190 -179zM45 0v670h201l84 -337h12l-7 49v288h174v-670h-201l-83 337h-13l8 -49v-288h-175zM749 343c15 0 25 12 25 29v131c0 17 -10 28 -25 28s-25 -11 -25 -28
v-131c0 -17 10 -29 25 -29zM576 0v134h346v-134h-346z" />
    <glyph glyph-name="estimated" unicode="&#x212e;" horiz-adv-x="646" 
d="M610 292h-419v-123c25 -55 80 -92 140 -92c64 0 121 35 144 88h130c-47 -107 -155 -177 -274 -177c-178 0 -296 138 -296 347s114 347 288 347c173 0 287 -130 287 -327v-63zM323 593c-56 0 -108 -37 -132 -93v-111h268v111c-23 56 -76 93 -136 93z" />
    <glyph glyph-name="uni2120" unicode="&#x2120;" horiz-adv-x="594" 
d="M131 329c-68 0 -114 41 -114 103v7h97v-8c0 -11 7 -19 17 -19c9 0 15 7 15 16c0 49 -129 24 -129 145c0 62 44 103 113 103c66 0 110 -39 110 -98v-6h-96v6c0 9 -6 15 -15 15c-8 0 -14 -6 -14 -15c0 -47 129 -19 129 -142c0 -65 -45 -107 -113 -107zM269 335v335h121
l27 -156h5l26 156h118v-335h-93v159l3 25h-5l-20 -132h-67l-19 132h-7l4 -25v-159h-93z" />
    <glyph glyph-name="at.case" horiz-adv-x="711" 
d="M366 508h137v-245c0 -16 11 -27 27 -27c28 0 45 55 45 130c0 152 -87 250 -211 250c-136 0 -223 -112 -223 -292c0 -187 93 -310 250 -310c65 0 135 19 165 40v-106c-38 -24 -106 -40 -173 -40c-216 0 -356 166 -356 415c0 242 132 399 337 399c192 0 324 -139 324 -354
c0 -151 -70 -252 -182 -252c-49 0 -89 19 -114 51h-9c-14 -31 -48 -51 -85 -51c-61 0 -101 48 -101 121v177c0 62 37 104 90 104c30 0 59 -17 72 -46h7v36zM351 244c8 0 15 7 15 17v112c0 10 -7 17 -15 17c-11 0 -17 -8 -17 -18v-110c0 -10 6 -18 17 -18z" />
    <glyph glyph-name="ampersand.ss06" horiz-adv-x="501" 
d="M436 132l51 -77v-55h-132l-23 36c-29 -30 -71 -48 -122 -48c-111 0 -195 83 -195 202c0 78 35 148 94 184v14c-24 41 -41 83 -41 137c0 85 65 157 167 157c101 0 169 -68 169 -164v-67h-144v76c0 21 -8 33 -25 33c-18 0 -29 -13 -29 -34c0 -40 16 -69 44 -111l87 -132v43
h133v-58c0 -52 -13 -101 -34 -136zM242 118c12 0 23 3 33 7l-81 128c-8 -16 -12 -35 -12 -55c0 -48 24 -80 60 -80z" />
    <glyph glyph-name="at.ss07" horiz-adv-x="711" 
d="M366 468h137v-245c0 -16 11 -27 27 -27c28 0 45 55 45 130c0 152 -87 250 -210 250c-141 0 -224 -120 -224 -299c0 -183 86 -303 229 -303h186v-106h-187c-208 0 -342 161 -342 408c0 244 131 406 338 406c191 0 323 -139 323 -354c0 -151 -70 -252 -182 -252
c-49 0 -89 19 -114 51h-9c-14 -31 -48 -51 -82 -51c-65 0 -104 49 -104 121v177c0 62 37 104 90 104c30 0 59 -17 72 -46h7v36zM351 204c8 0 15 7 15 17v112c0 10 -7 17 -15 17c-11 0 -17 -8 -17 -18v-110c0 -10 6 -18 17 -18z" />
    <glyph glyph-name="at.case.ss07" horiz-adv-x="711" 
d="M366 508h137v-245c0 -16 11 -27 27 -27c28 0 45 55 45 130c0 152 -87 250 -210 250c-141 0 -224 -120 -224 -299c0 -183 86 -303 229 -303h186v-106h-187c-208 0 -342 161 -342 408c0 244 131 406 338 406c191 0 323 -139 323 -354c0 -151 -70 -252 -182 -252
c-49 0 -89 19 -114 51h-9c-14 -31 -48 -51 -82 -51c-65 0 -104 49 -104 121v177c0 62 37 104 90 104c30 0 59 -17 72 -46h7v36zM351 244c8 0 15 7 15 17v112c0 10 -7 17 -15 17c-11 0 -17 -8 -17 -18v-110c0 -10 6 -18 17 -18z" />
    <glyph glyph-name="uni02BC" unicode="&#x2bc;" horiz-adv-x="147" 
d="M0 480v190h147v-21l-30 -169h-117z" />
    <glyph glyph-name="uni0308" unicode="&#x308;" horiz-adv-x="0" 
d="M-275 545c-51 0 -85 35 -85 87c0 50 34 83 85 83s85 -33 85 -83c0 -52 -35 -87 -85 -87zM-84 545c-51 0 -86 35 -86 87c0 50 34 83 86 83c50 0 84 -33 84 -83c0 -52 -35 -87 -84 -87z" />
    <glyph glyph-name="uni0307" unicode="&#x307;" horiz-adv-x="0" 
d="M-88 545c-54 0 -89 36 -89 88c0 53 35 88 89 88c52 0 88 -35 88 -88c0 -52 -36 -88 -88 -88z" />
    <glyph glyph-name="gravecomb" unicode="&#x300;" horiz-adv-x="0" 
d="M-129 549l-128 138v21h190l67 -159h-129z" />
    <glyph glyph-name="acutecomb" unicode="&#x301;" horiz-adv-x="0" 
d="M-257 549l67 159h190v-21l-128 -138h-129z" />
    <glyph glyph-name="uni030B" unicode="&#x30b;" horiz-adv-x="0" 
d="M-394 549l45 159h160v-21l-76 -138h-129zM-206 549l46 159h160v-21l-76 -138h-130z" />
    <glyph glyph-name="caroncomb.alt" horiz-adv-x="0" 
d="M-147 480v190h147v-21l-30 -169h-117z" />
    <glyph glyph-name="uni0302" unicode="&#x302;" horiz-adv-x="0" 
d="M-348 549l91 159h166l91 -159h-139l-31 63h-8l-31 -63h-139z" />
    <glyph glyph-name="uni030C" unicode="&#x30c;" horiz-adv-x="0" 
d="M-257 549l-91 159h139l31 -63h8l31 63h139l-91 -159h-166z" />
    <glyph glyph-name="uni0306" unicode="&#x306;" horiz-adv-x="0" 
d="M-152 541c-93 0 -153 61 -153 155v15h125v-14c0 -16 11 -26 28 -26c16 0 26 10 26 26v14h126v-15c0 -94 -61 -155 -152 -155z" />
    <glyph glyph-name="uni030A" unicode="&#x30a;" horiz-adv-x="0" 
d="M-109 541c-67 0 -111 43 -111 109s44 109 111 109c66 0 109 -43 109 -109s-43 -109 -109 -109zM-109 618c15 0 26 12 26 32c0 19 -11 32 -26 32c-17 0 -28 -13 -28 -32c0 -20 11 -32 28 -32z" />
    <glyph glyph-name="tildecomb" unicode="&#x303;" horiz-adv-x="0" 
d="M-113 547c-48 0 -72 31 -96 31c-14 0 -24 -11 -24 -28h-118v32c0 84 46 141 114 141c49 0 69 -30 93 -30c14 0 25 11 25 28h119v-31c0 -85 -47 -143 -113 -143z" />
    <glyph glyph-name="uni0304" unicode="&#x304;" horiz-adv-x="0" 
d="M-264 562v127h264v-127h-264z" />
    <glyph glyph-name="uni030F" unicode="&#x30f;" horiz-adv-x="0" 
d="M-317 549l-77 138v21h160l46 -159h-129zM-129 549l-76 138v21h161l44 -159h-129z" />
    <glyph glyph-name="uni0311" unicode="&#x311;" horiz-adv-x="0" 
d="M-305 549v14c0 93 60 156 153 156c91 0 152 -63 152 -156v-14h-126v14c0 14 -10 24 -26 24c-17 0 -28 -10 -28 -24v-14h-125z" />
    <glyph glyph-name="uni0312" unicode="&#x312;" horiz-adv-x="0" 
d="M-210 549v20l92 168h118l-35 -188h-175z" />
    <glyph glyph-name="dotbelowcomb" unicode="&#x323;" horiz-adv-x="0" 
d="M-88 -221c-54 0 -89 35 -89 88c0 52 35 88 89 88c52 0 88 -36 88 -88c0 -53 -36 -88 -88 -88z" />
    <glyph glyph-name="uni0326" unicode="&#x326;" horiz-adv-x="0" 
d="M-210 -238l35 189h175v-21l-92 -168h-118z" />
    <glyph glyph-name="uni0327" unicode="&#x327;" horiz-adv-x="0" 
d="M-81 -37c49 0 81 -38 81 -92c0 -65 -48 -108 -123 -108c-31 0 -59 7 -76 17v86c18 -10 42 -17 61 -17c18 0 29 10 29 25c0 11 -9 20 -23 20h-50v50l28 56l-1 2h89l2 -2z" />
    <glyph glyph-name="uni0328" unicode="&#x328;" horiz-adv-x="0" 
d="M-80 -226c-79 0 -130 46 -130 113c0 50 24 94 60 112v3h140l1 -2c-35 -11 -58 -41 -58 -72c0 -24 15 -40 38 -40c10 0 23 4 29 11v-109c-18 -10 -50 -16 -80 -16z" />
    <glyph glyph-name="uni0335" unicode="&#x335;" horiz-adv-x="0" 
d="M-312 185v139h312v-139h-312z" />
    <glyph glyph-name="uni0336" unicode="&#x336;" horiz-adv-x="0" 
d="M-504 193v122h504v-122h-504z" />
    <glyph glyph-name="uni0337" unicode="&#x337;" horiz-adv-x="0" 
d="M-354 -30l69 129l27 23l124 286l-8 15l62 107h80l-61 -107l-24 -16l-121 -281l2 -28l-69 -128h-81z" />
    <glyph glyph-name="uni0338" unicode="&#x338;" horiz-adv-x="0" 
d="M-435 -30l346 730h89l-345 -730h-90z" />
    <glyph glyph-name="acute" unicode="&#xb4;" horiz-adv-x="257" 
d="M0 549l67 159h190v-21l-128 -138h-129z" />
    <glyph glyph-name="breve" unicode="&#x2d8;" horiz-adv-x="305" 
d="M153 541c-93 0 -153 61 -153 155v15h125v-14c0 -16 11 -26 28 -26c16 0 26 10 26 26v14h126v-15c0 -94 -61 -155 -152 -155z" />
    <glyph glyph-name="caron" unicode="&#x2c7;" horiz-adv-x="348" 
d="M91 549l-91 159h139l31 -63h8l31 63h139l-91 -159h-166z" />
    <glyph glyph-name="cedilla" unicode="&#xb8;" horiz-adv-x="199" 
d="M118 -37c49 0 81 -38 81 -92c0 -65 -48 -108 -123 -108c-31 0 -59 7 -76 17v86c18 -10 42 -17 61 -17c18 0 29 10 29 25c0 11 -9 20 -23 20h-50v50l28 56l-1 2h89l2 -2z" />
    <glyph glyph-name="circumflex" unicode="&#x2c6;" horiz-adv-x="348" 
d="M0 549l91 159h166l91 -159h-139l-31 63h-8l-31 -63h-139z" />
    <glyph glyph-name="dieresis" unicode="&#xa8;" horiz-adv-x="360" 
d="M85 545c-51 0 -85 35 -85 87c0 50 34 83 85 83s85 -33 85 -83c0 -52 -35 -87 -85 -87zM276 545c-51 0 -86 35 -86 87c0 50 34 83 86 83c50 0 84 -33 84 -83c0 -52 -35 -87 -84 -87z" />
    <glyph glyph-name="dotaccent" unicode="&#x2d9;" horiz-adv-x="177" 
d="M89 545c-54 0 -89 36 -89 88c0 53 35 88 89 88c52 0 88 -35 88 -88c0 -52 -36 -88 -88 -88z" />
    <glyph glyph-name="grave" unicode="`" horiz-adv-x="257" 
d="M128 549l-128 138v21h190l67 -159h-129z" />
    <glyph glyph-name="hungarumlaut" unicode="&#x2dd;" horiz-adv-x="394" 
d="M0 549l45 159h160v-21l-76 -138h-129zM188 549l46 159h160v-21l-76 -138h-130z" />
    <glyph glyph-name="macron" unicode="&#xaf;" horiz-adv-x="264" 
d="M0 562v127h264v-127h-264z" />
    <glyph glyph-name="ogonek" unicode="&#x2db;" horiz-adv-x="206" 
d="M130 -226c-79 0 -130 46 -130 113c0 50 24 94 60 112v3h140l1 -2c-35 -11 -58 -41 -58 -72c0 -24 15 -40 38 -40c10 0 23 4 29 11v-109c-18 -10 -50 -16 -80 -16z" />
    <glyph glyph-name="ring" unicode="&#x2da;" horiz-adv-x="220" 
d="M111 541c-67 0 -111 43 -111 109s44 109 111 109c66 0 109 -43 109 -109s-43 -109 -109 -109zM111 618c15 0 26 12 26 32c0 19 -11 32 -26 32c-17 0 -28 -13 -28 -32c0 -20 11 -32 28 -32z" />
    <glyph glyph-name="tilde" unicode="&#x2dc;" horiz-adv-x="351" 
d="M238 547c-48 0 -72 31 -96 31c-14 0 -24 -11 -24 -28h-118v32c0 84 46 141 114 141c49 0 69 -30 93 -30c14 0 25 11 25 28h119v-31c0 -85 -47 -143 -113 -143z" />
    <glyph glyph-name="caron.alt" horiz-adv-x="147" 
d="M0 480v190h147v-21l-30 -169h-117z" />
    </font>
</defs>
</svg>
